SplineFontDB: 3.0
FontName: Cutive
FullName: Cutive
FamilyName: Cutive Book
Weight: Book
Copyright: Vernon Adams 2012
Version: 0.000;PS (version unavailable);hotconv 1.0.57;makeotf.lib2.0.21895 DEVELOPMENT
ItalicAngle: 0
UnderlinePosition: -51
UnderlineWidth: 102
Ascent: 1638
Descent: 410
sfntRevision: 0x00000000
LayerCount: 2
Layer: 0 1 "Back"  1
Layer: 1 1 "Fore"  0
XUID: [1021 14 500265001 10738898]
FSType: 4
OS2Version: 3
OS2_WeightWidthSlopeOnly: 0
OS2_UseTypoMetrics: 1
CreationTime: 1330612257
ModificationTime: 1330613434
PfmFamily: 81
TTFWeight: 400
TTFWidth: 5
LineGap: 200
VLineGap: 0
Panose: 0 0 0 0 0 0 0 0 0 0
OS2TypoAscent: 725
OS2TypoAOffset: 1
OS2TypoDescent: 1214
OS2TypoDOffset: 1
OS2TypoLinegap: 0
OS2WinAscent: -1
OS2WinAOffset: 1
OS2WinDescent: 19
OS2WinDOffset: 1
HheadAscent: -891
HheadAOffset: 1
HheadDescent: 210
HheadDOffset: 1
OS2SubXSize: 1331
OS2SubYSize: 1228
OS2SubXOff: 0
OS2SubYOff: 153
OS2SupXSize: 1331
OS2SupYSize: 1228
OS2SupXOff: 0
OS2SupYOff: 716
OS2StrikeYSize: 50
OS2StrikeYPos: 696
OS2Vendor: 'newt'
OS2CodePages: 00000001.00000000
OS2UnicodeRanges: 80000027.00000000.00000000.00000000
Lookup: 258 0 0 "'kern' Horizontal Kerning lookup 0"  {"'kern' Horizontal Kerning lookup 0 per glyph data 0" [307,30,0] "'kern' Horizontal Kerning lookup 0 kerning class 1" [307,0,0] } ['kern' ('DFLT' <'dflt' > 'latn' <'latn' > ) ]
MarkAttachClasses: 1
DEI: 91125
KernClass2: 29+ 34 "'kern' Horizontal Kerning lookup 0 kerning class 1" 
 1 F
 1 J
 1 K
 1 L
 1 a
 1 d
 1 e
 1 f
 1 g
 12 quotedblleft
 9 quoteleft
 81 A Adieresis Aring Agrave Atilde Acircumflex Aacute Amacron Abreve Aogonek uni0202
 1 B
 43 H M N Ntilde Nacute Ncommaaccent Ncaron Eng
 110 Eth D O Q Odieresis Oslash Otilde Oacute Ocircumflex Ograve Dcaron Omacron Obreve Ohungarumlaut uni020E Dcroat
 1 P
 16 T Tcaron uni021A
 95 U Udieresis Uacute Ucircumflex Ugrave Utilde Umacron Ubreve Uring Uhungarumlaut Uogonek uni0216
 1 V
 1 W
 18 Yacute Y Ydieresis

StartChar: Eth
Encoding: 208 208 2
Width: 1878
Flags: W
LayerCount: 2
Fore
SplineSet
1872 866 m 1,0,1
 1872 444 1872 444 1594 222 c 128,-1,2
 1316 0 1316 0 893 0 c 2,3,-1
 135 0 l 2,4,5
 100 0 100 0 80.5 25.5 c 128,-1,6
 61 51 61 51 61 84 c 0,7,8
 61 121 61 121 78 148.5 c 128,-1,9
 95 176 95 176 133 176 c 2,10,-1
 401 176 l 1,11,-1
 401 809 l 1,12,-1
 252 809 l 2,13,14
 211 809 211 809 190.5 834 c 128,-1,15
 170 859 170 859 170 888 c 256,16,17
 170 917 170 917 189.5 941 c 128,-1,18
 209 965 209 965 246 965 c 2,19,-1
 401 965 l 1,20,-1
 401 1538 l 1,21,-1
 198 1538 l 2,22,23
 160 1538 160 1538 143.5 1565.5 c 128,-1,24
 127 1593 127 1593 127 1630 c 0,25,26
 127 1663 127 1663 146.5 1688.5 c 128,-1,27
 166 1714 166 1714 201 1714 c 2,28,-1
 893 1714 l 2,29,30
 1325 1714 1325 1714 1598.5 1503.5 c 128,-1,31
 1872 1293 1872 1293 1872 866 c 1,32,-1
 1872 866 l 1,0,1
1630 866 m 1,33,34
 1630 1188 1630 1188 1437.5 1363 c 128,-1,35
 1245 1538 1245 1538 921 1538 c 2,36,-1
 635 1538 l 1,37,-1
 635 965 l 1,38,-1
 888 965 l 2,39,40
 924 965 924 965 942 941 c 128,-1,41
 960 917 960 917 960 888 c 256,42,43
 960 859 960 859 941.5 834 c 128,-1,44
 923 809 923 809 886 809 c 2,45,-1
 635 809 l 1,46,-1
 635 176 l 1,47,48
 670 174 670 174 704 173 c 128,-1,49
 738 172 738 172 772 172 c 0,50,51
 1151 172 1151 172 1390.5 325 c 128,-1,52
 1630 478 1630 478 1630 866 c 1,53,-1
 1630 866 l 1,33,34
EndSplineSet
EndChar

StartChar: eth
Encoding: 240 240 3
Width: 1378
Flags: W
LayerCount: 2
Fore
SplineSet
668 149 m 1,0,1
 852 149 852 149 952.5 269 c 128,-1,2
 1053 389 1053 389 1053 575 c 0,3,4
 1053 767 1053 767 953 886 c 128,-1,5
 853 1005 853 1005 676 1005 c 0,6,7
 492 1005 492 1005 387.5 886.5 c 128,-1,8
 283 768 283 768 283 575 c 0,9,10
 283 390 283 390 383 269.5 c 128,-1,11
 483 149 483 149 668 149 c 1,12,-1
 668 149 l 1,0,1
526 1885 m 1,13,14
 607 1885 607 1885 686 1815.5 c 128,-1,15
 765 1746 765 1746 814 1704 c 1,16,-1
 967 1827 l 2,17,18
 984 1840 984 1840 1000.5 1846 c 128,-1,19
 1017 1852 1017 1852 1031 1852 c 0,20,21
 1065 1852 1065 1852 1088 1826.5 c 128,-1,22
 1111 1801 1111 1801 1111 1770 c 0,23,24
 1111 1752 1111 1752 1102 1734 c 128,-1,25
 1093 1716 1093 1716 1073 1702 c 2,26,-1
 924 1599 l 1,27,28
 1093 1424 1093 1424 1195 1197 c 128,-1,29
 1297 970 1297 970 1297 690 c 0,30,31
 1297 371 1297 371 1143 174.5 c 128,-1,32
 989 -22 989 -22 668 -22 c 0,33,34
 396 -22 396 -22 231.5 142.5 c 128,-1,35
 67 307 67 307 67 580 c 0,36,37
 67 852 67 852 231.5 1020 c 128,-1,38
 396 1188 396 1188 666 1188 c 0,39,40
 768 1188 768 1188 851 1145 c 128,-1,41
 934 1102 934 1102 997 1044 c 1,42,43
 971 1171 971 1171 906 1280.5 c 128,-1,44
 841 1390 841 1390 756 1483 c 1,45,-1
 585 1365 l 2,46,47
 577 1360 577 1360 568.5 1357 c 128,-1,48
 560 1354 560 1354 552 1354 c 0,49,50
 529 1354 529 1354 510.5 1371.5 c 128,-1,51
 492 1389 492 1389 492 1413 c 0,52,53
 492 1426 492 1426 499.5 1441.5 c 128,-1,54
 507 1457 507 1457 524 1470 c 2,55,-1
 660 1580 l 1,56,57
 614 1622 614 1622 531 1687.5 c 128,-1,58
 448 1753 448 1753 448 1822 c 0,59,60
 448 1853 448 1853 471 1869 c 128,-1,61
 494 1885 494 1885 526 1885 c 1,62,-1
 526 1885 l 1,13,14
EndSplineSet
EndChar

StartChar: Lslash
Encoding: 321 321 4
Width: 1870
Flags: W
LayerCount: 2
Fore
SplineSet
970 1630 m 1,0,1
 970 1593 970 1593 953 1565.5 c 128,-1,2
 936 1538 936 1538 898 1538 c 2,3,-1
 675 1538 l 1,4,-1
 675 1149 l 1,5,-1
 937 1250 l 1,6,7
 953 1254 953 1254 966.5 1256.5 c 128,-1,8
 980 1259 980 1259 992 1259 c 0,9,10
 1029 1259 1029 1259 1044.5 1239.5 c 128,-1,11
 1060 1220 1060 1220 1060 1195 c 0,12,13
 1060 1169 1060 1169 1047 1144.5 c 128,-1,14
 1034 1120 1034 1120 1016 1115 c 1,15,-1
 675 984 l 1,16,-1
 675 176 l 1,17,-1
 1379 176 l 2,18,19
 1464 176 1464 176 1525.5 200 c 128,-1,20
 1587 224 1587 224 1594 303 c 1,21,-1
 1623 584 l 2,22,23
 1627 617 1627 617 1648.5 632 c 128,-1,24
 1670 647 1670 647 1705 647 c 0,25,26
 1742 647 1742 647 1769.5 627 c 128,-1,27
 1797 607 1797 607 1797 567 c 1,28,-1
 1752 68 l 2,29,30
 1749 40 1749 40 1734 20 c 128,-1,31
 1719 0 1719 0 1691 0 c 2,32,-1
 142 0 l 2,33,34
 107 0 107 0 87.5 25.5 c 128,-1,35
 68 51 68 51 68 84 c 0,36,37
 68 121 68 121 85 148.5 c 128,-1,38
 102 176 102 176 140 176 c 2,39,-1
 441 176 l 1,40,-1
 441 893 l 1,41,-1
 310 843 l 1,42,43
 292 838 292 838 277 835.5 c 128,-1,44
 262 833 262 833 249 833 c 0,45,46
 210 833 210 833 194 852.5 c 128,-1,47
 178 872 178 872 178 897 c 256,48,49
 178 922 178 922 191 945.5 c 128,-1,50
 204 969 204 969 223 975 c 1,51,-1
 441 1059 l 1,52,-1
 441 1538 l 1,53,-1
 202 1538 l 2,54,55
 164 1538 164 1538 147 1565.5 c 128,-1,56
 130 1593 130 1593 130 1630 c 0,57,58
 130 1663 130 1663 149.5 1688.5 c 128,-1,59
 169 1714 169 1714 204 1714 c 2,60,-1
 896 1714 l 2,61,62
 931 1714 931 1714 950.5 1688.5 c 128,-1,63
 970 1663 970 1663 970 1630 c 1,64,-1
 970 1630 l 1,0,1
EndSplineSet
EndChar

StartChar: lslash
Encoding: 322 322 5
Width: 946
Flags: W
LayerCount: 2
Fore
SplineSet
527 1735 m 1,0,1
 548 1735 548 1735 564 1721.5 c 128,-1,2
 580 1708 580 1708 580 1686 c 2,3,-1
 580 1175 l 1,4,-1
 757 1250 l 1,5,6
 773 1254 773 1254 786.5 1256.5 c 128,-1,7
 800 1259 800 1259 812 1259 c 0,8,9
 849 1259 849 1259 864.5 1239.5 c 128,-1,10
 880 1220 880 1220 880 1195 c 0,11,12
 880 1169 880 1169 867 1144.5 c 128,-1,13
 854 1120 854 1120 836 1115 c 1,14,-1
 580 1006 l 1,15,-1
 580 176 l 1,16,-1
 824 176 l 2,17,18
 862 176 862 176 879 148.5 c 128,-1,19
 896 121 896 121 896 84 c 0,20,21
 896 51 896 51 876.5 25.5 c 128,-1,22
 857 0 857 0 822 0 c 2,23,-1
 154 0 l 2,24,25
 112 0 112 0 92 24 c 128,-1,26
 72 48 72 48 72 86 c 0,27,28
 72 123 72 123 90.5 149.5 c 128,-1,29
 109 176 109 176 148 176 c 2,30,-1
 375 176 l 1,31,-1
 375 919 l 1,32,-1
 220 853 l 1,33,34
 202 848 202 848 187 845.5 c 128,-1,35
 172 843 172 843 159 843 c 0,36,37
 120 843 120 843 104 862.5 c 128,-1,38
 88 882 88 882 88 907 c 256,39,40
 88 932 88 932 101 955.5 c 128,-1,41
 114 979 114 979 133 985 c 1,42,-1
 375 1088 l 1,43,-1
 375 1520 l 1,44,-1
 140 1458 l 1,45,46
 136 1458 136 1458 135 1457 c 128,-1,47
 134 1456 134 1456 130 1456 c 0,48,49
 99 1456 99 1456 74.5 1483.5 c 128,-1,50
 50 1511 50 1511 50 1542 c 0,51,52
 50 1585 50 1585 72.5 1598.5 c 128,-1,53
 95 1612 95 1612 128 1622 c 2,54,-1
 513 1733 l 2,55,56
 515 1734 515 1734 518.5 1734.5 c 128,-1,57
 522 1735 522 1735 527 1735 c 1,58,-1
 527 1735 l 1,0,1
EndSplineSet
EndChar

StartChar: Thorn
Encoding: 222 222 10
Width: 1518
Flags: W
LayerCount: 2
Fore
SplineSet
1545 907 m 1,0,1
 1545 582 1545 582 1252.5 521 c 128,-1,2
 960 460 960 460 638 460 c 1,3,-1
 638 176 l 1,4,-1
 943 176 l 2,5,6
 981 176 981 176 998 148.5 c 128,-1,7
 1015 121 1015 121 1015 84 c 0,8,9
 1015 51 1015 51 995.5 25.5 c 128,-1,10
 976 0 976 0 941 0 c 2,11,-1
 142 0 l 2,12,13
 107 0 107 0 87.5 25.5 c 128,-1,14
 68 51 68 51 68 84 c 0,15,16
 68 121 68 121 85 148.5 c 128,-1,17
 102 176 102 176 140 176 c 2,18,-1
 404 176 l 1,19,-1
 404 1536 l 1,20,-1
 160 1536 l 2,21,22
 122 1536 122 1536 105 1563.5 c 128,-1,23
 88 1591 88 1591 88 1628 c 0,24,25
 88 1661 88 1661 107.5 1686.5 c 128,-1,26
 127 1712 127 1712 162 1712 c 2,27,-1
 861 1712 l 2,28,29
 889 1712 889 1712 905 1686.5 c 128,-1,30
 921 1661 921 1661 921 1628 c 0,31,32
 921 1591 921 1591 904 1563.5 c 128,-1,33
 887 1536 887 1536 849 1536 c 2,34,-1
 638 1536 l 1,35,-1
 638 1359 l 1,36,37
 981 1359 981 1359 1263 1301.5 c 128,-1,38
 1545 1244 1545 1244 1545 907 c 1,39,-1
 1545 907 l 1,0,1
1309 917 m 1,40,41
 1309 1110 1309 1110 1143.5 1150.5 c 128,-1,42
 978 1191 978 1191 638 1191 c 1,43,-1
 638 624 l 1,44,45
 987 624 987 624 1148 665.5 c 128,-1,46
 1309 707 1309 707 1309 917 c 1,47,-1
 1309 917 l 1,40,41
EndSplineSet
EndChar

StartChar: thorn
Encoding: 254 254 11
Width: 1474
Flags: W
LayerCount: 2
Fore
SplineSet
1186 582 m 1,0,1
 1186 759 1186 759 1097.5 888.5 c 128,-1,2
 1009 1018 1009 1018 836 1018 c 0,3,4
 704 1018 704 1018 608.5 968 c 128,-1,5
 513 918 513 918 453 840 c 1,6,-1
 453 283 l 1,7,8
 516 220 516 220 610.5 182.5 c 128,-1,9
 705 145 705 145 830 145 c 0,10,11
 1005 145 1005 145 1095.5 275.5 c 128,-1,12
 1186 406 1186 406 1186 582 c 1,13,-1
 1186 582 l 1,0,1
1407 582 m 1,14,15
 1407 316 1407 316 1250 145.5 c 128,-1,16
 1093 -25 1093 -25 830 -25 c 0,17,18
 707 -25 707 -25 615.5 12 c 128,-1,19
 524 49 524 49 453 109 c 1,20,-1
 453 -399 l 1,21,-1
 655 -399 l 2,22,23
 693 -399 693 -399 710 -427 c 128,-1,24
 727 -455 727 -455 727 -492 c 0,25,26
 727 -525 727 -525 707.5 -550 c 128,-1,27
 688 -575 688 -575 653 -575 c 2,28,-1
 129 -575 l 2,29,30
 87 -575 87 -575 67 -551 c 128,-1,31
 47 -527 47 -527 47 -489 c 0,32,33
 47 -452 47 -452 65.5 -425.5 c 128,-1,34
 84 -399 84 -399 123 -399 c 2,35,-1
 248 -399 l 1,36,-1
 248 1530 l 1,37,-1
 105 1495 l 2,38,39
 103 1494 103 1494 99 1493.5 c 128,-1,40
 95 1493 95 1493 90 1493 c 0,41,42
 60 1493 60 1493 34 1517.5 c 128,-1,43
 8 1542 8 1542 8 1573 c 0,44,45
 8 1607 8 1607 23 1627.5 c 128,-1,46
 38 1648 38 1648 66 1657 c 1,47,-1
 362 1734 l 1,48,49
 370 1735 370 1735 377.5 1736.5 c 128,-1,50
 385 1738 385 1738 392 1738 c 0,51,52
 437 1738 437 1738 444.5 1697 c 128,-1,53
 452 1656 452 1656 453 1590 c 1,54,-1
 453 990 l 1,55,56
 507 1077 507 1077 612 1132.5 c 128,-1,57
 717 1188 717 1188 850 1188 c 0,58,59
 1112 1188 1112 1188 1259.5 1016.5 c 128,-1,60
 1407 845 1407 845 1407 582 c 1,61,-1
 1407 582 l 1,14,15
EndSplineSet
EndChar

StartChar: onehalf
Encoding: 189 189 14
Width: 2342
Flags: W
LayerCount: 2
Fore
SplineSet
74 541 m 1,0,1
 74 566 74 566 87 584.5 c 128,-1,2
 100 603 100 603 127 603 c 2,3,-1
 299 603 l 1,4,-1
 299 1580 l 1,5,-1
 181 1570 l 1,6,7
 153 1570 153 1570 137.5 1588 c 128,-1,8
 122 1606 122 1606 122 1634 c 0,9,10
 122 1658 122 1658 134.5 1676 c 128,-1,11
 147 1694 147 1694 169 1695 c 2,12,-1
 406 1716 l 1,13,14
 431 1716 431 1716 442.5 1707.5 c 128,-1,15
 454 1699 454 1699 454 1669 c 2,16,-1
 454 603 l 1,17,-1
 579 603 l 2,18,19
 605 603 605 603 617.5 584 c 128,-1,20
 630 565 630 565 630 539 c 0,21,22
 630 517 630 517 616 498.5 c 128,-1,23
 602 480 602 480 578 480 c 2,24,-1
 131 480 l 2,25,26
 101 480 101 480 87.5 497.5 c 128,-1,27
 74 515 74 515 74 541 c 1,28,-1
 74 541 l 1,0,1
566 -93 m 1,29,30
 540 -93 540 -93 515 -70 c 128,-1,31
 490 -47 490 -47 490 -15 c 0,32,33
 490 -8 490 -8 492 -2.5 c 128,-1,34
 494 3 494 3 498 9 c 2,35,-1
 1574 1757 l 2,36,37
 1581 1770 1581 1770 1594 1776.5 c 128,-1,38
 1607 1783 1607 1783 1626 1783 c 0,39,40
 1651 1783 1651 1783 1675.5 1761 c 128,-1,41
 1700 1739 1700 1739 1700 1705 c 0,42,43
 1700 1699 1700 1699 1698 1694.5 c 128,-1,44
 1696 1690 1696 1690 1693 1684 c 2,45,-1
 624 -61 l 1,46,47
 614 -75 614 -75 601 -84 c 128,-1,48
 588 -93 588 -93 566 -93 c 1,49,-1
 566 -93 l 1,29,30
2175 948 m 1,50,51
 2175 659 2175 659 1921 500 c 128,-1,52
 1667 341 1667 341 1633 139 c 1,53,-1
 2082 139 l 1,54,-1
 2144 281 l 1,55,56
 2152 303 2152 303 2170 318.5 c 128,-1,57
 2188 334 2188 334 2214 334 c 0,58,59
 2236 334 2236 334 2251 320 c 128,-1,60
 2266 306 2266 306 2266 282 c 0,61,62
 2266 275 2266 275 2264.5 269 c 128,-1,63
 2263 263 2263 263 2262 256 c 2,64,-1
 2217 56 l 1,65,66
 2210 31 2210 31 2197.5 16.5 c 128,-1,67
 2185 2 2185 2 2160 2 c 2,68,-1
 1487 2 l 1,69,-1
 1481 102 l 1,70,71
 1481 141 1481 141 1490.5 180.5 c 128,-1,72
 1500 220 1500 220 1519 260 c 0,73,74
 1592 412 1592 412 1800.5 605 c 128,-1,75
 2009 798 2009 798 2009 941 c 0,76,77
 2009 1011 2009 1011 1943.5 1039 c 128,-1,78
 1878 1067 1878 1067 1807 1067 c 0,79,80
 1732 1067 1732 1067 1685.5 1045.5 c 128,-1,81
 1639 1024 1639 1024 1599 994 c 0,82,83
 1590 987 1590 987 1579.5 983.5 c 128,-1,84
 1569 980 1569 980 1558 980 c 0,85,86
 1530 980 1530 980 1510.5 997 c 128,-1,87
 1491 1014 1491 1014 1491 1042 c 0,88,89
 1491 1053 1491 1053 1498 1066.5 c 128,-1,90
 1505 1080 1505 1080 1519 1094 c 0,91,92
 1565 1141 1565 1141 1646.5 1172.5 c 128,-1,93
 1728 1204 1728 1204 1823 1204 c 0,94,95
 1958 1204 1958 1204 2066.5 1143.5 c 128,-1,96
 2175 1083 2175 1083 2175 948 c 1,97,-1
 2175 948 l 1,50,51
EndSplineSet
EndChar

StartChar: onequarter
Encoding: 188 188 15
Width: 2236
Flags: W
LayerCount: 2
Fore
SplineSet
1784 987 m 1,0,-1
 1378 491 l 1,1,-1
 1784 491 l 1,2,-1
 1784 987 l 1,0,-1
2121 62 m 1,3,4
 2121 40 2121 40 2107.5 21 c 128,-1,5
 2094 2 2094 2 2070 2 c 2,6,-1
 1588 2 l 2,7,8
 1564 2 1564 2 1550.5 21 c 128,-1,9
 1537 40 1537 40 1537 62 c 0,10,11
 1537 88 1537 88 1549 106 c 128,-1,12
 1561 124 1561 124 1587 124 c 2,13,-1
 1784 124 l 1,14,-1
 1784 382 l 1,15,-1
 1261 382 l 2,16,17
 1239 382 1239 382 1227.5 398.5 c 128,-1,18
 1216 415 1216 415 1216 434 c 0,19,20
 1216 449 1216 449 1220 461.5 c 128,-1,21
 1224 474 1224 474 1231 481 c 1,22,23
 1378 664 1378 664 1527 845.5 c 128,-1,24
 1676 1027 1676 1027 1825 1207 c 0,25,26
 1830 1214 1830 1214 1838 1218.5 c 128,-1,27
 1846 1223 1846 1223 1855 1223 c 0,28,29
 1877 1223 1877 1223 1897 1204 c 128,-1,30
 1917 1185 1917 1185 1917 1163 c 2,31,-1
 1917 491 l 1,32,-1
 2118 491 l 2,33,34
 2142 491 2142 491 2152 474.5 c 128,-1,35
 2162 458 2162 458 2162 434 c 0,36,37
 2162 415 2162 415 2150 398.5 c 128,-1,38
 2138 382 2138 382 2116 382 c 2,39,-1
 1917 382 l 1,40,-1
 1917 124 l 1,41,-1
 2072 124 l 2,42,43
 2098 124 2098 124 2109.5 106 c 128,-1,44
 2121 88 2121 88 2121 62 c 1,45,-1
 2121 62 l 1,3,4
75 541 m 1,46,47
 75 566 75 566 88 584.5 c 128,-1,48
 101 603 101 603 128 603 c 2,49,-1
 300 603 l 1,50,-1
 300 1580 l 1,51,-1
 182 1570 l 1,52,53
 154 1570 154 1570 138.5 1588 c 128,-1,54
 123 1606 123 1606 123 1634 c 0,55,56
 123 1658 123 1658 135.5 1676 c 128,-1,57
 148 1694 148 1694 170 1695 c 2,58,-1
 407 1716 l 1,59,60
 432 1716 432 1716 443.5 1707.5 c 128,-1,61
 455 1699 455 1699 455 1669 c 2,62,-1
 455 603 l 1,63,-1
 580 603 l 2,64,65
 606 603 606 603 618.5 584 c 128,-1,66
 631 565 631 565 631 539 c 0,67,68
 631 517 631 517 617 498.5 c 128,-1,69
 603 480 603 480 579 480 c 2,70,-1
 132 480 l 2,71,72
 102 480 102 480 88.5 497.5 c 128,-1,73
 75 515 75 515 75 541 c 1,74,-1
 75 541 l 1,46,47
567 -93 m 1,75,76
 541 -93 541 -93 516 -70 c 128,-1,77
 491 -47 491 -47 491 -15 c 0,78,79
 491 -8 491 -8 493 -2.5 c 128,-1,80
 495 3 495 3 499 9 c 2,81,-1
 1575 1757 l 2,82,83
 1582 1770 1582 1770 1595 1776.5 c 128,-1,84
 1608 1783 1608 1783 1627 1783 c 0,85,86
 1652 1783 1652 1783 1676.5 1761 c 128,-1,87
 1701 1739 1701 1739 1701 1705 c 0,88,89
 1701 1699 1701 1699 1699 1694.5 c 128,-1,90
 1697 1690 1697 1690 1694 1684 c 2,91,-1
 625 -61 l 1,92,93
 615 -75 615 -75 602 -84 c 128,-1,94
 589 -93 589 -93 567 -93 c 1,95,-1
 567 -93 l 1,75,76
EndSplineSet
EndChar

StartChar: onesuperior
Encoding: 185 185 16
Width: 1272
Flags: W
LayerCount: 2
Fore
SplineSet
790 1485 m 1,0,-1
 384 989 l 1,1,-1
 790 989 l 1,2,-1
 790 1485 l 1,0,-1
1127 560 m 1,3,4
 1127 538 1127 538 1113.5 519 c 128,-1,5
 1100 500 1100 500 1076 500 c 2,6,-1
 594 500 l 2,7,8
 570 500 570 500 556.5 519 c 128,-1,9
 543 538 543 538 543 560 c 0,10,11
 543 586 543 586 555 604 c 128,-1,12
 567 622 567 622 593 622 c 2,13,-1
 790 622 l 1,14,-1
 790 880 l 1,15,-1
 267 880 l 2,16,17
 245 880 245 880 233.5 896.5 c 128,-1,18
 222 913 222 913 222 932 c 0,19,20
 222 947 222 947 226 959.5 c 128,-1,21
 230 972 230 972 237 979 c 1,22,23
 384 1162 384 1162 533 1343.5 c 128,-1,24
 682 1525 682 1525 831 1705 c 0,25,26
 836 1712 836 1712 844 1716.5 c 128,-1,27
 852 1721 852 1721 861 1721 c 0,28,29
 883 1721 883 1721 903 1702 c 128,-1,30
 923 1683 923 1683 923 1661 c 2,31,-1
 923 989 l 1,32,-1
 1124 989 l 2,33,34
 1148 989 1148 989 1158 972.5 c 128,-1,35
 1168 956 1168 956 1168 932 c 0,36,37
 1168 913 1168 913 1156 896.5 c 128,-1,38
 1144 880 1144 880 1122 880 c 2,39,-1
 923 880 l 1,40,-1
 923 622 l 1,41,-1
 1078 622 l 2,42,43
 1104 622 1104 622 1115.5 604 c 128,-1,44
 1127 586 1127 586 1127 560 c 1,45,-1
 1127 560 l 1,3,4
EndSplineSet
EndChar

StartChar: threequarters
Encoding: 190 190 17
Width: 2316
Flags: W
LayerCount: 2
Fore
SplineSet
1864 987 m 1,0,-1
 1458 491 l 1,1,-1
 1864 491 l 1,2,-1
 1864 987 l 1,0,-1
2201 62 m 1,3,4
 2201 40 2201 40 2187.5 21 c 128,-1,5
 2174 2 2174 2 2150 2 c 2,6,-1
 1668 2 l 2,7,8
 1644 2 1644 2 1630.5 21 c 128,-1,9
 1617 40 1617 40 1617 62 c 0,10,11
 1617 88 1617 88 1629 106 c 128,-1,12
 1641 124 1641 124 1667 124 c 2,13,-1
 1864 124 l 1,14,-1
 1864 382 l 1,15,-1
 1341 382 l 2,16,17
 1319 382 1319 382 1307.5 398.5 c 128,-1,18
 1296 415 1296 415 1296 434 c 0,19,20
 1296 449 1296 449 1300 461.5 c 128,-1,21
 1304 474 1304 474 1311 481 c 1,22,23
 1458 664 1458 664 1607 845.5 c 128,-1,24
 1756 1027 1756 1027 1905 1207 c 0,25,26
 1910 1214 1910 1214 1918 1218.5 c 128,-1,27
 1926 1223 1926 1223 1935 1223 c 0,28,29
 1957 1223 1957 1223 1977 1204 c 128,-1,30
 1997 1185 1997 1185 1997 1163 c 2,31,-1
 1997 491 l 1,32,-1
 2198 491 l 2,33,34
 2222 491 2222 491 2232 474.5 c 128,-1,35
 2242 458 2242 458 2242 434 c 0,36,37
 2242 415 2242 415 2230 398.5 c 128,-1,38
 2218 382 2218 382 2196 382 c 2,39,-1
 1997 382 l 1,40,-1
 1997 124 l 1,41,-1
 2152 124 l 2,42,43
 2178 124 2178 124 2189.5 106 c 128,-1,44
 2201 88 2201 88 2201 62 c 1,45,-1
 2201 62 l 1,3,4
647 -93 m 1,46,47
 621 -93 621 -93 596 -70 c 128,-1,48
 571 -47 571 -47 571 -15 c 0,49,50
 571 -8 571 -8 573 -2.5 c 128,-1,51
 575 3 575 3 579 9 c 2,52,-1
 1655 1757 l 2,53,54
 1662 1770 1662 1770 1675 1776.5 c 128,-1,55
 1688 1783 1688 1783 1707 1783 c 0,56,57
 1732 1783 1732 1783 1756.5 1761 c 128,-1,58
 1781 1739 1781 1739 1781 1705 c 0,59,60
 1781 1699 1781 1699 1779 1694.5 c 128,-1,61
 1777 1690 1777 1690 1774 1684 c 2,62,-1
 705 -61 l 1,63,64
 695 -75 695 -75 682 -84 c 128,-1,65
 669 -93 669 -93 647 -93 c 1,66,-1
 647 -93 l 1,46,47
653 919 m 1,67,68
 653 1010 653 1010 601 1067.5 c 128,-1,69
 549 1125 549 1125 458 1125 c 0,70,71
 434 1125 434 1125 412.5 1120.5 c 128,-1,72
 391 1116 391 1116 367 1116 c 0,73,74
 340 1116 340 1116 323 1132.5 c 128,-1,75
 306 1149 306 1149 306 1179 c 0,76,77
 306 1188 306 1188 312 1197 c 128,-1,78
 318 1206 318 1206 329 1215 c 0,79,80
 391 1266 391 1266 499 1319.5 c 128,-1,81
 607 1373 607 1373 607 1480 c 0,82,83
 607 1537 607 1537 564.5 1575 c 128,-1,84
 522 1613 522 1613 462 1613 c 0,85,86
 387 1613 387 1613 331.5 1582.5 c 128,-1,87
 276 1552 276 1552 229 1522 c 0,88,89
 221 1517 221 1517 211 1514 c 128,-1,90
 201 1511 201 1511 191 1511 c 0,91,92
 169 1511 169 1511 154 1524.5 c 128,-1,93
 139 1538 139 1538 139 1560 c 0,94,95
 139 1636 139 1636 261 1687 c 128,-1,96
 383 1738 383 1738 464 1738 c 0,97,98
 582 1738 582 1738 664.5 1675 c 128,-1,99
 747 1612 747 1612 747 1498 c 0,100,101
 747 1376 747 1376 675 1323 c 128,-1,102
 603 1270 603 1270 524 1224 c 1,103,-1
 509 1215 l 1,104,105
 649 1206 649 1206 733.5 1132 c 128,-1,106
 818 1058 818 1058 818 913 c 0,107,108
 818 739 818 739 696 627.5 c 128,-1,109
 574 516 574 516 395 516 c 0,110,111
 314 516 314 516 195 545.5 c 128,-1,112
 76 575 76 575 76 651 c 0,113,114
 76 675 76 675 92.5 689.5 c 128,-1,115
 109 704 109 704 134 704 c 0,116,117
 144 704 144 704 154.5 701.5 c 128,-1,118
 165 699 165 699 175 694 c 0,119,120
 218 673 218 673 273.5 658 c 128,-1,121
 329 643 329 643 392 643 c 0,122,123
 510 643 510 643 581.5 723 c 128,-1,124
 653 803 653 803 653 919 c 1,125,-1
 653 919 l 1,67,68
EndSplineSet
EndChar

StartChar: threesuperior
Encoding: 179 179 18
Width: 1111
Flags: W
LayerCount: 2
Fore
SplineSet
743 926 m 1,0,1
 743 1017 743 1017 691 1074.5 c 128,-1,2
 639 1132 639 1132 548 1132 c 0,3,4
 524 1132 524 1132 502.5 1127.5 c 128,-1,5
 481 1123 481 1123 457 1123 c 0,6,7
 430 1123 430 1123 413 1139.5 c 128,-1,8
 396 1156 396 1156 396 1186 c 0,9,10
 396 1195 396 1195 402 1204 c 128,-1,11
 408 1213 408 1213 419 1222 c 0,12,13
 481 1273 481 1273 589 1326.5 c 128,-1,14
 697 1380 697 1380 697 1487 c 0,15,16
 697 1544 697 1544 654.5 1582 c 128,-1,17
 612 1620 612 1620 552 1620 c 0,18,19
 477 1620 477 1620 421.5 1589.5 c 128,-1,20
 366 1559 366 1559 319 1529 c 0,21,22
 311 1524 311 1524 301 1521 c 128,-1,23
 291 1518 291 1518 281 1518 c 0,24,25
 259 1518 259 1518 244 1531.5 c 128,-1,26
 229 1545 229 1545 229 1567 c 0,27,28
 229 1643 229 1643 351 1694 c 128,-1,29
 473 1745 473 1745 554 1745 c 0,30,31
 672 1745 672 1745 754.5 1682 c 128,-1,32
 837 1619 837 1619 837 1505 c 0,33,34
 837 1383 837 1383 765 1330 c 128,-1,35
 693 1277 693 1277 614 1231 c 1,36,-1
 599 1222 l 1,37,38
 739 1213 739 1213 823.5 1139 c 128,-1,39
 908 1065 908 1065 908 920 c 0,40,41
 908 746 908 746 786 634.5 c 128,-1,42
 664 523 664 523 485 523 c 0,43,44
 404 523 404 523 285 552.5 c 128,-1,45
 166 582 166 582 166 658 c 0,46,47
 166 682 166 682 182.5 696.5 c 128,-1,48
 199 711 199 711 224 711 c 0,49,50
 234 711 234 711 244.5 708.5 c 128,-1,51
 255 706 255 706 265 701 c 0,52,53
 308 680 308 680 363.5 665 c 128,-1,54
 419 650 419 650 482 650 c 0,55,56
 600 650 600 650 671.5 730 c 128,-1,57
 743 810 743 810 743 926 c 1,58,-1
 743 926 l 1,0,1
EndSplineSet
EndChar

StartChar: twosuperior
Encoding: 178 178 19
Width: 1353
Flags: W
LayerCount: 2
Fore
SplineSet
1013 1493 m 1,0,1
 1013 1204 1013 1204 759 1045 c 128,-1,2
 505 886 505 886 471 684 c 1,3,-1
 920 684 l 1,4,-1
 982 826 l 1,5,6
 990 848 990 848 1008 863.5 c 128,-1,7
 1026 879 1026 879 1052 879 c 0,8,9
 1074 879 1074 879 1089 865 c 128,-1,10
 1104 851 1104 851 1104 827 c 0,11,12
 1104 820 1104 820 1102.5 814 c 128,-1,13
 1101 808 1101 808 1100 801 c 2,14,-1
 1055 601 l 1,15,16
 1048 576 1048 576 1035.5 561.5 c 128,-1,17
 1023 547 1023 547 998 547 c 2,18,-1
 325 547 l 1,19,-1
 319 647 l 1,20,21
 319 686 319 686 328.5 725.5 c 128,-1,22
 338 765 338 765 357 805 c 0,23,24
 430 957 430 957 638.5 1150 c 128,-1,25
 847 1343 847 1343 847 1486 c 0,26,27
 847 1556 847 1556 781.5 1584 c 128,-1,28
 716 1612 716 1612 645 1612 c 0,29,30
 570 1612 570 1612 523.5 1590.5 c 128,-1,31
 477 1569 477 1569 437 1539 c 0,32,33
 428 1532 428 1532 417.5 1528.5 c 128,-1,34
 407 1525 407 1525 396 1525 c 0,35,36
 368 1525 368 1525 348.5 1542 c 128,-1,37
 329 1559 329 1559 329 1587 c 0,38,39
 329 1598 329 1598 336 1611.5 c 128,-1,40
 343 1625 343 1625 357 1639 c 0,41,42
 403 1686 403 1686 484.5 1717.5 c 128,-1,43
 566 1749 566 1749 661 1749 c 0,44,45
 796 1749 796 1749 904.5 1688.5 c 128,-1,46
 1013 1628 1013 1628 1013 1493 c 1,47,-1
 1013 1493 l 1,0,1
EndSplineSet
EndChar

StartChar: brokenbar
Encoding: 166 166 20
Width: 778
Flags: W
LayerCount: 2
Fore
SplineSet
314 1841 m 1,0,1
 351 1841 351 1841 373.5 1822 c 128,-1,2
 396 1803 396 1803 400 1769 c 1,3,-1
 400 -98 l 2,4,5
 400 -129 400 -129 371 -146.5 c 128,-1,6
 342 -164 342 -164 312 -164 c 0,7,8
 273 -164 273 -164 248.5 -145.5 c 128,-1,9
 224 -127 224 -127 224 -82 c 2,10,-1
 224 1769 l 2,11,12
 224 1805 224 1805 252 1823 c 128,-1,13
 280 1841 280 1841 314 1841 c 1,14,-1
 314 1841 l 1,0,1
EndSplineSet
EndChar

StartChar: minus
Encoding: 8722 8722 21
Width: 1293
Flags: W
LayerCount: 2
Fore
SplineSet
174 715 m 1,0,1
 174 756 174 756 204 786.5 c 128,-1,2
 234 817 234 817 276 817 c 2,3,-1
 1018 817 l 2,4,5
 1060 817 1060 817 1090 786.5 c 128,-1,6
 1120 756 1120 756 1120 715 c 0,7,8
 1120 672 1120 672 1090.5 642 c 128,-1,9
 1061 612 1061 612 1018 612 c 2,10,-1
 276 612 l 2,11,12
 233 612 233 612 203.5 642 c 128,-1,13
 174 672 174 672 174 715 c 1,14,-1
 174 715 l 1,0,1
EndSplineSet
EndChar

StartChar: multiply
Encoding: 215 215 22
Width: 1128
Flags: W
LayerCount: 2
Fore
SplineSet
885 1108 m 1,0,1
 914 1108 914 1108 936.5 1085.5 c 128,-1,2
 959 1063 959 1063 959 1035 c 0,3,4
 959 1021 959 1021 953 1007.5 c 128,-1,5
 947 994 947 994 937 983 c 2,6,-1
 667 714 l 1,7,-1
 937 444 l 2,8,9
 947 434 947 434 953 420 c 128,-1,10
 959 406 959 406 959 393 c 0,11,12
 959 364 959 364 936.5 341.5 c 128,-1,13
 914 319 914 319 885 319 c 0,14,15
 871 319 871 319 857 325 c 128,-1,16
 843 331 843 331 833 341 c 2,17,-1
 564 610 l 1,18,-1
 295 341 l 2,19,20
 284 331 284 331 270.5 325 c 128,-1,21
 257 319 257 319 243 319 c 0,22,23
 214 319 214 319 191.5 341.5 c 128,-1,24
 169 364 169 364 169 393 c 0,25,26
 169 406 169 406 174.5 420 c 128,-1,27
 180 434 180 434 191 444 c 2,28,-1
 460 714 l 1,29,-1
 191 983 l 2,30,31
 180 994 180 994 174.5 1007.5 c 128,-1,32
 169 1021 169 1021 169 1035 c 0,33,34
 169 1063 169 1063 191.5 1085.5 c 128,-1,35
 214 1108 214 1108 243 1108 c 0,36,37
 257 1108 257 1108 270.5 1102.5 c 128,-1,38
 284 1097 284 1097 295 1086 c 2,39,-1
 564 817 l 1,40,-1
 833 1086 l 2,41,42
 843 1097 843 1097 857 1102.5 c 128,-1,43
 871 1108 871 1108 885 1108 c 1,44,-1
 885 1108 l 1,0,1
EndSplineSet
EndChar

StartChar: exclam
Encoding: 33 33 23
Width: 728
Flags: W
LayerCount: 2
Fore
SplineSet
502 1587 m 1,0,1
 502 1335 502 1335 465 1080.5 c 128,-1,2
 428 826 428 826 428 557 c 0,3,4
 428 532 428 532 410 514 c 128,-1,5
 392 496 392 496 367 496 c 256,6,7
 342 496 342 496 323.5 514 c 128,-1,8
 305 532 305 532 305 557 c 0,9,10
 305 828 305 828 268 1082 c 128,-1,11
 231 1336 231 1336 231 1591 c 0,12,13
 231 1661 231 1661 269.5 1700 c 128,-1,14
 308 1739 308 1739 367 1739 c 0,15,16
 427 1739 427 1739 464.5 1699.5 c 128,-1,17
 502 1660 502 1660 502 1587 c 1,18,-1
 502 1587 l 1,0,1
365 -25 m 1,19,20
 290 -25 290 -25 239 26 c 128,-1,21
 188 77 188 77 188 152 c 256,22,23
 188 227 188 227 239 277.5 c 128,-1,24
 290 328 290 328 365 328 c 256,25,26
 440 328 440 328 490.5 277.5 c 128,-1,27
 541 227 541 227 541 152 c 256,28,29
 541 77 541 77 490.5 26 c 128,-1,30
 440 -25 440 -25 365 -25 c 1,31,-1
 365 -25 l 1,19,20
EndSplineSet
EndChar

StartChar: quotedbl
Encoding: 34 34 24
Width: 879
Flags: W
LayerCount: 2
Fore
SplineSet
689 1377 m 2,0,1
 686 1348 686 1348 665 1333.5 c 128,-1,2
 644 1319 644 1319 625 1319 c 256,3,4
 606 1319 606 1319 584 1333.5 c 128,-1,5
 562 1348 562 1348 559 1377 c 2,6,-1
 505 1924 l 1,7,8
 505 1924 505 1924 504.5 1930.5 c 128,-1,9
 504 1937 504 1937 504 1941 c 0,10,11
 504 2000 504 2000 540.5 2029 c 128,-1,12
 577 2058 577 2058 620 2058 c 0,13,14
 666 2058 666 2058 704 2027.5 c 128,-1,15
 742 1997 742 1997 742 1938 c 0,16,17
 742 1934 742 1934 741.5 1930 c 128,-1,18
 741 1926 741 1926 741 1922 c 2,19,-1
 689 1377 l 2,0,1
363 1377 m 2,20,21
 360 1348 360 1348 339 1333.5 c 128,-1,22
 318 1319 318 1319 299 1319 c 256,23,24
 280 1319 280 1319 258 1333.5 c 128,-1,25
 236 1348 236 1348 233 1377 c 2,26,-1
 179 1924 l 2,27,28
 178 1928 178 1928 178 1932.5 c 128,-1,29
 178 1937 178 1937 178 1941 c 0,30,31
 178 2000 178 2000 214.5 2029 c 128,-1,32
 251 2058 251 2058 294 2058 c 0,33,34
 340 2058 340 2058 378 2027.5 c 128,-1,35
 416 1997 416 1997 416 1938 c 0,36,37
 416 1934 416 1934 416 1930 c 128,-1,38
 416 1926 416 1926 415 1922 c 2,39,-1
 363 1377 l 2,20,21
EndSplineSet
EndChar

StartChar: numbersign
Encoding: 35 35 25
Width: 1727
Flags: W
LayerCount: 2
Fore
SplineSet
1561 1133 m 2,0,1
 1595 1133 1595 1133 1620 1108 c 128,-1,2
 1645 1083 1645 1083 1645 1049 c 0,3,4
 1645 1014 1645 1014 1620.5 989.5 c 128,-1,5
 1596 965 1596 965 1562 965 c 2,6,-1
 230 965 l 2,7,8
 196 965 196 965 171 989.5 c 128,-1,9
 146 1014 146 1014 146 1049 c 0,10,11
 146 1083 146 1083 171 1108 c 128,-1,12
 196 1133 196 1133 230 1133 c 2,13,-1
 1561 1133 l 2,0,1
1499 732 m 2,14,15
 1533 732 1533 732 1558 707 c 128,-1,16
 1583 682 1583 682 1583 648 c 0,17,18
 1583 613 1583 613 1558.5 588.5 c 128,-1,19
 1534 564 1534 564 1500 564 c 2,20,-1
 168 564 l 2,21,22
 134 564 134 564 109 588.5 c 128,-1,23
 84 613 84 613 84 648 c 0,24,25
 84 682 84 682 109 707 c 128,-1,26
 134 732 134 732 168 732 c 2,27,-1
 1499 732 l 2,14,15
1400 1988 m 1,28,29
 1432 1988 1432 1988 1465 1968 c 128,-1,30
 1498 1948 1498 1948 1498 1910 c 0,31,32
 1498 1906 1498 1906 1497.5 1902 c 128,-1,33
 1497 1898 1497 1898 1496 1894 c 2,34,-1
 936 -327 l 2,35,36
 929 -355 929 -355 912.5 -372.5 c 128,-1,37
 896 -390 896 -390 860 -390 c 0,38,39
 826 -390 826 -390 792.5 -370 c 128,-1,40
 759 -350 759 -350 759 -313 c 0,41,42
 759 -309 759 -309 760 -303.5 c 128,-1,43
 761 -298 761 -298 762 -294 c 2,44,-1
 1326 1935 l 1,45,46
 1331 1960 1331 1960 1350 1974 c 128,-1,47
 1369 1988 1369 1988 1400 1988 c 1,48,-1
 1400 1988 l 1,28,29
802 1989 m 1,49,50
 836 1989 836 1989 868.5 1969 c 128,-1,51
 901 1949 901 1949 901 1910 c 0,52,53
 901 1906 901 1906 900.5 1903 c 128,-1,54
 900 1900 900 1900 899 1896 c 2,55,-1
 344 -320 l 2,56,57
 337 -348 337 -348 320.5 -365.5 c 128,-1,58
 304 -383 304 -383 268 -383 c 0,59,60
 234 -383 234 -383 200.5 -363.5 c 128,-1,61
 167 -344 167 -344 167 -306 c 0,62,63
 167 -302 167 -302 168 -297 c 128,-1,64
 169 -292 169 -292 170 -287 c 2,65,-1
 729 1936 l 1,66,67
 733 1961 733 1961 752 1975 c 128,-1,68
 771 1989 771 1989 802 1989 c 1,69,-1
 802 1989 l 1,49,50
EndSplineSet
EndChar

StartChar: dollar
Encoding: 36 36 26
Width: 1630
Flags: W
LayerCount: 2
Fore
SplineSet
900 1580 m 1,0,-1
 900 997 l 1,1,-1
 1023 967 l 2,2,3
 1220 918 1220 918 1344 806.5 c 128,-1,4
 1468 695 1468 695 1468 458 c 0,5,6
 1468 225 1468 225 1299 110.5 c 128,-1,7
 1130 -4 1130 -4 900 -23 c 1,8,-1
 900 -144 l 2,9,10
 900 -171 900 -171 880.5 -190.5 c 128,-1,11
 861 -210 861 -210 834 -210 c 256,12,13
 807 -210 807 -210 787.5 -190.5 c 128,-1,14
 768 -171 768 -171 768 -144 c 2,15,-1
 768 -27 l 1,16,17
 669 -25 669 -25 575 -7 c 128,-1,18
 481 11 481 11 392 45 c 1,19,20
 388 11 388 11 361 -7 c 128,-1,21
 334 -25 334 -25 300 -25 c 0,22,23
 264 -25 264 -25 242 -10 c 128,-1,24
 220 5 220 5 216 39 c 2,25,-1
 159 535 l 1,26,27
 159 575 159 575 183 594.5 c 128,-1,28
 207 614 207 614 255 614 c 0,29,30
 285 614 285 614 308 596.5 c 128,-1,31
 331 579 331 579 335 549 c 2,32,-1
 351 410 l 1,33,34
 368 273 368 273 491 212 c 128,-1,35
 614 151 614 151 768 150 c 1,36,-1
 768 794 l 1,37,-1
 660 825 l 1,38,39
 481 865 481 865 363.5 967.5 c 128,-1,40
 246 1070 246 1070 246 1271 c 0,41,42
 246 1475 246 1475 397.5 1598 c 128,-1,43
 549 1721 549 1721 768 1737 c 1,44,-1
 768 1854 l 2,45,46
 768 1881 768 1881 787.5 1900.5 c 128,-1,47
 807 1920 807 1920 834 1920 c 256,48,49
 861 1920 861 1920 880.5 1900.5 c 128,-1,50
 900 1881 900 1881 900 1854 c 2,51,-1
 900 1736 l 1,52,53
 987 1730 987 1730 1069 1709 c 128,-1,54
 1151 1688 1151 1688 1205 1657 c 1,55,56
 1205 1699 1205 1699 1231.5 1721 c 128,-1,57
 1258 1743 1258 1743 1299 1743 c 0,58,59
 1329 1743 1329 1743 1352 1725 c 128,-1,60
 1375 1707 1375 1707 1379 1677 c 1,61,-1
 1410 1309 l 1,62,63
 1410 1266 1410 1266 1384 1246.5 c 128,-1,64
 1358 1227 1358 1227 1318 1227 c 0,65,66
 1283 1227 1283 1227 1260.5 1242 c 128,-1,67
 1238 1257 1238 1257 1234 1290 c 2,68,-1
 1226 1372 l 1,69,70
 1213 1477 1213 1477 1115.5 1525.5 c 128,-1,71
 1018 1574 1018 1574 900 1580 c 1,72,-1
 900 1580 l 1,0,-1
900 757 m 1,73,-1
 900 157 l 1,74,75
 1040 173 1040 173 1151.5 240 c 128,-1,76
 1263 307 1263 307 1263 459 c 0,77,78
 1263 594 1263 594 1181.5 647 c 128,-1,79
 1100 700 1100 700 988 732 c 2,80,-1
 900 757 l 1,73,-1
768 1030 m 1,81,-1
 768 1576 l 1,82,83
 587 1557 587 1557 527 1472.5 c 128,-1,84
 467 1388 467 1388 467 1287 c 0,85,86
 467 1190 467 1190 534.5 1130.5 c 128,-1,87
 602 1071 602 1071 736 1038 c 2,88,-1
 768 1030 l 1,81,-1
EndSplineSet
EndChar

StartChar: percent
Encoding: 37 37 27
Width: 2042
Flags: W
LayerCount: 2
Fore
SplineSet
79 1157 m 1,0,1
 79 1353 79 1353 200 1539.5 c 128,-1,2
 321 1726 321 1726 517 1726 c 2,3,-1
 601 1726 l 2,4,5
 920 1726 920 1726 1134.5 1778.5 c 128,-1,6
 1349 1831 1349 1831 1492 2009 c 1,7,8
 1503 2032 1503 2032 1522 2044 c 128,-1,9
 1541 2056 1541 2056 1566 2056 c 0,10,11
 1602 2056 1602 2056 1627 2031 c 128,-1,12
 1652 2006 1652 2006 1652 1972 c 0,13,14
 1652 1965 1652 1965 1650 1956 c 128,-1,15
 1648 1947 1648 1947 1644 1937 c 2,16,-1
 534 -420 l 1,17,18
 522 -443 522 -443 502.5 -455 c 128,-1,19
 483 -467 483 -467 458 -467 c 0,20,21
 423 -467 423 -467 398.5 -442 c 128,-1,22
 374 -417 374 -417 374 -383 c 0,23,24
 374 -374 374 -374 375.5 -364.5 c 128,-1,25
 377 -355 377 -355 380 -346 c 1,26,-1
 1336 1681 l 1,27,28
 1205 1629 1205 1629 1044 1603 c 128,-1,29
 883 1577 883 1577 702 1577 c 1,30,31
 733 1541 733 1541 751 1490 c 128,-1,32
 769 1439 769 1439 769 1378 c 0,33,34
 769 1177 769 1177 647 995 c 128,-1,35
 525 813 525 813 331 813 c 0,36,37
 200 813 200 813 139.5 919.5 c 128,-1,38
 79 1026 79 1026 79 1157 c 1,39,-1
 79 1157 l 1,0,1
1525 -49 m 1,40,41
 1394 -49 1394 -49 1333.5 57.5 c 128,-1,42
 1273 164 1273 164 1273 295 c 0,43,44
 1273 491 1273 491 1394 677.5 c 128,-1,45
 1515 864 1515 864 1711 864 c 0,46,47
 1842 864 1842 864 1902.5 756 c 128,-1,48
 1963 648 1963 648 1963 516 c 0,49,50
 1963 315 1963 315 1841 133 c 128,-1,51
 1719 -49 1719 -49 1525 -49 c 1,52,-1
 1525 -49 l 1,40,41
1562 127 m 1,53,54
 1675 127 1675 127 1740 250.5 c 128,-1,55
 1805 374 1805 374 1805 492 c 0,56,57
 1805 564 1805 564 1773 626 c 128,-1,58
 1741 688 1741 688 1674 688 c 0,59,60
 1559 688 1559 688 1495 561.5 c 128,-1,61
 1431 435 1431 435 1431 319 c 0,62,63
 1431 246 1431 246 1463 186.5 c 128,-1,64
 1495 127 1495 127 1562 127 c 1,65,-1
 1562 127 l 1,53,54
368 989 m 1,66,67
 481 989 481 989 546 1112.5 c 128,-1,68
 611 1236 611 1236 611 1354 c 0,69,70
 611 1426 611 1426 579 1488 c 128,-1,71
 547 1550 547 1550 480 1550 c 0,72,73
 365 1550 365 1550 301 1424 c 128,-1,74
 237 1298 237 1298 237 1182 c 0,75,76
 237 1109 237 1109 269 1049 c 128,-1,77
 301 989 301 989 368 989 c 1,78,-1
 368 989 l 1,66,67
EndSplineSet
EndChar

StartChar: ampersand
Encoding: 38 38 28
Width: 1737
Flags: W
LayerCount: 2
Fore
SplineSet
395 932 m 1,0,1
 338 1025 338 1025 277 1136.5 c 128,-1,2
 216 1248 216 1248 216 1370 c 0,3,4
 216 1533 216 1533 310 1637 c 128,-1,5
 404 1741 404 1741 562 1741 c 0,6,7
 730 1741 730 1741 828.5 1635.5 c 128,-1,8
 927 1530 927 1530 927 1366 c 0,9,10
 927 1188 927 1188 841 1088 c 128,-1,11
 755 988 755 988 645 912 c 1,12,13
 673 876 673 876 702 843 c 128,-1,14
 731 810 731 810 757 780 c 1,15,16
 835 685 835 685 924 594.5 c 128,-1,17
 1013 504 1013 504 1112 423 c 1,18,19
 1163 504 1163 504 1193 601 c 128,-1,20
 1223 698 1223 698 1229 797 c 1,21,-1
 1093 797 l 2,22,23
 1058 797 1058 797 1038.5 822.5 c 128,-1,24
 1019 848 1019 848 1019 881 c 0,25,26
 1019 918 1019 918 1036 945.5 c 128,-1,27
 1053 973 1053 973 1091 973 c 2,28,-1
 1566 973 l 2,29,30
 1604 973 1604 973 1620.5 945.5 c 128,-1,31
 1637 918 1637 918 1637 881 c 0,32,33
 1637 848 1637 848 1618 822.5 c 128,-1,34
 1599 797 1599 797 1564 797 c 2,35,-1
 1403 797 l 1,36,37
 1396 657 1396 657 1352 536.5 c 128,-1,38
 1308 416 1308 416 1243 323 c 1,39,40
 1311 275 1311 275 1383.5 232.5 c 128,-1,41
 1456 190 1456 190 1531 154 c 0,42,43
 1574 133 1574 133 1613 118.5 c 128,-1,44
 1652 104 1652 104 1652 43 c 0,45,46
 1652 -4 1652 -4 1616 -28.5 c 128,-1,47
 1580 -53 1580 -53 1535 -53 c 0,48,49
 1516 -53 1516 -53 1500.5 -49.5 c 128,-1,50
 1485 -46 1485 -46 1472 -39 c 0,51,52
 1379 7 1379 7 1288 60 c 128,-1,53
 1197 113 1197 113 1112 173 c 1,54,55
 1023 92 1023 92 901 32.5 c 128,-1,56
 779 -27 779 -27 630 -27 c 0,57,58
 387 -27 387 -27 237 122.5 c 128,-1,59
 87 272 87 272 87 510 c 0,60,61
 87 676 87 676 182.5 768 c 128,-1,62
 278 860 278 860 395 932 c 1,63,-1
 395 932 l 1,0,1
482 798 m 1,64,65
 423 752 423 752 368.5 690 c 128,-1,66
 314 628 314 628 314 528 c 0,67,68
 314 356 314 356 408.5 256 c 128,-1,69
 503 156 503 156 669 156 c 0,70,71
 759 156 759 156 838 187 c 128,-1,72
 917 218 917 218 981 271 c 1,73,74
 838 384 838 384 711.5 517.5 c 128,-1,75
 585 651 585 651 482 798 c 1,76,-1
 482 798 l 1,64,65
555 1034 m 1,77,78
 633 1091 633 1091 686.5 1166 c 128,-1,79
 740 1241 740 1241 740 1356 c 0,80,81
 740 1436 740 1436 697.5 1504.5 c 128,-1,82
 655 1573 655 1573 577 1573 c 0,83,84
 503 1573 503 1573 468 1513.5 c 128,-1,85
 433 1454 433 1454 433 1382 c 0,86,87
 433 1289 433 1289 468.5 1200.5 c 128,-1,88
 504 1112 504 1112 555 1034 c 1,89,-1
 555 1034 l 1,77,78
EndSplineSet
EndChar

StartChar: quotesingle
Encoding: 39 39 29
Width: 633
Flags: W
LayerCount: 2
Fore
SplineSet
363 1377 m 2,0,1
 360 1348 360 1348 339 1333.5 c 128,-1,2
 318 1319 318 1319 299 1319 c 256,3,4
 280 1319 280 1319 258 1333.5 c 128,-1,5
 236 1348 236 1348 233 1377 c 2,6,-1
 179 1924 l 2,7,8
 178 1928 178 1928 178 1932.5 c 128,-1,9
 178 1937 178 1937 178 1941 c 0,10,11
 178 2000 178 2000 214.5 2029 c 128,-1,12
 251 2058 251 2058 294 2058 c 0,13,14
 340 2058 340 2058 378 2027.5 c 128,-1,15
 416 1997 416 1997 416 1938 c 0,16,17
 416 1934 416 1934 416 1930 c 128,-1,18
 416 1926 416 1926 415 1922 c 2,19,-1
 363 1377 l 2,0,1
EndSplineSet
EndChar

StartChar: parenleft
Encoding: 40 40 30
Width: 789
Flags: W
LayerCount: 2
Fore
SplineSet
715 -432 m 1,0,1
 715 -472 715 -472 683 -499 c 128,-1,2
 651 -526 651 -526 611 -526 c 0,3,4
 594 -526 594 -526 571.5 -514.5 c 128,-1,5
 549 -503 549 -503 523 -480 c 0,6,7
 319 -300 319 -300 200.5 49.5 c 128,-1,8
 82 399 82 399 82 776 c 0,9,10
 82 1122 82 1122 177 1409.5 c 128,-1,11
 272 1697 272 1697 413 1902 c 0,12,13
 447 1952 447 1952 500 2015.5 c 128,-1,14
 553 2079 553 2079 611 2079 c 0,15,16
 651 2079 651 2079 683 2052 c 128,-1,17
 715 2025 715 2025 715 1985 c 0,18,19
 715 1968 715 1968 707.5 1950 c 128,-1,20
 700 1932 700 1932 686 1915 c 0,21,22
 522 1725 522 1725 413.5 1425 c 128,-1,23
 305 1125 305 1125 305 776 c 256,24,25
 305 427 305 427 414 127.5 c 128,-1,26
 523 -172 523 -172 686 -362 c 0,27,28
 700 -379 700 -379 707.5 -397 c 128,-1,29
 715 -415 715 -415 715 -432 c 1,30,-1
 715 -432 l 1,0,1
EndSplineSet
EndChar

StartChar: parenright
Encoding: 41 41 31
Width: 789
Flags: W
LayerCount: 2
Fore
SplineSet
76 1985 m 1,0,1
 76 2025 76 2025 108.5 2052 c 128,-1,2
 141 2079 141 2079 181 2079 c 0,3,4
 197 2079 197 2079 219 2067.5 c 128,-1,5
 241 2056 241 2056 267 2033 c 0,6,7
 472 1855 472 1855 590.5 1503.5 c 128,-1,8
 709 1152 709 1152 709 776 c 0,9,10
 709 430 709 430 614 143 c 128,-1,11
 519 -144 519 -144 378 -349 c 0,12,13
 344 -398 344 -398 291 -462 c 128,-1,14
 238 -526 238 -526 181 -526 c 0,15,16
 141 -526 141 -526 108.5 -499 c 128,-1,17
 76 -472 76 -472 76 -432 c 0,18,19
 76 -415 76 -415 83.5 -397 c 128,-1,20
 91 -379 91 -379 105 -362 c 0,21,22
 269 -172 269 -172 377.5 127.5 c 128,-1,23
 486 427 486 427 486 776 c 256,24,25
 486 1125 486 1125 377 1425 c 128,-1,26
 268 1725 268 1725 105 1915 c 0,27,28
 91 1932 91 1932 83.5 1950 c 128,-1,29
 76 1968 76 1968 76 1985 c 1,30,-1
 76 1985 l 1,0,1
EndSplineSet
EndChar

StartChar: asterisk
Encoding: 42 42 32
Width: 1649
Flags: W
LayerCount: 2
Fore
SplineSet
1402 1104 m 1,0,1
 1447 1104 1447 1104 1469.5 1065.5 c 128,-1,2
 1492 1027 1492 1027 1492 983 c 256,3,4
 1492 939 1492 939 1469.5 900.5 c 128,-1,5
 1447 862 1447 862 1402 862 c 1,6,-1
 1040 905 l 1,7,8
 1005 908 1005 908 985.5 929 c 128,-1,9
 966 950 966 950 966 983 c 256,10,11
 966 1016 966 1016 985.5 1037 c 128,-1,12
 1005 1058 1005 1058 1040 1061 c 1,13,-1
 1402 1104 l 1,0,1
247 862 m 1,14,15
 202 862 202 862 179.5 900.5 c 128,-1,16
 157 939 157 939 157 983 c 256,17,18
 157 1027 157 1027 179.5 1065.5 c 128,-1,19
 202 1104 202 1104 247 1104 c 1,20,-1
 609 1061 l 1,21,22
 644 1058 644 1058 663.5 1037 c 128,-1,23
 683 1016 683 1016 683 983 c 256,24,25
 683 950 683 950 663.5 929 c 128,-1,26
 644 908 644 908 609 905 c 1,27,-1
 247 862 l 1,14,15
1226 504 m 1,28,29
 1226 453 1226 453 1177.5 417 c 128,-1,30
 1129 381 1129 381 1078 381 c 0,31,32
 1052 381 1052 381 1033 392 c 128,-1,33
 1014 403 1014 403 1005 422 c 2,34,-1
 863 758 l 2,35,36
 859 767 859 767 857 777 c 128,-1,37
 855 787 855 787 855 797 c 0,38,39
 855 829 855 829 878.5 849.5 c 128,-1,40
 902 870 902 870 933 870 c 0,41,42
 957 870 957 870 971.5 860.5 c 128,-1,43
 986 851 986 851 999 834 c 2,44,-1
 1216 541 l 1,45,46
 1221 531 1221 531 1223.5 521.5 c 128,-1,47
 1226 512 1226 512 1226 504 c 1,48,-1
 1226 504 l 1,28,29
423 1462 m 1,49,50
 423 1514 423 1514 471 1549.5 c 128,-1,51
 519 1585 519 1585 571 1585 c 0,52,53
 596 1585 596 1585 614.5 1574.5 c 128,-1,54
 633 1564 633 1564 644 1544 c 1,55,-1
 786 1208 l 2,56,57
 790 1199 790 1199 792 1189 c 128,-1,58
 794 1179 794 1179 794 1169 c 0,59,60
 794 1145 794 1145 782 1130.5 c 128,-1,61
 770 1116 770 1116 755 1106 c 1,62,-1
 734 1098 l 2,63,64
 729 1096 729 1096 724 1095 c 128,-1,65
 719 1094 719 1094 714 1094 c 0,66,67
 697 1094 697 1094 680.5 1104 c 128,-1,68
 664 1114 664 1114 650 1133 c 2,69,-1
 433 1425 l 1,70,71
 428 1435 428 1435 425.5 1444.5 c 128,-1,72
 423 1454 423 1454 423 1462 c 1,73,-1
 423 1462 l 1,49,50
569 381 m 1,74,75
 516 381 516 381 468.5 416.5 c 128,-1,76
 421 452 421 452 421 504 c 0,77,78
 421 512 421 512 423.5 521.5 c 128,-1,79
 426 531 426 531 431 541 c 1,80,-1
 648 834 l 2,81,82
 661 851 661 851 674.5 860.5 c 128,-1,83
 688 870 688 870 712 870 c 0,84,85
 743 870 743 870 767.5 849.5 c 128,-1,86
 792 829 792 829 792 797 c 0,87,88
 792 787 792 787 790 777 c 128,-1,89
 788 767 788 767 784 758 c 2,90,-1
 642 422 l 1,91,92
 631 402 631 402 612.5 391.5 c 128,-1,93
 594 381 594 381 569 381 c 1,94,-1
 569 381 l 1,74,75
1076 1585 m 1,95,96
 1127 1585 1127 1585 1175.5 1548.5 c 128,-1,97
 1224 1512 1224 1512 1224 1462 c 0,98,99
 1224 1454 1224 1454 1221.5 1444.5 c 128,-1,100
 1219 1435 1219 1435 1214 1425 c 1,101,-1
 997 1133 l 2,102,103
 983 1114 983 1114 966.5 1104 c 128,-1,104
 950 1094 950 1094 931 1094 c 0,105,106
 900 1094 900 1094 876.5 1116 c 128,-1,107
 853 1138 853 1138 853 1169 c 0,108,109
 853 1179 853 1179 855 1189 c 128,-1,110
 857 1199 857 1199 861 1208 c 2,111,-1
 1003 1544 l 2,112,113
 1012 1563 1012 1563 1031 1574 c 128,-1,114
 1050 1585 1050 1585 1076 1585 c 1,115,-1
 1076 1585 l 1,95,96
EndSplineSet
EndChar

StartChar: plus
Encoding: 43 43 33
Width: 1238
Flags: W
LayerCount: 2
Fore
SplineSet
1073 787 m 2,0,1
 1104 787 1104 787 1125.5 765.5 c 128,-1,2
 1147 744 1147 744 1147 714 c 0,3,4
 1147 683 1147 683 1125.5 661.5 c 128,-1,5
 1104 640 1104 640 1073 640 c 2,6,-1
 699 640 l 1,7,-1
 699 257 l 2,8,9
 699 224 699 224 676 201 c 128,-1,10
 653 178 653 178 620 178 c 256,11,12
 587 178 587 178 564 201 c 128,-1,13
 541 224 541 224 541 257 c 2,14,-1
 541 640 l 1,15,-1
 165 640 l 2,16,17
 134 640 134 640 113 661.5 c 128,-1,18
 92 683 92 683 92 714 c 0,19,20
 92 744 92 744 113 765.5 c 128,-1,21
 134 787 134 787 165 787 c 2,22,-1
 541 787 l 1,23,-1
 541 1177 l 2,24,25
 541 1210 541 1210 564 1233 c 128,-1,26
 587 1256 587 1256 620 1256 c 256,27,28
 653 1256 653 1256 676 1233 c 128,-1,29
 699 1210 699 1210 699 1177 c 2,30,-1
 699 787 l 1,31,-1
 1073 787 l 2,0,1
EndSplineSet
EndChar

StartChar: comma
Encoding: 44 44 34
Width: 714
Flags: W
LayerCount: 2
Fore
SplineSet
353 280 m 1,0,1
 435 280 435 280 496.5 224 c 128,-1,2
 558 168 558 168 558 58 c 0,3,4
 558 -99 558 -99 477.5 -202.5 c 128,-1,5
 397 -306 397 -306 284 -363 c 0,6,7
 272 -370 272 -370 259.5 -373 c 128,-1,8
 247 -376 247 -376 237 -376 c 0,9,10
 205 -376 205 -376 183.5 -355 c 128,-1,11
 162 -334 162 -334 162 -308 c 0,12,13
 162 -295 162 -295 169.5 -281 c 128,-1,14
 177 -267 177 -267 193 -256 c 0,15,16
 250 -218 250 -218 310.5 -164 c 128,-1,17
 371 -110 371 -110 371 -25 c 1,18,19
 290 -25 290 -25 236.5 12 c 128,-1,20
 183 49 183 49 183 125 c 0,21,22
 183 202 183 202 235 241 c 128,-1,23
 287 280 287 280 353 280 c 1,24,-1
 353 280 l 1,0,1
EndSplineSet
EndChar

StartChar: hyphen
Encoding: 45 45 35
Width: 1333
Flags: W
LayerCount: 2
Fore
SplineSet
194 715 m 1,0,1
 194 756 194 756 224 786.5 c 128,-1,2
 254 817 254 817 296 817 c 2,3,-1
 1038 817 l 2,4,5
 1080 817 1080 817 1110 786.5 c 128,-1,6
 1140 756 1140 756 1140 715 c 0,7,8
 1140 672 1140 672 1110.5 642 c 128,-1,9
 1081 612 1081 612 1038 612 c 2,10,-1
 296 612 l 2,11,12
 253 612 253 612 223.5 642 c 128,-1,13
 194 672 194 672 194 715 c 1,14,-1
 194 715 l 1,0,1
EndSplineSet
EndChar

StartChar: period
Encoding: 46 46 36
Width: 806
Flags: W
LayerCount: 2
Fore
SplineSet
403 -127 m 1,0,1
 312 -127 312 -127 252 -66.5 c 128,-1,2
 192 -6 192 -6 192 84 c 0,3,4
 192 175 192 175 252.5 235 c 128,-1,5
 313 295 313 295 403 295 c 0,6,7
 494 295 494 295 554 234.5 c 128,-1,8
 614 174 614 174 614 84 c 0,9,10
 614 -7 614 -7 553.5 -67 c 128,-1,11
 493 -127 493 -127 403 -127 c 1,12,-1
 403 -127 l 1,0,1
EndSplineSet
EndChar

StartChar: slash
Encoding: 47 47 37
Width: 1288
Flags: W
LayerCount: 2
Fore
SplineSet
170 -314 m 1,0,1
 135 -314 135 -314 100 -289 c 128,-1,2
 65 -264 65 -264 65 -228 c 0,3,4
 65 -220 65 -220 67 -212 c 128,-1,5
 69 -204 69 -204 73 -197 c 2,6,-1
 1059 1851 l 1,7,8
 1067 1870 1067 1870 1083 1880 c 128,-1,9
 1099 1890 1099 1890 1121 1890 c 0,10,11
 1155 1890 1155 1890 1189 1865.5 c 128,-1,12
 1223 1841 1223 1841 1223 1804 c 0,13,14
 1223 1797 1223 1797 1222 1790 c 128,-1,15
 1221 1783 1221 1783 1217 1776 c 2,16,-1
 237 -266 l 2,17,18
 226 -288 226 -288 211 -301 c 128,-1,19
 196 -314 196 -314 170 -314 c 1,20,-1
 170 -314 l 1,0,1
EndSplineSet
EndChar

StartChar: zero
Encoding: 48 48 38
Width: 1422
Flags: W
LayerCount: 2
Fore
SplineSet
120 856 m 1,0,1
 120 1180 120 1180 251 1459.5 c 128,-1,2
 382 1739 382 1739 711 1739 c 256,3,4
 1040 1739 1040 1739 1171 1459 c 128,-1,5
 1302 1179 1302 1179 1302 856 c 0,6,7
 1302 532 1302 532 1171 253.5 c 128,-1,8
 1040 -25 1040 -25 711 -25 c 256,9,10
 382 -25 382 -25 251 253.5 c 128,-1,11
 120 532 120 532 120 856 c 1,12,-1
 120 856 l 1,0,1
335 856 m 1,13,14
 335 631 335 631 409.5 386 c 128,-1,15
 484 141 484 141 711 141 c 0,16,17
 936 141 936 141 1011.5 388.5 c 128,-1,18
 1087 636 1087 636 1087 856 c 0,19,20
 1087 1078 1087 1078 1010 1323.5 c 128,-1,21
 933 1569 933 1569 711 1569 c 256,22,23
 489 1569 489 1569 412 1320.5 c 128,-1,24
 335 1072 335 1072 335 856 c 1,25,-1
 335 856 l 1,13,14
EndSplineSet
EndChar

StartChar: one
Encoding: 49 49 39
Width: 1089
Flags: W
LayerCount: 2
Fore
SplineSet
159 84 m 1,0,1
 159 119 159 119 177 144.5 c 128,-1,2
 195 170 195 170 232 170 c 2,3,-1
 471 170 l 1,4,-1
 471 1527 l 1,5,-1
 307 1514 l 1,6,7
 267 1514 267 1514 246 1539 c 128,-1,8
 225 1564 225 1564 225 1602 c 0,9,10
 225 1636 225 1636 242 1660.5 c 128,-1,11
 259 1685 259 1685 290 1687 c 2,12,-1
 620 1716 l 1,13,14
 654 1716 654 1716 670 1704 c 128,-1,15
 686 1692 686 1692 686 1651 c 2,16,-1
 686 170 l 1,17,-1
 860 170 l 2,18,19
 897 170 897 170 914 144 c 128,-1,20
 931 118 931 118 931 81 c 0,21,22
 931 50 931 50 911.5 25 c 128,-1,23
 892 0 892 0 858 0 c 2,24,-1
 237 0 l 2,25,26
 196 0 196 0 177.5 23.5 c 128,-1,27
 159 47 159 47 159 84 c 1,28,-1
 159 84 l 1,0,1
EndSplineSet
EndChar

StartChar: two
Encoding: 50 50 40
Width: 1297
Flags: W
LayerCount: 2
Fore
SplineSet
1131 1288 m 1,0,1
 1131 957 1131 957 793 751.5 c 128,-1,2
 455 546 455 546 342 225 c 1,3,-1
 981 225 l 1,4,-1
 1068 422 l 1,5,6
 1079 453 1079 453 1103.5 474.5 c 128,-1,7
 1128 496 1128 496 1165 496 c 0,8,9
 1196 496 1196 496 1216.5 477 c 128,-1,10
 1237 458 1237 458 1237 424 c 0,11,12
 1237 414 1237 414 1235 405.5 c 128,-1,13
 1233 397 1233 397 1232 388 c 1,14,-1
 1169 109 l 1,15,16
 1160 75 1160 75 1142 55 c 128,-1,17
 1124 35 1124 35 1090 35 c 2,18,-1
 155 35 l 1,19,-1
 146 174 l 1,20,21
 146 228 146 228 159.5 283 c 128,-1,22
 173 338 173 338 200 393 c 0,23,24
 296 592 296 592 597 850.5 c 128,-1,25
 898 1109 898 1109 898 1294 c 0,26,27
 898 1410 898 1410 803.5 1462 c 128,-1,28
 709 1514 709 1514 599 1514 c 0,29,30
 495 1514 495 1514 430.5 1484 c 128,-1,31
 366 1454 366 1454 310 1412 c 0,32,33
 297 1403 297 1403 283 1398 c 128,-1,34
 269 1393 269 1393 253 1393 c 0,35,36
 215 1393 215 1393 188 1416 c 128,-1,37
 161 1439 161 1439 161 1479 c 0,38,39
 161 1495 161 1495 170.5 1513.5 c 128,-1,40
 180 1532 180 1532 199 1551 c 0,41,42
 263 1617 263 1617 380.5 1659.5 c 128,-1,43
 498 1702 498 1702 630 1704 c 1,44,-1
 644 1704 l 2,45,46
 863 1704 863 1704 997 1591 c 128,-1,47
 1131 1478 1131 1478 1131 1288 c 1,48,-1
 1131 1288 l 1,0,1
EndSplineSet
EndChar

StartChar: three
Encoding: 51 51 41
Width: 1335
Flags: W
LayerCount: 2
Fore
SplineSet
976 569 m 1,0,1
 976 695 976 695 903.5 775 c 128,-1,2
 831 855 831 855 704 855 c 0,3,4
 670 855 670 855 641 849 c 128,-1,5
 612 843 612 843 578 843 c 0,6,7
 541 843 541 843 517 866.5 c 128,-1,8
 493 890 493 890 493 931 c 0,9,10
 493 944 493 944 501 956 c 128,-1,11
 509 968 509 968 525 981 c 0,12,13
 611 1051 611 1051 761 1125 c 128,-1,14
 911 1199 911 1199 911 1348 c 0,15,16
 911 1428 911 1428 852 1480.5 c 128,-1,17
 793 1533 793 1533 710 1533 c 0,18,19
 606 1533 606 1533 528.5 1491 c 128,-1,20
 451 1449 451 1449 386 1407 c 0,21,22
 375 1400 375 1400 361.5 1395.5 c 128,-1,23
 348 1391 348 1391 334 1391 c 0,24,25
 304 1391 304 1391 283 1410 c 128,-1,26
 262 1429 262 1429 262 1459 c 0,27,28
 262 1564 262 1564 431 1635.5 c 128,-1,29
 600 1707 600 1707 713 1707 c 0,30,31
 876 1707 876 1707 991 1620 c 128,-1,32
 1106 1533 1106 1533 1106 1374 c 0,33,34
 1106 1205 1106 1205 1006 1130.5 c 128,-1,35
 906 1056 906 1056 796 993 c 1,36,-1
 776 981 l 1,37,38
 970 968 970 968 1087 865 c 128,-1,39
 1204 762 1204 762 1204 561 c 0,40,41
 1204 319 1204 319 1035 164 c 128,-1,42
 866 9 866 9 617 9 c 0,43,44
 504 9 504 9 339 50.5 c 128,-1,45
 174 92 174 92 174 197 c 0,46,47
 174 231 174 231 197 250.5 c 128,-1,48
 220 270 220 270 254 270 c 0,49,50
 268 270 268 270 283 267 c 128,-1,51
 298 264 298 264 312 257 c 0,52,53
 371 228 371 228 448 207 c 128,-1,54
 525 186 525 186 613 186 c 0,55,56
 776 186 776 186 876 297 c 128,-1,57
 976 408 976 408 976 569 c 1,58,-1
 976 569 l 1,0,1
EndSplineSet
EndChar

StartChar: four
Encoding: 52 52 42
Width: 1484
Flags: W
LayerCount: 2
Fore
SplineSet
850 1376 m 1,0,-1
 319 713 l 1,1,-1
 850 713 l 1,2,-1
 850 1376 l 1,0,-1
1351 117 m 1,3,4
 1351 86 1351 86 1333 60 c 128,-1,5
 1315 34 1315 34 1281 34 c 2,6,-1
 578 34 l 2,7,8
 544 34 544 34 526 60 c 128,-1,9
 508 86 508 86 508 117 c 0,10,11
 508 154 508 154 524 179 c 128,-1,12
 540 204 540 204 577 204 c 2,13,-1
 850 204 l 1,14,-1
 850 562 l 1,15,-1
 157 562 l 2,16,17
 127 562 127 562 110.5 584.5 c 128,-1,18
 94 607 94 607 94 634 c 0,19,20
 94 655 94 655 99.5 672 c 128,-1,21
 105 689 105 689 115 699 c 1,22,23
 319 953 319 953 526.5 1205.5 c 128,-1,24
 734 1458 734 1458 941 1708 c 0,25,26
 948 1718 948 1718 974.5 1724 c 128,-1,27
 1001 1730 1001 1730 1014 1730 c 0,28,29
 1045 1730 1045 1730 1048 1704 c 128,-1,30
 1051 1678 1051 1678 1051 1647 c 2,31,-1
 1051 713 l 1,32,-1
 1347 713 l 2,33,34
 1381 713 1381 713 1394.5 690.5 c 128,-1,35
 1408 668 1408 668 1408 634 c 0,36,37
 1408 607 1408 607 1391 584.5 c 128,-1,38
 1374 562 1374 562 1344 562 c 2,39,-1
 1051 562 l 1,40,-1
 1051 204 l 1,41,-1
 1283 204 l 2,42,43
 1320 204 1320 204 1335.5 179 c 128,-1,44
 1351 154 1351 154 1351 117 c 1,45,-1
 1351 117 l 1,3,4
EndSplineSet
EndChar

StartChar: five
Encoding: 53 53 43
Width: 1264
Flags: W
LayerCount: 2
Fore
SplineSet
1042 1746 m 1,0,1
 1042 1682 1042 1682 1016 1599 c 128,-1,2
 990 1516 990 1516 930 1516 c 2,3,-1
 441 1516 l 2,4,5
 404 1516 404 1516 388 1477.5 c 128,-1,6
 372 1439 372 1439 371 1416 c 2,7,-1
 345 949 l 1,8,9
 387 1001 387 1001 471.5 1036 c 128,-1,10
 556 1071 556 1071 643 1071 c 0,11,12
 877 1071 877 1071 1016 942.5 c 128,-1,13
 1155 814 1155 814 1155 580 c 0,14,15
 1155 284 1155 284 938.5 103 c 128,-1,16
 722 -78 722 -78 426 -78 c 0,17,18
 321 -78 321 -78 204.5 -46 c 128,-1,19
 88 -14 88 -14 88 90 c 0,20,21
 88 136 88 136 114.5 170.5 c 128,-1,22
 141 205 141 205 188 205 c 0,23,24
 290 205 290 205 362.5 161 c 128,-1,25
 435 117 435 117 539 117 c 0,26,27
 699 117 699 117 818.5 226.5 c 128,-1,28
 938 336 938 336 938 535 c 0,29,30
 938 665 938 665 865 756.5 c 128,-1,31
 792 848 792 848 605 848 c 0,32,33
 462 848 462 848 391.5 788.5 c 128,-1,34
 321 729 321 729 242 729 c 0,35,36
 226 729 226 729 208 733 c 128,-1,37
 190 737 190 737 170 746 c 1,38,-1
 229 1626 l 1,39,40
 229 1691 229 1691 292.5 1702.5 c 128,-1,41
 356 1714 356 1714 428 1714 c 2,42,-1
 872 1712 l 1,43,44
 891 1755 891 1755 921 1778 c 128,-1,45
 951 1801 951 1801 977 1801 c 0,46,47
 1004 1801 1004 1801 1023 1787.5 c 128,-1,48
 1042 1774 1042 1774 1042 1746 c 1,49,-1
 1042 1746 l 1,0,1
EndSplineSet
EndChar

StartChar: six
Encoding: 54 54 44
Width: 1353
Flags: W
LayerCount: 2
Fore
SplineSet
1280 522 m 1,0,1
 1280 273 1280 273 1126 124 c 128,-1,2
 972 -25 972 -25 725 -25 c 0,3,4
 433 -25 433 -25 293 154 c 128,-1,5
 153 333 153 333 153 623 c 0,6,7
 153 1039 153 1039 333 1323 c 128,-1,8
 513 1607 513 1607 741 1817 c 0,9,10
 756 1832 756 1832 779.5 1846 c 128,-1,11
 803 1860 803 1860 833 1860 c 0,12,13
 882 1860 882 1860 909 1839 c 128,-1,14
 936 1818 936 1818 936 1769 c 0,15,16
 936 1746 936 1746 927 1726.5 c 128,-1,17
 918 1707 918 1707 899 1692 c 0,18,19
 730 1550 730 1550 596 1357.5 c 128,-1,20
 462 1165 462 1165 387 924 c 1,21,22
 450 990 450 990 542.5 1037.5 c 128,-1,23
 635 1085 635 1085 754 1085 c 0,24,25
 1000 1085 1000 1085 1140 927 c 128,-1,26
 1280 769 1280 769 1280 522 c 1,27,-1
 1280 522 l 1,0,1
725 127 m 1,28,29
 893 127 893 127 984 238 c 128,-1,30
 1075 349 1075 349 1075 518 c 0,31,32
 1075 689 1075 689 986 799 c 128,-1,33
 897 909 897 909 729 909 c 256,34,35
 561 909 561 909 468 798 c 128,-1,36
 375 687 375 687 375 518 c 0,37,38
 375 346 375 346 466 236.5 c 128,-1,39
 557 127 557 127 725 127 c 1,40,-1
 725 127 l 1,28,29
EndSplineSet
EndChar

StartChar: seven
Encoding: 55 55 45
Width: 1365
Flags: W
LayerCount: 2
Fore
SplineSet
508 123 m 1,0,1
 508 590 508 590 682.5 896 c 128,-1,2
 857 1202 857 1202 1022 1518 c 1,3,-1
 324 1518 l 1,4,-1
 289 1343 l 1,5,6
 276 1312 276 1312 250 1290 c 128,-1,7
 224 1268 224 1268 187 1268 c 256,8,9
 150 1268 150 1268 121 1286 c 128,-1,10
 92 1304 92 1304 92 1341 c 0,11,12
 92 1351 92 1351 93.5 1361 c 128,-1,13
 95 1371 95 1371 98 1380 c 1,14,-1
 150 1635 l 1,15,16
 160 1671 160 1671 178 1692 c 128,-1,17
 196 1713 196 1713 232 1713 c 2,18,-1
 1180 1712 l 2,19,20
 1210 1712 1210 1712 1238 1691.5 c 128,-1,21
 1266 1671 1266 1671 1266 1637 c 0,22,23
 1266 1631 1266 1631 1265 1625 c 128,-1,24
 1264 1619 1264 1619 1262 1612 c 0,25,26
 1143 1231 1143 1231 946.5 929.5 c 128,-1,27
 750 628 750 628 750 121 c 0,28,29
 750 55 750 55 720 15 c 128,-1,30
 690 -25 690 -25 631 -25 c 0,31,32
 570 -25 570 -25 539 16 c 128,-1,33
 508 57 508 57 508 123 c 1,34,-1
 508 123 l 1,0,1
EndSplineSet
EndChar

StartChar: eight
Encoding: 56 56 46
Width: 1316
Flags: HW
LayerCount: 2
Fore
SplineSet
627 1737 m 1,0,1
 827 1737 827 1737 986 1635 c 128,-1,2
 1145 1533 1145 1533 1145 1337 c 0,3,4
 1145 1165 1145 1165 1044.5 1061.5 c 128,-1,5
 944 958 944 958 829 901 c 1,6,7
 971 826 971 826 1093.5 728.5 c 128,-1,8
 1216 631 1216 631 1216 418 c 0,9,10
 1216 188 1216 188 1053 81.5 c 128,-1,11
 890 -25 890 -25 661 -25 c 0,12,13
 419 -25 419 -25 259.5 88 c 128,-1,14
 100 201 100 201 100 442 c 0,15,16
 100 617 100 617 195.5 721 c 128,-1,17
 291 825 291 825 407 883 c 1,18,19
 288 956 288 956 212.5 1049 c 128,-1,20
 137 1142 137 1142 137 1313 c 0,21,22
 137 1511 137 1511 280.5 1624 c 128,-1,23
 424 1737 424 1737 627 1737 c 1,24,-1
 627 1737 l 1,0,1
668 145 m 1,25,26
 811 145 811 145 911.5 213.5 c 0,27,28
 1015.53176771 284.407224757 1015.53176771 284.407224757 1012 418 c 0,29,30
 1006.74404617 585.828821349 1006.74404617 585.828821349 810.400390625 684 c 0,31,32
 750.399993896 714 750.399993896 714 559 811 c 1,33,34
 457 753 457 753 379 661 c 128,-1,35
 301 569 301 569 301 430 c 0,36,37
 301 281 301 281 410 213 c 128,-1,38
 519 145 519 145 668 145 c 1,39,-1
 668 145 l 1,25,26
639 1581 m 1,40,41
 514 1581 514 1581 425 1515.5 c 128,-1,42
 336 1450 336 1450 336 1327 c 0,43,44
 336 1177 336 1177 459.5 1099.5 c 128,-1,45
 583 1022 583 1022 688 973 c 1,46,47
 794 1024 794 1024 867 1107.5 c 128,-1,48
 940 1191 940 1191 940 1325 c 0,49,50
 940 1455 940 1455 853 1518 c 128,-1,51
 766 1581 766 1581 639 1581 c 1,52,-1
 639 1581 l 1,40,41
EndSplineSet
EndChar

StartChar: nine
Encoding: 57 57 47
Width: 1367
Flags: W
LayerCount: 2
Fore
SplineSet
124 1192 m 1,0,1
 124 1441 124 1441 274 1590 c 128,-1,2
 424 1739 424 1739 671 1739 c 0,3,4
 963 1739 963 1739 1102.5 1560.5 c 128,-1,5
 1242 1382 1242 1382 1242 1092 c 0,6,7
 1242 677 1242 677 1058.5 397.5 c 128,-1,8
 875 118 875 118 655 -102 c 0,9,10
 640 -117 640 -117 616 -131 c 128,-1,11
 592 -145 592 -145 562 -145 c 0,12,13
 513 -145 513 -145 485.5 -118.5 c 128,-1,14
 458 -92 458 -92 458 -43 c 0,15,16
 458 32 458 32 529 90 c 128,-1,17
 600 148 600 148 646 195 c 0,18,19
 752 305 752 305 854.5 445.5 c 128,-1,20
 957 586 957 586 988 770 c 1,21,22
 924 725 924 725 839.5 692 c 128,-1,23
 755 659 755 659 651 659 c 0,24,25
 414 659 414 659 269 806 c 128,-1,26
 124 953 124 953 124 1192 c 1,27,-1
 124 1192 l 1,0,1
671 1587 m 1,28,29
 503 1587 503 1587 412 1476.5 c 128,-1,30
 321 1366 321 1366 321 1196 c 0,31,32
 321 1029 321 1029 414 927 c 128,-1,33
 507 825 507 825 671 825 c 256,34,35
 835 825 835 825 928 927.5 c 128,-1,36
 1021 1030 1021 1030 1021 1196 c 0,37,38
 1021 1367 1021 1367 929.5 1477 c 128,-1,39
 838 1587 838 1587 671 1587 c 1,40,-1
 671 1587 l 1,28,29
EndSplineSet
EndChar

StartChar: colon
Encoding: 58 58 48
Width: 725
Flags: W
LayerCount: 2
Fore
SplineSet
362 -70 m 1,0,1
 269 -70 269 -70 208 -9 c 128,-1,2
 147 52 147 52 147 145 c 256,3,4
 147 238 147 238 208.5 299 c 128,-1,5
 270 360 270 360 362 360 c 256,6,7
 454 360 454 360 515.5 298 c 128,-1,8
 577 236 577 236 577 145 c 0,9,10
 577 52 577 52 515.5 -9 c 128,-1,11
 454 -70 454 -70 362 -70 c 1,12,-1
 362 -70 l 1,0,1
362 760 m 1,13,14
 269 760 269 760 208 821 c 128,-1,15
 147 882 147 882 147 975 c 256,16,17
 147 1068 147 1068 208.5 1129 c 128,-1,18
 270 1190 270 1190 362 1190 c 256,19,20
 454 1190 454 1190 515.5 1128 c 128,-1,21
 577 1066 577 1066 577 975 c 0,22,23
 577 882 577 882 515.5 821 c 128,-1,24
 454 760 454 760 362 760 c 1,25,-1
 362 760 l 1,13,14
EndSplineSet
EndChar

StartChar: semicolon
Encoding: 59 59 49
Width: 705
Flags: W
LayerCount: 2
Fore
SplineSet
336 367 m 1,0,1
 418 367 418 367 479.5 311 c 128,-1,2
 541 255 541 255 541 145 c 0,3,4
 541 -13 541 -13 460.5 -116 c 128,-1,5
 380 -219 380 -219 267 -276 c 0,6,7
 255 -283 255 -283 243 -286 c 128,-1,8
 231 -289 231 -289 220 -289 c 0,9,10
 188 -289 188 -289 166.5 -268 c 128,-1,11
 145 -247 145 -247 145 -222 c 0,12,13
 145 -208 145 -208 152.5 -194 c 128,-1,14
 160 -180 160 -180 176 -169 c 0,15,16
 233 -131 233 -131 293.5 -77 c 128,-1,17
 354 -23 354 -23 354 62 c 1,18,19
 273 62 273 62 219.5 98.5 c 128,-1,20
 166 135 166 135 166 212 c 256,21,22
 166 289 166 289 218.5 328 c 128,-1,23
 271 367 271 367 336 367 c 1,24,-1
 336 367 l 1,0,1
355 760 m 1,25,26
 262 760 262 760 201 821 c 128,-1,27
 140 882 140 882 140 975 c 256,28,29
 140 1068 140 1068 201.5 1129 c 128,-1,30
 263 1190 263 1190 355 1190 c 256,31,32
 447 1190 447 1190 508.5 1128 c 128,-1,33
 570 1066 570 1066 570 975 c 0,34,35
 570 882 570 882 508.5 821 c 128,-1,36
 447 760 447 760 355 760 c 1,37,-1
 355 760 l 1,25,26
EndSplineSet
EndChar

StartChar: less
Encoding: 60 60 50
Width: 1856
Flags: W
LayerCount: 2
Fore
SplineSet
1577 183 m 1,0,-1
 128 713 l 1,1,2
 89 730 89 730 67.5 748.5 c 128,-1,3
 46 767 46 767 46 807 c 0,4,5
 46 846 46 846 69 866.5 c 128,-1,6
 92 887 92 887 128 900 c 2,7,-1
 1559 1430 l 2,8,9
 1572 1435 1572 1435 1585.5 1437.5 c 128,-1,10
 1599 1440 1599 1440 1611 1440 c 0,11,12
 1662 1440 1662 1440 1693 1404 c 128,-1,13
 1724 1368 1724 1368 1724 1325 c 0,14,15
 1724 1291 1724 1291 1703.5 1260 c 128,-1,16
 1683 1229 1683 1229 1637 1213 c 2,17,-1
 431 779 l 1,18,-1
 1637 367 l 2,19,20
 1684 351 1684 351 1705.5 322 c 128,-1,21
 1727 293 1727 293 1727 264 c 0,22,23
 1727 229 1727 229 1700.5 201 c 128,-1,24
 1674 173 1674 173 1629 173 c 0,25,26
 1617 173 1617 173 1604 175.5 c 128,-1,27
 1591 178 1591 178 1577 183 c 1,28,-1
 1577 183 l 1,0,-1
EndSplineSet
EndChar

StartChar: equal
Encoding: 61 61 51
Width: 1237
Flags: W
LayerCount: 2
Fore
SplineSet
1072 213 m 2,0,1
 1115 213 1115 213 1146.5 181.5 c 128,-1,2
 1178 150 1178 150 1178 107 c 0,3,4
 1178 63 1178 63 1146.5 32 c 128,-1,5
 1115 1 1115 1 1072 1 c 2,6,-1
 165 1 l 2,7,8
 121 1 121 1 90 32 c 128,-1,9
 59 63 59 63 59 107 c 0,10,11
 59 150 59 150 90 181.5 c 128,-1,12
 121 213 121 213 165 213 c 2,13,-1
 1072 213 l 2,0,1
1072 736 m 2,14,15
 1115 736 1115 736 1146.5 704.5 c 128,-1,16
 1178 673 1178 673 1178 630 c 0,17,18
 1178 586 1178 586 1146.5 555 c 128,-1,19
 1115 524 1115 524 1072 524 c 2,20,-1
 165 524 l 2,21,22
 121 524 121 524 90 555 c 128,-1,23
 59 586 59 586 59 630 c 0,24,25
 59 673 59 673 90 704.5 c 128,-1,26
 121 736 121 736 165 736 c 2,27,-1
 1072 736 l 2,14,15
EndSplineSet
EndChar

StartChar: greater
Encoding: 62 62 52
Width: 1856
Flags: W
LayerCount: 2
Fore
SplineSet
196 1430 m 1,0,-1
 1645 901 l 1,1,2
 1684 884 1684 884 1705.5 865.5 c 128,-1,3
 1727 847 1727 847 1727 807 c 0,4,5
 1727 768 1727 768 1704 747.5 c 128,-1,6
 1681 727 1681 727 1645 714 c 2,7,-1
 214 183 l 1,8,9
 200 179 200 179 187 176 c 128,-1,10
 174 173 174 173 162 173 c 0,11,12
 111 173 111 173 80 209 c 128,-1,13
 49 245 49 245 49 288 c 0,14,15
 49 322 49 322 69.5 353.5 c 128,-1,16
 90 385 90 385 136 401 c 2,17,-1
 1342 835 l 1,18,-1
 136 1247 l 2,19,20
 88 1263 88 1263 67 1291.5 c 128,-1,21
 46 1320 46 1320 46 1350 c 0,22,23
 46 1385 46 1385 72.5 1412.5 c 128,-1,24
 99 1440 99 1440 144 1440 c 0,25,26
 156 1440 156 1440 169 1437.5 c 128,-1,27
 182 1435 182 1435 196 1430 c 1,28,-1
 196 1430 l 1,0,-1
EndSplineSet
EndChar

StartChar: question
Encoding: 63 63 53
Width: 1296
Flags: W
LayerCount: 2
Fore
SplineSet
745 160 m 1,0,1
 745 79 745 79 686.5 27.5 c 128,-1,2
 628 -24 628 -24 547 -24 c 0,3,4
 476 -24 476 -24 438.5 32 c 128,-1,5
 401 88 401 88 401 158 c 0,6,7
 401 233 401 233 450.5 288 c 128,-1,8
 500 343 500 343 575 343 c 0,9,10
 647 343 647 343 696 287 c 128,-1,11
 745 231 745 231 745 160 c 1,12,-1
 745 160 l 1,0,1
584 479 m 1,13,14
 500 479 500 479 482.5 533 c 128,-1,15
 465 587 465 587 465 663 c 2,16,-1
 465 676 l 2,17,18
 465 909 465 909 681 974 c 128,-1,19
 897 1039 897 1039 897 1279 c 0,20,21
 897 1401 897 1401 827 1491.5 c 128,-1,22
 757 1582 757 1582 626 1582 c 0,23,24
 584 1582 584 1582 536.5 1571 c 128,-1,25
 489 1560 489 1560 436 1536 c 1,26,27
 428 1420 428 1420 407.5 1328 c 128,-1,28
 387 1236 387 1236 268 1236 c 0,29,30
 206 1236 206 1236 167.5 1282 c 128,-1,31
 129 1328 129 1328 129 1389 c 0,32,33
 129 1566 129 1566 285 1652.5 c 128,-1,34
 441 1739 441 1739 618 1739 c 0,35,36
 836 1739 836 1739 990.5 1607 c 128,-1,37
 1145 1475 1145 1475 1145 1250 c 0,38,39
 1145 987 1145 987 912 906.5 c 128,-1,40
 679 826 679 826 679 640 c 0,41,42
 679 571 679 571 658.5 525 c 128,-1,43
 638 479 638 479 584 479 c 1,44,-1
 584 479 l 1,13,14
EndSplineSet
EndChar

StartChar: at
Encoding: 64 64 54
Width: 2267
Flags: W
LayerCount: 2
Fore
SplineSet
1469 1208 m 1,0,1
 1484 1251 1484 1251 1515 1305.5 c 128,-1,2
 1546 1360 1546 1360 1602 1360 c 0,3,4
 1624 1360 1624 1360 1640.5 1363 c 128,-1,5
 1657 1366 1657 1366 1674 1366 c 0,6,7
 1679 1366 1679 1366 1681.5 1363.5 c 128,-1,8
 1684 1361 1684 1361 1684 1356 c 0,9,10
 1684 1321 1684 1321 1672 1287.5 c 128,-1,11
 1660 1254 1660 1254 1649 1208 c 2,12,-1
 1504 580 l 2,13,14
 1500 567 1500 567 1498 551.5 c 128,-1,15
 1496 536 1496 536 1496 520 c 0,16,17
 1496 450 1496 450 1539.5 413.5 c 128,-1,18
 1583 377 1583 377 1659 377 c 0,19,20
 1876 377 1876 377 1967.5 585 c 128,-1,21
 2059 793 2059 793 2059 1016 c 0,22,23
 2059 1353 2059 1353 1831.5 1545 c 128,-1,24
 1604 1737 1604 1737 1258 1737 c 0,25,26
 816 1737 816 1737 520 1424.5 c 128,-1,27
 224 1112 224 1112 224 672 c 0,28,29
 224 285 224 285 492.5 54.5 c 128,-1,30
 761 -176 761 -176 1147 -176 c 0,31,32
 1440 -176 1440 -176 1617 -80.5 c 128,-1,33
 1794 15 1794 15 1965 125 c 1,34,35
 1972 131 1972 131 1981 134 c 128,-1,36
 1990 137 1990 137 2001 137 c 0,37,38
 2024 137 2024 137 2044.5 119 c 128,-1,39
 2065 101 2065 101 2065 78 c 0,40,41
 2065 70 2065 70 2061.5 60.5 c 128,-1,42
 2058 51 2058 51 2051 41 c 0,43,44
 1918 -128 1918 -128 1665.5 -227 c 128,-1,45
 1413 -326 1413 -326 1117 -326 c 0,46,47
 874 -326 874 -326 679.5 -245 c 128,-1,48
 485 -164 485 -164 352 -44 c 0,49,50
 221 75 221 75 128 255.5 c 128,-1,51
 35 436 35 436 35 674 c 0,52,53
 35 849 35 849 81.5 999.5 c 128,-1,54
 128 1150 128 1150 197 1269 c 1,55,56
 337 1515 337 1515 595 1705.5 c 128,-1,57
 853 1896 853 1896 1231 1896 c 0,58,59
 1474 1896 1474 1896 1662 1813.5 c 128,-1,60
 1850 1731 1850 1731 1974 1609 c 0,61,62
 2078 1507 2078 1507 2156.5 1356 c 128,-1,63
 2235 1205 2235 1205 2235 1022 c 0,64,65
 2235 712 2235 712 2091 475 c 128,-1,66
 1947 238 1947 238 1639 238 c 0,67,68
 1536 238 1536 238 1475 289 c 128,-1,69
 1414 340 1414 340 1389 416 c 1,70,71
 1336 342 1336 342 1248 279.5 c 128,-1,72
 1160 217 1160 217 1035 217 c 0,73,74
 835 217 835 217 728 345 c 128,-1,75
 621 473 621 473 621 674 c 0,76,77
 621 906 621 906 773 1110.5 c 128,-1,78
 925 1315 925 1315 1158 1315 c 0,79,80
 1257 1315 1257 1315 1335.5 1283 c 128,-1,81
 1414 1251 1414 1251 1469 1208 c 1,82,-1
 1469 1208 l 1,0,1
1197 1163 m 1,83,84
 1001 1163 1001 1163 907.5 1011.5 c 128,-1,85
 814 860 814 860 814 662 c 0,86,87
 814 552 814 552 873.5 464.5 c 128,-1,88
 933 377 933 377 1043 377 c 0,89,90
 1266 377 1266 377 1324.5 546 c 128,-1,91
 1383 715 1383 715 1414 907 c 2,92,-1
 1426 981 l 1,93,94
 1426 1057 1426 1057 1350.5 1110 c 128,-1,95
 1275 1163 1275 1163 1197 1163 c 1,96,-1
 1197 1163 l 1,83,84
EndSplineSet
EndChar

StartChar: A
Encoding: 65 65 55
Width: 1964
Flags: W
LayerCount: 2
Fore
SplineSet
0 84 m 1,0,1
 0 121 0 121 17 148.5 c 128,-1,2
 34 176 34 176 72 176 c 2,3,-1
 211 176 l 1,4,-1
 873 1671 l 2,5,6
 888 1706 888 1706 918 1734.5 c 128,-1,7
 948 1763 948 1763 996 1763 c 0,8,9
 1046 1763 1046 1763 1072.5 1733.5 c 128,-1,10
 1099 1704 1099 1704 1114 1667 c 2,11,-1
 1715 176 l 1,12,-1
 1893 176 l 2,13,14
 1931 176 1931 176 1947.5 148.5 c 128,-1,15
 1964 121 1964 121 1964 84 c 0,16,17
 1964 51 1964 51 1945 25.5 c 128,-1,18
 1926 0 1926 0 1891 0 c 2,19,-1
 1246 0 l 2,20,21
 1211 0 1211 0 1191.5 25.5 c 128,-1,22
 1172 51 1172 51 1172 84 c 0,23,24
 1172 121 1172 121 1189 148.5 c 128,-1,25
 1206 176 1206 176 1244 176 c 2,26,-1
 1463 176 l 1,27,-1
 1315 567 l 1,28,-1
 590 567 l 1,29,-1
 433 176 l 1,30,-1
 619 176 l 2,31,32
 657 176 657 176 674 148.5 c 128,-1,33
 691 121 691 121 691 84 c 0,34,35
 691 51 691 51 671.5 25.5 c 128,-1,36
 652 0 652 0 617 0 c 2,37,-1
 74 0 l 2,38,39
 39 0 39 0 19.5 25.5 c 128,-1,40
 0 51 0 51 0 84 c 1,41,-1
 0 84 l 1,0,1
652 721 m 1,42,-1
 1258 721 l 1,43,-1
 965 1499 l 1,44,-1
 652 721 l 1,42,-1
EndSplineSet
EndChar

StartChar: B
Encoding: 66 66 56
Width: 1821
Flags: W
LayerCount: 2
Fore
SplineSet
1751 510 m 1,0,1
 1751 238 1751 238 1520.5 119 c 128,-1,2
 1290 0 1290 0 1017 0 c 2,3,-1
 110 0 l 2,4,5
 75 0 75 0 55.5 25.5 c 128,-1,6
 36 51 36 51 36 84 c 0,7,8
 36 121 36 121 53 148.5 c 128,-1,9
 70 176 70 176 108 176 c 2,10,-1
 372 176 l 1,11,-1
 372 1538 l 1,12,-1
 159 1538 l 2,13,14
 124 1538 124 1538 105 1563.5 c 128,-1,15
 86 1589 86 1589 86 1622 c 0,16,17
 86 1659 86 1659 102.5 1686.5 c 128,-1,18
 119 1714 119 1714 157 1714 c 2,19,-1
 974 1714 l 2,20,21
 1220 1714 1220 1714 1401 1622 c 128,-1,22
 1582 1530 1582 1530 1582 1279 c 0,23,24
 1582 1154 1582 1154 1510.5 1073.5 c 128,-1,25
 1439 993 1439 993 1341 967 c 1,26,27
 1507 944 1507 944 1629 836.5 c 128,-1,28
 1751 729 1751 729 1751 510 c 1,29,-1
 1751 510 l 1,0,1
1501 532 m 1,30,31
 1501 758 1501 758 1364.5 812 c 128,-1,32
 1228 866 1228 866 1056 866 c 2,33,-1
 606 866 l 1,34,-1
 606 176 l 1,35,-1
 1020 176 l 2,36,37
 1230 176 1230 176 1365.5 253.5 c 128,-1,38
 1501 331 1501 331 1501 532 c 1,39,-1
 1501 532 l 1,30,31
1381 1267 m 1,40,41
 1381 1420 1381 1420 1273.5 1479 c 128,-1,42
 1166 1538 1166 1538 993 1538 c 2,43,-1
 606 1538 l 1,44,-1
 606 995 l 1,45,-1
 1056 995 l 2,46,47
 1177 995 1177 995 1279 1059 c 128,-1,48
 1381 1123 1381 1123 1381 1267 c 1,49,-1
 1381 1267 l 1,40,41
EndSplineSet
EndChar

StartChar: C
Encoding: 67 67 57
Width: 1802
Flags: W
LayerCount: 2
Fore
SplineSet
1694 571 m 1,0,1
 1694 331 1694 331 1493 153 c 128,-1,2
 1292 -25 1292 -25 957 -25 c 0,3,4
 580 -25 580 -25 328.5 223.5 c 128,-1,5
 77 472 77 472 77 889 c 0,6,7
 77 1270 77 1270 333.5 1504.5 c 128,-1,8
 590 1739 590 1739 976 1739 c 0,9,10
 1139 1739 1139 1739 1256 1684.5 c 128,-1,11
 1373 1630 1373 1630 1463 1538 c 1,12,-1
 1463 1642 l 2,13,14
 1463 1680 1463 1680 1490.5 1697 c 128,-1,15
 1518 1714 1518 1714 1555 1714 c 0,16,17
 1588 1714 1588 1714 1613.5 1694.5 c 128,-1,18
 1639 1675 1639 1675 1639 1640 c 2,19,-1
 1639 1266 l 2,20,21
 1639 1231 1639 1231 1613.5 1211.5 c 128,-1,22
 1588 1192 1588 1192 1555 1192 c 0,23,24
 1521 1192 1521 1192 1505 1218.5 c 128,-1,25
 1489 1245 1489 1245 1471 1270 c 1,26,27
 1398 1390 1398 1390 1280.5 1470 c 128,-1,28
 1163 1550 1163 1550 976 1550 c 0,29,30
 680 1550 680 1550 510 1359.5 c 128,-1,31
 340 1169 340 1169 340 878 c 0,32,33
 340 550 340 550 506 360.5 c 128,-1,34
 672 171 672 171 976 171 c 0,35,36
 1187 171 1187 171 1318 285.5 c 128,-1,37
 1449 400 1449 400 1486 590 c 0,38,39
 1493 626 1493 626 1523.5 643.5 c 128,-1,40
 1554 661 1554 661 1588 661 c 0,41,42
 1627 661 1627 661 1660.5 638 c 128,-1,43
 1694 615 1694 615 1694 571 c 1,44,-1
 1694 571 l 1,0,1
EndSplineSet
EndChar

StartChar: D
Encoding: 68 68 58
Width: 1924
Flags: W
LayerCount: 2
Fore
SplineSet
1605 866 m 1,0,1
 1605 1188 1605 1188 1412.5 1363 c 128,-1,2
 1220 1538 1220 1538 896 1538 c 2,3,-1
 610 1538 l 1,4,-1
 610 176 l 1,5,6
 645 174 645 174 679 173 c 128,-1,7
 713 172 713 172 747 172 c 0,8,9
 1126 172 1126 172 1365.5 325 c 128,-1,10
 1605 478 1605 478 1605 866 c 1,11,-1
 1605 866 l 1,0,1
1847 866 m 1,12,13
 1847 444 1847 444 1569 222 c 128,-1,14
 1291 0 1291 0 868 0 c 2,15,-1
 110 0 l 2,16,17
 75 0 75 0 55.5 25.5 c 128,-1,18
 36 51 36 51 36 84 c 0,19,20
 36 121 36 121 53 148.5 c 128,-1,21
 70 176 70 176 108 176 c 2,22,-1
 376 176 l 1,23,-1
 376 1538 l 1,24,-1
 173 1538 l 2,25,26
 135 1538 135 1538 118.5 1565.5 c 128,-1,27
 102 1593 102 1593 102 1630 c 0,28,29
 102 1663 102 1663 121.5 1688.5 c 128,-1,30
 141 1714 141 1714 176 1714 c 2,31,-1
 868 1714 l 2,32,33
 1300 1714 1300 1714 1573.5 1503.5 c 128,-1,34
 1847 1293 1847 1293 1847 866 c 1,35,-1
 1847 866 l 1,12,13
EndSplineSet
EndChar

StartChar: E
Encoding: 69 69 59
Width: 1881
Flags: W
LayerCount: 2
Fore
SplineSet
1161 649 m 1,0,1
 1161 614 1161 614 1143 591.5 c 128,-1,2
 1125 569 1125 569 1091 569 c 0,3,4
 1060 569 1060 569 1039.5 589 c 128,-1,5
 1019 609 1019 609 1011 637 c 2,6,-1
 960 823 l 1,7,-1
 626 823 l 1,8,-1
 626 176 l 1,9,-1
 1509 176 l 1,10,-1
 1625 506 l 1,11,12
 1639 537 1639 537 1664 559.5 c 128,-1,13
 1689 582 1689 582 1728 582 c 0,14,15
 1761 582 1761 582 1781 562 c 128,-1,16
 1801 542 1801 542 1801 508 c 0,17,18
 1801 498 1801 498 1799.5 488 c 128,-1,19
 1798 478 1798 478 1795 469 c 1,20,-1
 1732 78 l 1,21,22
 1722 42 1722 42 1704 21 c 128,-1,23
 1686 0 1686 0 1650 0 c 2,24,-1
 110 0 l 2,25,26
 75 0 75 0 55.5 25.5 c 128,-1,27
 36 51 36 51 36 84 c 0,28,29
 36 121 36 121 53 148.5 c 128,-1,30
 70 176 70 176 108 176 c 2,31,-1
 393 176 l 1,32,-1
 393 1538 l 1,33,-1
 210 1538 l 2,34,35
 172 1538 172 1538 155.5 1565.5 c 128,-1,36
 139 1593 139 1593 139 1630 c 0,37,38
 139 1663 139 1663 158 1688.5 c 128,-1,39
 177 1714 177 1714 212 1714 c 2,40,-1
 1609 1714 l 2,41,42
 1645 1714 1645 1714 1662 1692.5 c 128,-1,43
 1679 1671 1679 1671 1691 1636 c 1,44,-1
 1787 1319 l 2,45,46
 1790 1308 1790 1308 1791.5 1298 c 128,-1,47
 1793 1288 1793 1288 1793 1280 c 0,48,49
 1793 1247 1793 1247 1772.5 1226.5 c 128,-1,50
 1752 1206 1752 1206 1720 1206 c 0,51,52
 1683 1206 1683 1206 1656.5 1228.5 c 128,-1,53
 1630 1251 1630 1251 1617 1282 c 2,54,-1
 1509 1538 l 1,55,-1
 626 1538 l 1,56,-1
 626 967 l 1,57,-1
 960 967 l 1,58,-1
 1011 1153 l 2,59,60
 1019 1181 1019 1181 1039.5 1201 c 128,-1,61
 1060 1221 1060 1221 1091 1221 c 0,62,63
 1125 1221 1125 1221 1143 1198.5 c 128,-1,64
 1161 1176 1161 1176 1161 1141 c 1,65,-1
 1146 899 l 1,66,-1
 1161 649 l 1,0,1
EndSplineSet
EndChar

StartChar: F
Encoding: 70 70 60
Width: 1782
Flags: W
LayerCount: 2
Fore
SplineSet
970 0 m 2,0,1
 1005 0 1005 0 1024.5 25.5 c 128,-1,2
 1044 51 1044 51 1044 84 c 0,3,4
 1044 121 1044 121 1027 148.5 c 128,-1,5
 1010 176 1010 176 972 176 c 2,6,-1
 667 176 l 1,7,-1
 667 784 l 1,8,-1
 1007 784 l 1,9,-1
 1058 598 l 2,10,11
 1066 570 1066 570 1086.5 550 c 128,-1,12
 1107 530 1107 530 1138 530 c 0,13,14
 1172 530 1172 530 1190 552.5 c 128,-1,15
 1208 575 1208 575 1208 610 c 1,16,-1
 1194 860 l 1,17,-1
 1208 1102 l 1,18,19
 1208 1137 1208 1137 1190 1159.5 c 128,-1,20
 1172 1182 1172 1182 1138 1182 c 0,21,22
 1107 1182 1107 1182 1086.5 1162 c 128,-1,23
 1066 1142 1066 1142 1058 1114 c 2,24,-1
 1007 928 l 1,25,-1
 667 928 l 1,26,-1
 667 1538 l 1,27,-1
 1542 1538 l 1,28,-1
 1630 1282 l 1,29,30
 1643 1251 1643 1251 1669 1228.5 c 128,-1,31
 1695 1206 1695 1206 1732 1206 c 0,32,33
 1764 1206 1764 1206 1785 1226.5 c 128,-1,34
 1806 1247 1806 1247 1806 1280 c 0,35,36
 1806 1288 1806 1288 1804.5 1298 c 128,-1,37
 1803 1308 1803 1308 1800 1319 c 2,38,-1
 1724 1636 l 1,39,40
 1712 1671 1712 1671 1695 1692.5 c 128,-1,41
 1678 1714 1678 1714 1642 1714 c 2,42,-1
 192 1714 l 2,43,44
 157 1714 157 1714 137.5 1688.5 c 128,-1,45
 118 1663 118 1663 118 1630 c 0,46,47
 118 1593 118 1593 135 1565.5 c 128,-1,48
 152 1538 152 1538 190 1538 c 2,49,-1
 434 1538 l 1,50,-1
 434 176 l 1,51,-1
 108 176 l 2,52,53
 70 176 70 176 53 148.5 c 128,-1,54
 36 121 36 121 36 84 c 0,55,56
 36 51 36 51 55.5 25.5 c 128,-1,57
 75 0 75 0 110 0 c 2,58,-1
 970 0 l 2,0,1
EndSplineSet
EndChar

StartChar: G
Encoding: 71 71 61
Width: 1988
Flags: W
LayerCount: 2
Fore
SplineSet
974 164 m 1,0,1
 1208 164 1208 164 1393 248 c 128,-1,2
 1578 332 1578 332 1578 569 c 2,3,-1
 1578 696 l 1,4,-1
 1426 696 l 2,5,6
 1391 696 1391 696 1372 721.5 c 128,-1,7
 1353 747 1353 747 1353 780 c 0,8,9
 1353 817 1353 817 1369.5 844.5 c 128,-1,10
 1386 872 1386 872 1424 872 c 2,11,-1
 1840 872 l 2,12,13
 1878 872 1878 872 1895 844.5 c 128,-1,14
 1912 817 1912 817 1912 780 c 0,15,16
 1912 747 1912 747 1892.5 721.5 c 128,-1,17
 1873 696 1873 696 1838 696 c 2,18,-1
 1754 696 l 1,19,-1
 1754 72 l 2,20,21
 1754 34 1754 34 1726.5 17 c 128,-1,22
 1699 0 1699 0 1662 0 c 0,23,24
 1629 0 1629 0 1603.5 19.5 c 128,-1,25
 1578 39 1578 39 1578 74 c 2,26,-1
 1578 197 l 1,27,28
 1491 78 1491 78 1333.5 26.5 c 128,-1,29
 1176 -25 1176 -25 974 -25 c 0,30,31
 579 -25 579 -25 328 214.5 c 128,-1,32
 77 454 77 454 77 850 c 0,33,34
 77 1251 77 1251 335.5 1495 c 128,-1,35
 594 1739 594 1739 994 1739 c 0,36,37
 1175 1739 1175 1739 1307 1685.5 c 128,-1,38
 1439 1632 1439 1632 1543 1538 c 1,39,-1
 1543 1642 l 2,40,41
 1543 1680 1543 1680 1570.5 1697 c 128,-1,42
 1598 1714 1598 1714 1635 1714 c 0,43,44
 1668 1714 1668 1714 1693.5 1694.5 c 128,-1,45
 1719 1675 1719 1675 1719 1640 c 2,46,-1
 1719 1266 l 2,47,48
 1719 1231 1719 1231 1693.5 1211.5 c 128,-1,49
 1668 1192 1668 1192 1635 1192 c 0,50,51
 1601 1192 1601 1192 1584 1218.5 c 128,-1,52
 1567 1245 1567 1245 1551 1270 c 1,53,54
 1459 1399 1459 1399 1324.5 1474.5 c 128,-1,55
 1190 1550 1190 1550 994 1550 c 0,56,57
 687 1550 687 1550 513 1353.5 c 128,-1,58
 339 1157 339 1157 339 850 c 0,59,60
 339 547 339 547 506.5 355.5 c 128,-1,61
 674 164 674 164 974 164 c 1,62,-1
 974 164 l 1,0,1
EndSplineSet
EndChar

StartChar: H
Encoding: 72 72 62
Width: 2020
Flags: W
LayerCount: 2
Fore
SplineSet
36 84 m 1,0,1
 36 121 36 121 53 148.5 c 128,-1,2
 70 176 70 176 108 176 c 2,3,-1
 331 176 l 1,4,-1
 331 1538 l 1,5,-1
 129 1538 l 2,6,7
 91 1538 91 1538 74 1565.5 c 128,-1,8
 57 1593 57 1593 57 1630 c 0,9,10
 57 1663 57 1663 76.5 1688.5 c 128,-1,11
 96 1714 96 1714 131 1714 c 2,12,-1
 766 1714 l 2,13,14
 801 1714 801 1714 820 1688.5 c 128,-1,15
 839 1663 839 1663 839 1630 c 0,16,17
 839 1593 839 1593 822.5 1565.5 c 128,-1,18
 806 1538 806 1538 768 1538 c 2,19,-1
 565 1538 l 1,20,-1
 565 963 l 1,21,-1
 1497 963 l 1,22,-1
 1497 1538 l 1,23,-1
 1294 1538 l 2,24,25
 1256 1538 1256 1538 1239 1565.5 c 128,-1,26
 1222 1593 1222 1593 1222 1630 c 0,27,28
 1222 1663 1222 1663 1241.5 1688.5 c 128,-1,29
 1261 1714 1261 1714 1296 1714 c 2,30,-1
 1910 1714 l 2,31,32
 1945 1714 1945 1714 1964.5 1688.5 c 128,-1,33
 1984 1663 1984 1663 1984 1630 c 0,34,35
 1984 1593 1984 1593 1967 1565.5 c 128,-1,36
 1950 1538 1950 1538 1912 1538 c 2,37,-1
 1730 1538 l 1,38,-1
 1730 176 l 1,39,-1
 1912 176 l 2,40,41
 1950 176 1950 176 1967 148.5 c 128,-1,42
 1984 121 1984 121 1984 84 c 0,43,44
 1984 51 1984 51 1964.5 25.5 c 128,-1,45
 1945 0 1945 0 1910 0 c 2,46,-1
 1296 0 l 2,47,48
 1261 0 1261 0 1241.5 25.5 c 128,-1,49
 1222 51 1222 51 1222 84 c 0,50,51
 1222 121 1222 121 1239 148.5 c 128,-1,52
 1256 176 1256 176 1294 176 c 2,53,-1
 1497 176 l 1,54,-1
 1497 788 l 1,55,-1
 565 788 l 1,56,-1
 565 176 l 1,57,-1
 768 176 l 2,58,59
 806 176 806 176 822.5 148.5 c 128,-1,60
 839 121 839 121 839 84 c 0,61,62
 839 51 839 51 820 25.5 c 128,-1,63
 801 0 801 0 766 0 c 2,64,-1
 110 0 l 2,65,66
 75 0 75 0 55.5 25.5 c 128,-1,67
 36 51 36 51 36 84 c 1,68,-1
 36 84 l 1,0,1
EndSplineSet
EndChar

StartChar: I
Encoding: 73 73 63
Width: 1008
Flags: W
LayerCount: 2
Fore
SplineSet
74 84 m 1,0,1
 74 121 74 121 90.5 148.5 c 128,-1,2
 107 176 107 176 145 176 c 2,3,-1
 389 176 l 1,4,-1
 389 1538 l 1,5,-1
 145 1538 l 2,6,7
 107 1538 107 1538 90.5 1565.5 c 128,-1,8
 74 1593 74 1593 74 1630 c 0,9,10
 74 1663 74 1663 93 1688.5 c 128,-1,11
 112 1714 112 1714 147 1714 c 2,12,-1
 864 1714 l 2,13,14
 899 1714 899 1714 918.5 1688.5 c 128,-1,15
 938 1663 938 1663 938 1630 c 0,16,17
 938 1593 938 1593 921 1565.5 c 128,-1,18
 904 1538 904 1538 866 1538 c 2,19,-1
 623 1538 l 1,20,-1
 623 176 l 1,21,-1
 866 176 l 2,22,23
 904 176 904 176 921 148.5 c 128,-1,24
 938 121 938 121 938 84 c 0,25,26
 938 51 938 51 918.5 25.5 c 128,-1,27
 899 0 899 0 864 0 c 2,28,-1
 147 0 l 2,29,30
 112 0 112 0 93 25.5 c 128,-1,31
 74 51 74 51 74 84 c 1,32,-1
 74 84 l 1,0,1
EndSplineSet
EndChar

StartChar: J
Encoding: 74 74 64
Width: 1333
Flags: W
LayerCount: 2
Fore
SplineSet
965 443 m 2,0,1
 965 130 965 130 819 -14 c 128,-1,2
 673 -158 673 -158 461 -158 c 0,3,4
 309 -158 309 -158 197 -84.5 c 128,-1,5
 85 -11 85 -11 85 93 c 2,6,-1
 85 226 l 2,7,8
 85 283 85 283 112 313 c 128,-1,9
 139 343 139 343 202 343 c 0,10,11
 250 343 250 343 286.5 319 c 128,-1,12
 323 295 323 295 323 249 c 2,13,-1
 323 122 l 1,14,15
 324 85 324 85 369.5 58 c 128,-1,16
 415 31 415 31 476 31 c 0,17,18
 563 31 563 31 647.5 114.5 c 128,-1,19
 732 198 732 198 732 417 c 2,20,-1
 732 1538 l 1,21,-1
 410 1538 l 2,22,23
 372 1538 372 1538 355.5 1565.5 c 128,-1,24
 339 1593 339 1593 339 1630 c 0,25,26
 339 1663 339 1663 358 1688.5 c 128,-1,27
 377 1714 377 1714 412 1714 c 2,28,-1
 1228 1714 l 2,29,30
 1263 1714 1263 1714 1282 1688.5 c 128,-1,31
 1301 1663 1301 1663 1301 1630 c 0,32,33
 1301 1593 1301 1593 1284.5 1565.5 c 128,-1,34
 1268 1538 1268 1538 1230 1538 c 2,35,-1
 965 1538 l 1,36,-1
 965 443 l 2,0,1
EndSplineSet
EndChar

StartChar: K
Encoding: 75 75 65
Width: 2032
Flags: W
LayerCount: 2
Fore
SplineSet
36 84 m 1,0,1
 36 121 36 121 53 148.5 c 128,-1,2
 70 176 70 176 108 176 c 2,3,-1
 327 176 l 1,4,-1
 327 1538 l 1,5,-1
 108 1538 l 2,6,7
 70 1538 70 1538 53 1565.5 c 128,-1,8
 36 1593 36 1593 36 1630 c 0,9,10
 36 1663 36 1663 55.5 1688.5 c 128,-1,11
 75 1714 75 1714 110 1714 c 2,12,-1
 761 1714 l 2,13,14
 796 1714 796 1714 815.5 1688.5 c 128,-1,15
 835 1663 835 1663 835 1630 c 0,16,17
 835 1593 835 1593 818.5 1565.5 c 128,-1,18
 802 1538 802 1538 764 1538 c 2,19,-1
 561 1538 l 1,20,-1
 561 842 l 1,21,-1
 1353 1499 l 2,22,23
 1357 1503 1357 1503 1362.5 1511.5 c 128,-1,24
 1368 1520 1368 1520 1368 1530 c 0,25,26
 1368 1541 1368 1541 1359.5 1546.5 c 128,-1,27
 1351 1552 1351 1552 1335 1552 c 2,28,-1
 1265 1552 l 2,29,30
 1229 1552 1229 1552 1211.5 1571.5 c 128,-1,31
 1194 1591 1194 1591 1194 1630 c 0,32,33
 1194 1663 1194 1663 1213 1688.5 c 128,-1,34
 1232 1714 1232 1714 1267 1714 c 2,35,-1
 1796 1714 l 2,36,37
 1831 1714 1831 1714 1850 1688.5 c 128,-1,38
 1869 1663 1869 1663 1869 1630 c 0,39,40
 1869 1593 1869 1593 1852.5 1565.5 c 128,-1,41
 1836 1538 1836 1538 1798 1538 c 2,42,-1
 1640 1538 l 1,43,-1
 1034 1016 l 1,44,-1
 1820 176 l 1,45,-1
 1962 176 l 2,46,47
 2000 176 2000 176 2016.5 148.5 c 128,-1,48
 2033 121 2033 121 2033 84 c 0,49,50
 2033 51 2033 51 2014 25.5 c 128,-1,51
 1995 0 1995 0 1960 0 c 2,52,-1
 1349 0 l 2,53,54
 1314 0 1314 0 1295 25.5 c 128,-1,55
 1276 51 1276 51 1276 84 c 0,56,57
 1276 121 1276 121 1292.5 148.5 c 128,-1,58
 1309 176 1309 176 1347 176 c 2,59,-1
 1546 176 l 1,60,-1
 884 911 l 1,61,-1
 561 662 l 1,62,-1
 561 176 l 1,63,-1
 845 176 l 2,64,65
 883 176 883 176 900 148.5 c 128,-1,66
 917 121 917 121 917 84 c 0,67,68
 917 51 917 51 897.5 25.5 c 128,-1,69
 878 0 878 0 843 0 c 2,70,-1
 110 0 l 2,71,72
 75 0 75 0 55.5 25.5 c 128,-1,73
 36 51 36 51 36 84 c 1,74,-1
 36 84 l 1,0,1
EndSplineSet
EndChar

StartChar: L
Encoding: 76 76 66
Width: 1838
Flags: W
LayerCount: 2
Fore
SplineSet
938 1630 m 1,0,1
 938 1593 938 1593 921 1565.5 c 128,-1,2
 904 1538 904 1538 866 1538 c 2,3,-1
 643 1538 l 1,4,-1
 643 176 l 1,5,-1
 1347 176 l 2,6,7
 1432 176 1432 176 1493.5 200 c 128,-1,8
 1555 224 1555 224 1562 303 c 1,9,-1
 1591 584 l 2,10,11
 1595 617 1595 617 1616.5 632 c 128,-1,12
 1638 647 1638 647 1673 647 c 0,13,14
 1710 647 1710 647 1737.5 627 c 128,-1,15
 1765 607 1765 607 1765 567 c 1,16,-1
 1720 68 l 2,17,18
 1717 40 1717 40 1702 20 c 128,-1,19
 1687 0 1687 0 1659 0 c 2,20,-1
 110 0 l 2,21,22
 75 0 75 0 55.5 25.5 c 128,-1,23
 36 51 36 51 36 84 c 0,24,25
 36 121 36 121 53 148.5 c 128,-1,26
 70 176 70 176 108 176 c 2,27,-1
 409 176 l 1,28,-1
 409 1538 l 1,29,-1
 170 1538 l 2,30,31
 132 1538 132 1538 115 1565.5 c 128,-1,32
 98 1593 98 1593 98 1630 c 0,33,34
 98 1663 98 1663 117.5 1688.5 c 128,-1,35
 137 1714 137 1714 172 1714 c 2,36,-1
 864 1714 l 2,37,38
 899 1714 899 1714 918.5 1688.5 c 128,-1,39
 938 1663 938 1663 938 1630 c 1,40,-1
 938 1630 l 1,0,1
EndSplineSet
EndChar

StartChar: M
Encoding: 77 77 67
Width: 2417
Flags: W
LayerCount: 2
Fore
SplineSet
1640 84 m 1,0,1
 1640 121 1640 121 1657 148.5 c 128,-1,2
 1674 176 1674 176 1712 176 c 2,3,-1
 1894 176 l 1,4,-1
 1894 1235 l 1,5,-1
 1290 102 l 1,6,7
 1280 76 1280 76 1255 56.5 c 128,-1,8
 1230 37 1230 37 1196 37 c 0,9,10
 1165 37 1165 37 1140.5 53.5 c 128,-1,11
 1116 70 1116 70 1106 92 c 2,12,-1
 540 1249 l 1,13,-1
 540 176 l 1,14,-1
 743 176 l 2,15,16
 781 176 781 176 798 148.5 c 128,-1,17
 815 121 815 121 815 84 c 0,18,19
 815 51 815 51 795.5 25.5 c 128,-1,20
 776 0 776 0 741 0 c 2,21,-1
 110 0 l 2,22,23
 75 0 75 0 55.5 25.5 c 128,-1,24
 36 51 36 51 36 84 c 0,25,26
 36 121 36 121 53 148.5 c 128,-1,27
 70 176 70 176 108 176 c 2,28,-1
 331 176 l 1,29,-1
 331 1538 l 1,30,-1
 129 1538 l 2,31,32
 91 1538 91 1538 74 1565.5 c 128,-1,33
 57 1593 57 1593 57 1630 c 0,34,35
 57 1663 57 1663 76.5 1688.5 c 128,-1,36
 96 1714 96 1714 131 1714 c 2,37,-1
 467 1714 l 2,38,39
 494 1714 494 1714 509.5 1698 c 128,-1,40
 525 1682 525 1682 534 1663 c 2,41,-1
 1196 328 l 1,42,-1
 1902 1671 l 2,43,44
 1911 1688 1911 1688 1927 1701 c 128,-1,45
 1943 1714 1943 1714 1968 1714 c 2,46,-1
 2287 1714 l 2,47,48
 2322 1714 2322 1714 2341.5 1688.5 c 128,-1,49
 2361 1663 2361 1663 2361 1630 c 0,50,51
 2361 1593 2361 1593 2344 1565.5 c 128,-1,52
 2327 1538 2327 1538 2289 1538 c 2,53,-1
 2107 1538 l 1,54,-1
 2107 176 l 1,55,-1
 2310 176 l 2,56,57
 2348 176 2348 176 2364.5 148.5 c 128,-1,58
 2381 121 2381 121 2381 84 c 0,59,60
 2381 51 2381 51 2362 25.5 c 128,-1,61
 2343 0 2343 0 2308 0 c 2,62,-1
 1714 0 l 2,63,64
 1679 0 1679 0 1659.5 25.5 c 128,-1,65
 1640 51 1640 51 1640 84 c 1,66,-1
 1640 84 l 1,0,1
EndSplineSet
EndChar

StartChar: N
Encoding: 78 78 68
Width: 2024
Flags: W
LayerCount: 2
Fore
SplineSet
36 1630 m 1,0,1
 36 1663 36 1663 55.5 1688.5 c 128,-1,2
 75 1714 75 1714 110 1714 c 2,3,-1
 573 1714 l 2,4,5
 597 1714 597 1714 610 1706 c 128,-1,6
 623 1698 623 1698 632 1679 c 1,7,-1
 1511 426 l 1,8,-1
 1511 1538 l 1,9,-1
 1331 1538 l 2,10,11
 1293 1538 1293 1538 1276 1565.5 c 128,-1,12
 1259 1593 1259 1593 1259 1630 c 0,13,14
 1259 1663 1259 1663 1278.5 1688.5 c 128,-1,15
 1298 1714 1298 1714 1333 1714 c 2,16,-1
 1915 1714 l 2,17,18
 1950 1714 1950 1714 1969 1688.5 c 128,-1,19
 1988 1663 1988 1663 1988 1630 c 0,20,21
 1988 1593 1988 1593 1971.5 1565.5 c 128,-1,22
 1955 1538 1955 1538 1917 1538 c 2,23,-1
 1718 1538 l 1,24,-1
 1718 53 l 2,25,26
 1718 15 1718 15 1691.5 -11 c 128,-1,27
 1665 -37 1665 -37 1628 -37 c 0,28,29
 1596 -37 1596 -37 1573.5 -21.5 c 128,-1,30
 1551 -6 1551 -6 1536 16 c 2,31,-1
 518 1456 l 1,32,-1
 518 176 l 1,33,-1
 694 176 l 2,34,35
 732 176 732 176 749 148.5 c 128,-1,36
 766 121 766 121 766 84 c 0,37,38
 766 51 766 51 746.5 25.5 c 128,-1,39
 727 0 727 0 692 0 c 2,40,-1
 110 0 l 2,41,42
 75 0 75 0 55.5 25.5 c 128,-1,43
 36 51 36 51 36 84 c 0,44,45
 36 121 36 121 53 148.5 c 128,-1,46
 70 176 70 176 108 176 c 2,47,-1
 307 176 l 1,48,-1
 307 1538 l 1,49,-1
 108 1538 l 2,50,51
 70 1538 70 1538 53 1565.5 c 128,-1,52
 36 1593 36 1593 36 1630 c 1,53,-1
 36 1630 l 1,0,1
EndSplineSet
EndChar

StartChar: O
Encoding: 79 79 69
Width: 1940
Flags: W
LayerCount: 2
Fore
SplineSet
966 -25 m 1,0,1
 575 -25 575 -25 326 214.5 c 128,-1,2
 77 454 77 454 77 850 c 0,3,4
 77 1247 77 1247 326 1493 c 128,-1,5
 575 1739 575 1739 966 1739 c 0,6,7
 1362 1739 1362 1739 1612.5 1493 c 128,-1,8
 1863 1247 1863 1247 1863 850 c 0,9,10
 1863 454 1863 454 1611.5 214.5 c 128,-1,11
 1360 -25 1360 -25 966 -25 c 1,12,-1
 966 -25 l 1,0,1
957 1550 m 1,13,14
 659 1550 659 1550 493 1351.5 c 128,-1,15
 327 1153 327 1153 327 850 c 256,16,17
 327 547 327 547 497.5 355.5 c 128,-1,18
 668 164 668 164 974 164 c 0,19,20
 1273 164 1273 164 1444 353 c 128,-1,21
 1615 542 1615 542 1615 848 c 0,22,23
 1615 1157 1615 1157 1439.5 1353.5 c 128,-1,24
 1264 1550 1264 1550 957 1550 c 1,25,-1
 957 1550 l 1,13,14
EndSplineSet
EndChar

StartChar: P
Encoding: 80 80 70
Width: 1740
Flags: W
LayerCount: 2
Fore
SplineSet
1435 1223 m 1,0,1
 1435 1458 1435 1458 1229 1498 c 128,-1,2
 1023 1538 1023 1538 813 1538 c 2,3,-1
 606 1538 l 1,4,-1
 606 889 l 1,5,-1
 874 889 l 2,6,7
 1089 889 1089 889 1262 936.5 c 128,-1,8
 1435 984 1435 984 1435 1223 c 1,9,-1
 1435 1223 l 1,0,1
1671 1208 m 1,10,11
 1671 862 1671 862 1405.5 793.5 c 128,-1,12
 1140 725 1140 725 821 725 c 2,13,-1
 606 725 l 1,14,-1
 606 176 l 1,15,-1
 911 176 l 2,16,17
 949 176 949 176 966 148.5 c 128,-1,18
 983 121 983 121 983 84 c 0,19,20
 983 51 983 51 963.5 25.5 c 128,-1,21
 944 0 944 0 909 0 c 2,22,-1
 110 0 l 2,23,24
 75 0 75 0 55.5 25.5 c 128,-1,25
 36 51 36 51 36 84 c 0,26,27
 36 121 36 121 53 148.5 c 128,-1,28
 70 176 70 176 108 176 c 2,29,-1
 372 176 l 1,30,-1
 372 1538 l 1,31,-1
 129 1538 l 2,32,33
 91 1538 91 1538 74 1565.5 c 128,-1,34
 57 1593 57 1593 57 1630 c 0,35,36
 57 1663 57 1663 76.5 1688.5 c 128,-1,37
 96 1714 96 1714 131 1714 c 2,38,-1
 784 1714 l 2,39,40
 1118 1714 1118 1714 1394.5 1640 c 128,-1,41
 1671 1566 1671 1566 1671 1208 c 1,42,-1
 1671 1208 l 1,10,11
EndSplineSet
EndChar

StartChar: Q
Encoding: 81 81 71
Width: 1948
Flags: W
LayerCount: 2
Fore
SplineSet
974 1550 m 1,0,1
 673 1550 673 1550 506 1351 c 128,-1,2
 339 1152 339 1152 339 850 c 0,3,4
 339 547 339 547 506.5 355.5 c 128,-1,5
 674 164 674 164 974 164 c 0,6,7
 1280 164 1280 164 1454.5 353.5 c 128,-1,8
 1629 543 1629 543 1629 850 c 0,9,10
 1629 1158 1629 1158 1454.5 1354 c 128,-1,11
 1280 1550 1280 1550 974 1550 c 1,12,-1
 974 1550 l 1,0,1
1140 -13 m 1,13,-1
 1368 -161 l 1,14,15
 1393 -174 1393 -174 1420.5 -178.5 c 128,-1,16
 1448 -183 1448 -183 1476 -183 c 0,17,18
 1521 -183 1521 -183 1574.5 -161 c 128,-1,19
 1628 -139 1628 -139 1689 -95 c 0,20,21
 1698 -89 1698 -89 1708.5 -86 c 128,-1,22
 1719 -83 1719 -83 1730 -83 c 0,23,24
 1772 -83 1772 -83 1805.5 -116.5 c 128,-1,25
 1839 -150 1839 -150 1839 -191 c 0,26,27
 1839 -283 1839 -283 1690.5 -333.5 c 128,-1,28
 1542 -384 1542 -384 1464 -384 c 0,29,30
 1265 -384 1265 -384 1146 -228.5 c 128,-1,31
 1027 -73 1027 -73 878 -21 c 1,32,33
 522 8 522 8 299.5 243 c 128,-1,34
 77 478 77 478 77 850 c 0,35,36
 77 1247 77 1247 327.5 1493 c 128,-1,37
 578 1739 578 1739 974 1739 c 256,38,39
 1370 1739 1370 1739 1620.5 1493 c 128,-1,40
 1871 1247 1871 1247 1871 850 c 0,41,42
 1871 497 1871 497 1669.5 266.5 c 128,-1,43
 1468 36 1468 36 1140 -13 c 1,44,-1
 1140 -13 l 1,13,-1
EndSplineSet
EndChar

StartChar: R
Encoding: 82 82 72
Width: 1828
Flags: W
LayerCount: 2
Fore
SplineSet
749 942 m 2,0,1
 977 942 977 942 1151 981.5 c 128,-1,2
 1325 1021 1325 1021 1325 1239 c 0,3,4
 1325 1461 1325 1461 1129.5 1499.5 c 128,-1,5
 934 1538 934 1538 712 1538 c 2,6,-1
 565 1538 l 1,7,-1
 565 942 l 1,8,-1
 749 942 l 2,0,1
1568 1249 m 1,9,10
 1568 1045 1568 1045 1435 953 c 128,-1,11
 1302 861 1302 861 1108 827 c 1,12,13
 1203 785 1203 785 1274 717 c 128,-1,14
 1345 649 1345 649 1390 540 c 2,15,-1
 1540 177 l 1,16,-1
 1687 177 l 2,17,18
 1747 177 1747 177 1771 156 c 128,-1,19
 1795 135 1795 135 1795 84 c 0,20,21
 1795 28 1795 28 1765 13.5 c 128,-1,22
 1735 -1 1735 -1 1688 -1 c 2,23,-1
 1254 0 l 2,24,25
 1219 0 1219 0 1199.5 25.5 c 128,-1,26
 1180 51 1180 51 1180 84 c 0,27,28
 1180 121 1180 121 1197 149 c 128,-1,29
 1214 177 1214 177 1252 177 c 2,30,-1
 1301 177 l 1,31,-1
 1189 460 l 2,32,33
 1144 573 1144 573 1042.5 668.5 c 128,-1,34
 941 764 941 764 792 764 c 2,35,-1
 565 764 l 1,36,-1
 565 177 l 1,37,-1
 829 177 l 2,38,39
 867 177 867 177 884 149 c 128,-1,40
 901 121 901 121 901 84 c 0,41,42
 901 51 901 51 881.5 25.5 c 128,-1,43
 862 0 862 0 827 0 c 2,44,-1
 110 0 l 2,45,46
 75 0 75 0 55.5 25.5 c 128,-1,47
 36 51 36 51 36 84 c 0,48,49
 36 121 36 121 53 149 c 128,-1,50
 70 177 70 177 108 177 c 2,51,-1
 331 177 l 1,52,-1
 331 1538 l 1,53,-1
 149 1538 l 2,54,55
 111 1538 111 1538 94 1565.5 c 128,-1,56
 77 1593 77 1593 77 1630 c 0,57,58
 77 1663 77 1663 96.5 1688.5 c 128,-1,59
 116 1714 116 1714 151 1714 c 2,60,-1
 743 1714 l 2,61,62
 1068 1714 1068 1714 1318 1641.5 c 128,-1,63
 1568 1569 1568 1569 1568 1249 c 1,64,-1
 1568 1249 l 1,9,10
EndSplineSet
EndChar

StartChar: S
Encoding: 83 83 73
Width: 1511
Flags: W
LayerCount: 2
Fore
SplineSet
805 1581 m 1,0,1
 565 1581 565 1581 487 1490.5 c 128,-1,2
 409 1400 409 1400 409 1287 c 0,3,4
 409 1190 409 1190 476.5 1130.5 c 128,-1,5
 544 1071 544 1071 678 1038 c 2,6,-1
 965 967 l 2,7,8
 1162 918 1162 918 1286 806.5 c 128,-1,9
 1410 695 1410 695 1410 458 c 0,10,11
 1410 199 1410 199 1205 86 c 128,-1,12
 1000 -27 1000 -27 738 -27 c 0,13,14
 632 -27 632 -27 521 1 c 128,-1,15
 410 29 410 29 314 95 c 1,16,17
 310 61 310 61 293 18 c 128,-1,18
 276 -25 276 -25 242 -25 c 0,19,20
 206 -25 206 -25 184 -10 c 128,-1,21
 162 5 162 5 158 39 c 2,22,-1
 101 535 l 1,23,24
 101 575 101 575 125 594.5 c 128,-1,25
 149 614 149 614 197 614 c 0,26,27
 227 614 227 614 250 596.5 c 128,-1,28
 273 579 273 579 277 549 c 2,29,-1
 293 410 l 2,30,31
 303 317 303 317 431 233.5 c 128,-1,32
 559 150 559 150 713 150 c 0,33,34
 884 150 884 150 1044.5 211 c 128,-1,35
 1205 272 1205 272 1205 459 c 0,36,37
 1205 594 1205 594 1123.5 647 c 128,-1,38
 1042 700 1042 700 930 732 c 2,39,-1
 602 825 l 1,40,41
 423 865 423 865 305.5 967.5 c 128,-1,42
 188 1070 188 1070 188 1271 c 0,43,44
 188 1490 188 1490 359.5 1614.5 c 128,-1,45
 531 1739 531 1739 772 1739 c 0,46,47
 876 1739 876 1739 985.5 1713 c 128,-1,48
 1095 1687 1095 1687 1167 1627 c 1,49,50
 1167 1669 1167 1669 1193.5 1703.5 c 128,-1,51
 1220 1738 1220 1738 1261 1738 c 0,52,53
 1291 1738 1291 1738 1314 1720 c 128,-1,54
 1337 1702 1337 1702 1341 1672 c 1,55,-1
 1348 1275 l 2,56,57
 1348 1232 1348 1232 1322 1212.5 c 128,-1,58
 1296 1193 1296 1193 1256 1193 c 0,59,60
 1221 1193 1221 1193 1198.5 1208 c 128,-1,61
 1176 1223 1176 1223 1172 1256 c 1,62,-1
 1168 1372 l 1,63,64
 1155 1485 1155 1485 1044 1533 c 128,-1,65
 933 1581 933 1581 805 1581 c 1,66,-1
 805 1581 l 1,0,1
EndSplineSet
EndChar

StartChar: T
Encoding: 84 84 74
Width: 1662
Flags: W
LayerCount: 2
Fore
SplineSet
102 1184 m 1,0,1
 69 1184 69 1184 51.5 1206 c 128,-1,2
 34 1228 34 1228 34 1264 c 1,3,-1
 49 1636 l 2,4,5
 50 1675 50 1675 63 1694.5 c 128,-1,6
 76 1714 76 1714 110 1714 c 2,7,-1
 1552 1714 l 2,8,9
 1584 1714 1584 1714 1598 1694 c 128,-1,10
 1612 1674 1612 1674 1613 1636 c 2,11,-1
 1628 1264 l 1,12,13
 1628 1228 1628 1228 1610.5 1206 c 128,-1,14
 1593 1184 1593 1184 1560 1184 c 0,15,16
 1525 1184 1525 1184 1503.5 1199 c 128,-1,17
 1482 1214 1482 1214 1478 1251 c 2,18,-1
 1447 1538 l 1,19,-1
 937 1538 l 1,20,-1
 937 176 l 1,21,-1
 1202 176 l 2,22,23
 1240 176 1240 176 1256.5 148.5 c 128,-1,24
 1273 121 1273 121 1273 84 c 0,25,26
 1273 51 1273 51 1254 25.5 c 128,-1,27
 1235 0 1235 0 1200 0 c 2,28,-1
 442 0 l 2,29,30
 407 0 407 0 387.5 25.5 c 128,-1,31
 368 51 368 51 368 84 c 0,32,33
 368 121 368 121 385 148.5 c 128,-1,34
 402 176 402 176 440 176 c 2,35,-1
 704 176 l 1,36,-1
 704 1538 l 1,37,-1
 214 1538 l 1,38,-1
 184 1251 l 2,39,40
 180 1213 180 1213 158.5 1198.5 c 128,-1,41
 137 1184 137 1184 102 1184 c 1,42,-1
 102 1184 l 1,0,1
EndSplineSet
EndChar

StartChar: U
Encoding: 85 85 75
Width: 1852
Flags: W
LayerCount: 2
Fore
SplineSet
944 -25 m 1,0,1
 644 -25 644 -25 453 141.5 c 128,-1,2
 262 308 262 308 262 604 c 2,3,-1
 262 1538 l 1,4,-1
 111 1538 l 2,5,6
 73 1538 73 1538 56 1565.5 c 128,-1,7
 39 1593 39 1593 39 1630 c 0,8,9
 39 1663 39 1663 58.5 1688.5 c 128,-1,10
 78 1714 78 1714 113 1714 c 2,11,-1
 697 1714 l 2,12,13
 732 1714 732 1714 751 1688.5 c 128,-1,14
 770 1663 770 1663 770 1630 c 0,15,16
 770 1593 770 1593 753.5 1565.5 c 128,-1,17
 737 1538 737 1538 699 1538 c 2,18,-1
 496 1538 l 1,19,-1
 496 604 l 2,20,21
 496 391 496 391 612.5 272.5 c 128,-1,22
 729 154 729 154 944 154 c 0,23,24
 1140 154 1140 154 1257.5 280 c 128,-1,25
 1375 406 1375 406 1375 602 c 2,26,-1
 1375 1538 l 1,27,-1
 1184 1538 l 2,28,29
 1146 1538 1146 1538 1129 1565.5 c 128,-1,30
 1112 1593 1112 1593 1112 1630 c 0,31,32
 1112 1663 1112 1663 1131.5 1688.5 c 128,-1,33
 1151 1714 1151 1714 1186 1714 c 2,34,-1
 1739 1714 l 2,35,36
 1774 1714 1774 1714 1793.5 1688.5 c 128,-1,37
 1813 1663 1813 1663 1813 1630 c 0,38,39
 1813 1593 1813 1593 1796 1565.5 c 128,-1,40
 1779 1538 1779 1538 1741 1538 c 2,41,-1
 1567 1538 l 1,42,-1
 1567 602 l 2,43,44
 1567 324 1567 324 1394 149.5 c 128,-1,45
 1221 -25 1221 -25 944 -25 c 1,46,-1
 944 -25 l 1,0,1
EndSplineSet
EndChar

StartChar: V
Encoding: 86 86 76
Width: 1856
Flags: W
LayerCount: 2
Fore
SplineSet
1839 1630 m 1,0,1
 1839 1593 1839 1593 1822.5 1565.5 c 128,-1,2
 1806 1538 1806 1538 1768 1538 c 2,3,-1
 1598 1538 l 1,4,-1
 1047 29 l 1,5,6
 1030 -10 1030 -10 1011.5 -31.5 c 128,-1,7
 993 -53 993 -53 953 -53 c 0,8,9
 914 -53 914 -53 893.5 -30 c 128,-1,10
 873 -7 873 -7 860 29 c 2,11,-1
 301 1538 l 1,12,-1
 90 1538 l 2,13,14
 52 1538 52 1538 35.5 1565.5 c 128,-1,15
 19 1593 19 1593 19 1630 c 0,16,17
 19 1663 19 1663 38 1688.5 c 128,-1,18
 57 1714 57 1714 92 1714 c 2,19,-1
 707 1714 l 2,20,21
 742 1714 742 1714 761.5 1688.5 c 128,-1,22
 781 1663 781 1663 781 1630 c 0,23,24
 781 1593 781 1593 764 1565.5 c 128,-1,25
 747 1538 747 1538 709 1538 c 2,26,-1
 547 1538 l 1,27,-1
 981 332 l 1,28,-1
 1393 1538 l 1,29,-1
 1231 1538 l 2,30,31
 1193 1538 1193 1538 1176 1565.5 c 128,-1,32
 1159 1593 1159 1593 1159 1630 c 0,33,34
 1159 1663 1159 1663 1178.5 1688.5 c 128,-1,35
 1198 1714 1198 1714 1233 1714 c 2,36,-1
 1766 1714 l 2,37,38
 1801 1714 1801 1714 1820 1688.5 c 128,-1,39
 1839 1663 1839 1663 1839 1630 c 1,40,-1
 1839 1630 l 1,0,1
EndSplineSet
EndChar

StartChar: W
Encoding: 87 87 77
Width: 2314
Flags: W
LayerCount: 2
Fore
SplineSet
1655 1622 m 1,0,1
 1655 1659 1655 1659 1672 1686.5 c 128,-1,2
 1689 1714 1689 1714 1727 1714 c 2,3,-1
 2224 1714 l 2,4,5
 2262 1714 2262 1714 2279 1686.5 c 128,-1,6
 2296 1659 2296 1659 2296 1622 c 0,7,8
 2296 1589 2296 1589 2276.5 1563.5 c 128,-1,9
 2257 1538 2257 1538 2222 1538 c 2,10,-1
 2056 1538 l 1,11,-1
 1620 39 l 1,12,13
 1610 12 1610 12 1578.5 -7.5 c 128,-1,14
 1547 -27 1547 -27 1510 -27 c 0,15,16
 1472 -27 1472 -27 1444 -8.5 c 128,-1,17
 1416 10 1416 10 1411 47 c 1,18,-1
 1153 1135 l 1,19,-1
 856 39 l 1,20,21
 846 11 846 11 812.5 -8 c 128,-1,22
 779 -27 779 -27 742 -27 c 0,23,24
 700 -27 700 -27 672 -8 c 128,-1,25
 644 11 644 11 637 51 c 1,26,-1
 254 1538 l 1,27,-1
 90 1538 l 2,28,29
 55 1538 55 1538 36 1563.5 c 128,-1,30
 17 1589 17 1589 17 1622 c 0,31,32
 17 1659 17 1659 33.5 1686.5 c 128,-1,33
 50 1714 50 1714 88 1714 c 2,34,-1
 586 1714 l 2,35,36
 624 1714 624 1714 641 1686.5 c 128,-1,37
 658 1659 658 1659 658 1622 c 0,38,39
 658 1589 658 1589 638.5 1563.5 c 128,-1,40
 619 1538 619 1538 584 1538 c 2,41,-1
 490 1538 l 1,42,-1
 774 381 l 1,43,-1
 1098 1538 l 1,44,-1
 1006 1538 l 2,45,46
 971 1538 971 1538 951.5 1563.5 c 128,-1,47
 932 1589 932 1589 932 1622 c 0,48,49
 932 1659 932 1659 949 1686.5 c 128,-1,50
 966 1714 966 1714 1004 1714 c 2,51,-1
 1358 1714 l 2,52,53
 1396 1714 1396 1714 1413 1686.5 c 128,-1,54
 1430 1659 1430 1659 1430 1622 c 0,55,56
 1430 1589 1430 1589 1410.5 1563.5 c 128,-1,57
 1391 1538 1391 1538 1356 1538 c 2,58,-1
 1256 1538 l 1,59,-1
 1534 401 l 1,60,-1
 1850 1538 l 1,61,-1
 1729 1538 l 2,62,63
 1694 1538 1694 1538 1674.5 1563.5 c 128,-1,64
 1655 1589 1655 1589 1655 1622 c 1,65,-1
 1655 1622 l 1,0,1
EndSplineSet
EndChar

StartChar: X
Encoding: 88 88 78
Width: 1951
Flags: W
LayerCount: 2
Fore
SplineSet
1911 1630 m 1,0,1
 1911 1593 1911 1593 1894 1565.5 c 128,-1,2
 1877 1538 1877 1538 1839 1538 c 2,3,-1
 1673 1538 l 1,4,-1
 1120 895 l 1,5,-1
 1739 176 l 1,6,-1
 1860 176 l 2,7,8
 1898 176 1898 176 1915 148.5 c 128,-1,9
 1932 121 1932 121 1932 84 c 0,10,11
 1932 51 1932 51 1912.5 25.5 c 128,-1,12
 1893 0 1893 0 1858 0 c 2,13,-1
 1182 0 l 2,14,15
 1147 0 1147 0 1127.5 25.5 c 128,-1,16
 1108 51 1108 51 1108 84 c 0,17,18
 1108 121 1108 121 1125 148.5 c 128,-1,19
 1142 176 1142 176 1180 176 c 2,20,-1
 1458 176 l 1,21,-1
 979 731 l 1,22,-1
 502 176 l 1,23,-1
 750 176 l 2,24,25
 788 176 788 176 804.5 148.5 c 128,-1,26
 821 121 821 121 821 84 c 0,27,28
 821 51 821 51 802 25.5 c 128,-1,29
 783 0 783 0 748 0 c 2,30,-1
 92 0 l 2,31,32
 57 0 57 0 38 25.5 c 128,-1,33
 19 51 19 51 19 84 c 0,34,35
 19 121 19 121 35.5 148.5 c 128,-1,36
 52 176 52 176 90 176 c 2,37,-1
 273 176 l 1,38,-1
 864 864 l 1,39,-1
 287 1538 l 1,40,-1
 152 1538 l 2,41,42
 114 1538 114 1538 97 1565.5 c 128,-1,43
 80 1593 80 1593 80 1630 c 0,44,45
 80 1663 80 1663 99.5 1688.5 c 128,-1,46
 119 1714 119 1714 154 1714 c 2,47,-1
 748 1714 l 2,48,49
 783 1714 783 1714 802 1688.5 c 128,-1,50
 821 1663 821 1663 821 1630 c 0,51,52
 821 1593 821 1593 804.5 1565.5 c 128,-1,53
 788 1538 788 1538 750 1538 c 2,54,-1
 568 1538 l 1,55,-1
 1006 1028 l 1,56,-1
 1444 1538 l 1,57,-1
 1262 1538 l 2,58,59
 1224 1538 1224 1538 1207 1565.5 c 128,-1,60
 1190 1593 1190 1593 1190 1630 c 0,61,62
 1190 1663 1190 1663 1209.5 1688.5 c 128,-1,63
 1229 1714 1229 1714 1264 1714 c 2,64,-1
 1837 1714 l 2,65,66
 1872 1714 1872 1714 1891.5 1688.5 c 128,-1,67
 1911 1663 1911 1663 1911 1630 c 1,68,-1
 1911 1630 l 1,0,1
EndSplineSet
EndChar

StartChar: Y
Encoding: 89 89 79
Width: 1824
Flags: W
LayerCount: 2
Fore
SplineSet
1763 1630 m 1,0,1
 1763 1593 1763 1593 1746 1565.5 c 128,-1,2
 1729 1538 1729 1538 1691 1538 c 2,3,-1
 1552 1538 l 1,4,-1
 1055 723 l 1,5,-1
 1055 176 l 1,6,-1
 1278 176 l 2,7,8
 1316 176 1316 176 1332.5 148.5 c 128,-1,9
 1349 121 1349 121 1349 84 c 0,10,11
 1349 51 1349 51 1330 25.5 c 128,-1,12
 1311 0 1311 0 1276 0 c 2,13,-1
 559 0 l 2,14,15
 524 0 524 0 504.5 25.5 c 128,-1,16
 485 51 485 51 485 84 c 0,17,18
 485 121 485 121 502 148.5 c 128,-1,19
 519 176 519 176 557 176 c 2,20,-1
 821 176 l 1,21,-1
 821 739 l 1,22,-1
 346 1538 l 1,23,-1
 135 1538 l 2,24,25
 97 1538 97 1538 80 1565.5 c 128,-1,26
 63 1593 63 1593 63 1630 c 0,27,28
 63 1663 63 1663 82.5 1688.5 c 128,-1,29
 102 1714 102 1714 137 1714 c 2,30,-1
 731 1714 l 2,31,32
 766 1714 766 1714 785.5 1688.5 c 128,-1,33
 805 1663 805 1663 805 1630 c 0,34,35
 805 1593 805 1593 788 1565.5 c 128,-1,36
 771 1538 771 1538 733 1538 c 2,37,-1
 592 1538 l 1,38,-1
 977 891 l 1,39,-1
 1358 1538 l 1,40,-1
 1196 1538 l 2,41,42
 1158 1538 1158 1538 1141 1565.5 c 128,-1,43
 1124 1593 1124 1593 1124 1630 c 0,44,45
 1124 1663 1124 1663 1143.5 1688.5 c 128,-1,46
 1163 1714 1163 1714 1198 1714 c 2,47,-1
 1689 1714 l 2,48,49
 1724 1714 1724 1714 1743.5 1688.5 c 128,-1,50
 1763 1663 1763 1663 1763 1630 c 1,51,-1
 1763 1630 l 1,0,1
EndSplineSet
EndChar

StartChar: Z
Encoding: 90 90 80
Width: 1646
Flags: W
LayerCount: 2
Fore
SplineSet
151 1239 m 1,0,-1
 150 1634 l 1,1,2
 151 1665 151 1665 173 1689.5 c 128,-1,3
 195 1714 195 1714 253 1714 c 2,4,-1
 1383 1714 l 2,5,6
 1418 1714 1418 1714 1437.5 1688.5 c 128,-1,7
 1457 1663 1457 1663 1457 1630 c 0,8,9
 1457 1610 1457 1610 1453.5 1592.5 c 128,-1,10
 1450 1575 1450 1575 1441 1565 c 1,11,-1
 378 176 l 1,12,-1
 1314 176 l 1,13,-1
 1390 547 l 1,14,15
 1400 580 1400 580 1427.5 601.5 c 128,-1,16
 1455 623 1455 623 1492 623 c 0,17,18
 1523 623 1523 623 1544.5 603 c 128,-1,19
 1566 583 1566 583 1566 549 c 0,20,21
 1566 539 1566 539 1564.5 529 c 128,-1,22
 1563 519 1563 519 1560 510 c 1,23,-1
 1517 78 l 1,24,25
 1507 42 1507 42 1488.5 21 c 128,-1,26
 1470 0 1470 0 1435 0 c 2,27,-1
 155 0 l 2,28,29
 123 0 123 0 101 32.5 c 128,-1,30
 79 65 79 65 79 102 c 0,31,32
 79 128 79 128 90.5 156.5 c 128,-1,33
 102 185 102 185 124 213 c 2,34,-1
 1142 1538 l 1,35,-1
 345 1538 l 1,36,-1
 306 1241 l 1,37,38
 296 1212 296 1212 275.5 1188.5 c 128,-1,39
 255 1165 255 1165 224 1165 c 256,40,41
 193 1165 193 1165 172 1186 c 128,-1,42
 151 1207 151 1207 151 1239 c 1,43,-1
 151 1239 l 1,0,-1
EndSplineSet
EndChar

StartChar: bracketleft
Encoding: 91 91 81
Width: 908
Flags: W
LayerCount: 2
Fore
SplineSet
275 -518 m 2,0,1
 234 -518 234 -518 203.5 -490 c 128,-1,2
 173 -462 173 -462 173 -420 c 1,3,-1
 213 778 l 1,4,-1
 173 1976 l 1,5,6
 173 2016 173 2016 204 2045.5 c 128,-1,7
 235 2075 235 2075 275 2075 c 2,8,-1
 675 2075 l 2,9,10
 715 2075 715 2075 746 2043.5 c 128,-1,11
 777 2012 777 2012 777 1972 c 0,12,13
 777 1930 777 1930 746.5 1900 c 128,-1,14
 716 1870 716 1870 675 1870 c 2,15,-1
 394 1870 l 1,16,-1
 394 -313 l 1,17,-1
 675 -313 l 2,18,19
 716 -313 716 -313 746.5 -343.5 c 128,-1,20
 777 -374 777 -374 777 -416 c 0,21,22
 777 -456 777 -456 746 -487 c 128,-1,23
 715 -518 715 -518 675 -518 c 2,24,-1
 275 -518 l 2,0,1
EndSplineSet
EndChar

StartChar: backslash
Encoding: 92 92 82
Width: 1176
Flags: W
LayerCount: 2
Fore
SplineSet
-129 1804 m 1,0,1
 -129 1841 -129 1841 -95 1865.5 c 128,-1,2
 -61 1890 -61 1890 -26 1890 c 0,3,4
 -6 1890 -6 1890 9.5 1880 c 128,-1,5
 25 1870 25 1870 35 1851 c 2,6,-1
 1143 -463 l 2,7,8
 1147 -470 1147 -470 1149 -478 c 128,-1,9
 1151 -486 1151 -486 1151 -494 c 0,10,11
 1151 -530 1151 -530 1116.5 -555 c 128,-1,12
 1082 -580 1082 -580 1047 -580 c 0,13,14
 1021 -580 1021 -580 1005.5 -567 c 128,-1,15
 990 -554 990 -554 979 -532 c 2,16,-1
 -123 1776 l 2,17,18
 -126 1783 -126 1783 -127.5 1790 c 128,-1,19
 -129 1797 -129 1797 -129 1804 c 1,20,-1
 -129 1804 l 1,0,1
EndSplineSet
EndChar

StartChar: bracketright
Encoding: 93 93 83
Width: 878
Flags: W
LayerCount: 2
Fore
SplineSet
635 -518 m 1,0,-1
 235 -518 l 2,1,2
 195 -518 195 -518 164 -487 c 128,-1,3
 133 -456 133 -456 133 -416 c 0,4,5
 133 -374 133 -374 163.5 -343.5 c 128,-1,6
 194 -313 194 -313 235 -313 c 2,7,-1
 516 -313 l 1,8,-1
 516 1870 l 1,9,-1
 235 1870 l 2,10,11
 194 1870 194 1870 163.5 1900 c 128,-1,12
 133 1930 133 1930 133 1972 c 0,13,14
 133 2012 133 2012 164 2043.5 c 128,-1,15
 195 2075 195 2075 235 2075 c 2,16,-1
 635 2075 l 2,17,18
 675 2075 675 2075 706 2045.5 c 128,-1,19
 737 2016 737 2016 737 1976 c 1,20,-1
 697 778 l 1,21,-1
 737 -420 l 1,22,23
 737 -462 737 -462 706.5 -490 c 128,-1,24
 676 -518 676 -518 635 -518 c 1,25,-1
 635 -518 l 1,0,-1
EndSplineSet
EndChar

StartChar: asciicircum
Encoding: 94 94 84
Width: 1301
Flags: W
LayerCount: 2
Fore
SplineSet
1124 639 m 1,0,1
 1124 611 1124 611 1102.5 592 c 128,-1,2
 1081 573 1081 573 1054 573 c 0,3,4
 1031 573 1031 573 1014 586.5 c 128,-1,5
 997 600 997 600 989 618 c 2,6,-1
 690 1257 l 1,7,-1
 364 623 l 1,8,9
 351 601 351 601 330.5 584 c 128,-1,10
 310 567 310 567 280 567 c 0,11,12
 243 567 243 567 213.5 593 c 128,-1,13
 184 619 184 619 184 657 c 0,14,15
 184 665 184 665 186.5 675.5 c 128,-1,16
 189 686 189 686 194 698 c 2,17,-1
 546 1411 l 2,18,19
 565 1448 565 1448 591.5 1479.5 c 128,-1,20
 618 1511 618 1511 661 1511 c 0,21,22
 701 1511 701 1511 726.5 1480.5 c 128,-1,23
 752 1450 752 1450 767 1419 c 2,24,-1
 1116 674 l 2,25,26
 1120 666 1120 666 1122 657 c 128,-1,27
 1124 648 1124 648 1124 639 c 1,28,-1
 1124 639 l 1,0,1
EndSplineSet
EndChar

StartChar: underscore
Encoding: 95 95 85
Width: 1237
Flags: W
LayerCount: 2
Fore
SplineSet
1072 213 m 2,0,1
 1115 213 1115 213 1146.5 181.5 c 128,-1,2
 1178 150 1178 150 1178 107 c 0,3,4
 1178 63 1178 63 1146.5 32 c 128,-1,5
 1115 1 1115 1 1072 1 c 2,6,-1
 165 1 l 2,7,8
 121 1 121 1 90 32 c 128,-1,9
 59 63 59 63 59 107 c 0,10,11
 59 150 59 150 90 181.5 c 128,-1,12
 121 213 121 213 165 213 c 2,13,-1
 1072 213 l 2,0,1
EndSplineSet
EndChar

StartChar: grave
Encoding: 96 96 86
Width: 633
Flags: W
LayerCount: 2
Fore
SplineSet
601 1479 m 1,0,1
 601 1460 601 1460 586 1443.5 c 128,-1,2
 571 1427 571 1427 552 1427 c 0,3,4
 547 1427 547 1427 542.5 1429 c 128,-1,5
 538 1431 538 1431 534 1434 c 0,6,7
 413 1503 413 1503 283 1585.5 c 128,-1,8
 153 1668 153 1668 36 1741 c 0,9,10
 23 1750 23 1750 16 1761.5 c 128,-1,11
 9 1773 9 1773 9 1786 c 0,12,13
 9 1817 9 1817 35.5 1843.5 c 128,-1,14
 62 1870 62 1870 93 1870 c 0,15,16
 105 1870 105 1870 115.5 1866 c 128,-1,17
 126 1862 126 1862 134 1855 c 0,18,19
 235 1768 235 1768 354 1676 c 128,-1,20
 473 1584 473 1584 585 1509 c 0,21,22
 593 1504 593 1504 597 1496.5 c 128,-1,23
 601 1489 601 1489 601 1479 c 1,24,-1
 601 1479 l 1,0,1
EndSplineSet
EndChar

StartChar: a
Encoding: 97 97 87
Width: 1328
Flags: W
LayerCount: 2
Fore
SplineSet
1343 168 m 1,0,1
 1343 88 1343 88 1237 31.5 c 128,-1,2
 1131 -25 1131 -25 1063 -25 c 0,3,4
 981 -25 981 -25 931 15 c 128,-1,5
 881 55 881 55 863 137 c 1,6,7
 790 53 790 53 672 12.5 c 128,-1,8
 554 -28 554 -28 420 -28 c 0,9,10
 267 -28 267 -28 164.5 65 c 128,-1,11
 62 158 62 158 62 307 c 0,12,13
 62 575 62 575 324 635 c 128,-1,14
 586 695 586 695 836 717 c 1,15,-1
 836 879 l 2,16,17
 836 957 836 957 769 987.5 c 128,-1,18
 702 1018 702 1018 625 1018 c 0,19,20
 485 1018 485 1018 412.5 988 c 128,-1,21
 340 958 340 958 244 897 c 0,22,23
 235 892 235 892 226.5 889 c 128,-1,24
 218 886 218 886 209 886 c 0,25,26
 175 886 175 886 148 918 c 128,-1,27
 121 950 121 950 121 985 c 0,28,29
 121 1105 121 1105 296.5 1146.5 c 128,-1,30
 472 1188 472 1188 596 1188 c 0,31,32
 849 1188 849 1188 942 1080.5 c 128,-1,33
 1035 973 1035 973 1035 723 c 2,34,-1
 1035 219 l 2,35,36
 1035 188 1035 188 1045.5 167.5 c 128,-1,37
 1056 147 1056 147 1079 147 c 0,38,39
 1124 147 1124 147 1180 201 c 128,-1,40
 1236 255 1236 255 1272 255 c 0,41,42
 1294 255 1294 255 1318.5 225.5 c 128,-1,43
 1343 196 1343 196 1343 168 c 1,44,-1
 1343 168 l 1,0,1
836 567 m 1,45,46
 678 550 678 550 477.5 515.5 c 128,-1,47
 277 481 277 481 277 313 c 0,48,49
 277 228 277 228 340 186.5 c 128,-1,50
 403 145 403 145 490 145 c 0,51,52
 594 145 594 145 680.5 183.5 c 128,-1,53
 767 222 767 222 836 276 c 1,54,-1
 836 567 l 1,45,46
EndSplineSet
EndChar

StartChar: b
Encoding: 98 98 88
Width: 1417
Flags: W
LayerCount: 2
Fore
SplineSet
1126 582 m 1,0,1
 1126 755 1126 755 1040.5 886.5 c 128,-1,2
 955 1018 955 1018 786 1018 c 0,3,4
 665 1018 665 1018 577.5 981 c 128,-1,5
 490 944 490 944 430 881 c 1,6,-1
 430 324 l 1,7,8
 483 247 483 247 568.5 196 c 128,-1,9
 654 145 654 145 776 145 c 0,10,11
 950 145 950 145 1038 276 c 128,-1,12
 1126 407 1126 407 1126 582 c 1,13,-1
 1126 582 l 1,0,1
1347 582 m 1,14,15
 1347 317 1347 317 1199 146 c 128,-1,16
 1051 -25 1051 -25 790 -25 c 0,17,18
 667 -25 667 -25 569.5 27 c 128,-1,19
 472 79 472 79 409 150 c 1,20,21
 409 89 409 89 389.5 40.5 c 128,-1,22
 370 -8 370 -8 313 -8 c 0,23,24
 262 -8 262 -8 243.5 30 c 128,-1,25
 225 68 225 68 225 117 c 2,26,-1
 225 1524 l 1,27,-1
 -11 1462 l 1,28,29
 -15 1462 -15 1462 -16 1461 c 128,-1,30
 -17 1460 -17 1460 -21 1460 c 0,31,32
 -52 1460 -52 1460 -76.5 1487.5 c 128,-1,33
 -101 1515 -101 1515 -101 1546 c 0,34,35
 -101 1589 -101 1589 -78.5 1602.5 c 128,-1,36
 -56 1616 -56 1616 -23 1626 c 2,37,-1
 362 1737 l 2,38,39
 364 1738 364 1738 367.5 1738.5 c 128,-1,40
 371 1739 371 1739 376 1739 c 0,41,42
 397 1739 397 1739 413.5 1725.5 c 128,-1,43
 430 1712 430 1712 430 1690 c 2,44,-1
 430 1035 l 1,45,46
 501 1104 501 1104 586 1146 c 128,-1,47
 671 1188 671 1188 794 1188 c 0,48,49
 1048 1188 1048 1188 1197.5 1014.5 c 128,-1,50
 1347 841 1347 841 1347 582 c 1,51,-1
 1347 582 l 1,14,15
EndSplineSet
EndChar

StartChar: c
Encoding: 99 99 89
Width: 1251
Flags: W
LayerCount: 2
Fore
SplineSet
738 1188 m 1,0,1
 889 1188 889 1188 1028.5 1126.5 c 128,-1,2
 1168 1065 1168 1065 1168 878 c 0,3,4
 1168 819 1168 819 1145 778.5 c 128,-1,5
 1122 738 1122 738 1071 738 c 0,6,7
 996 738 996 738 975 825.5 c 128,-1,8
 954 913 954 913 935 993 c 1,9,10
 886 1006 886 1006 838.5 1012 c 128,-1,11
 791 1018 791 1018 745 1018 c 0,12,13
 552 1018 552 1018 422 905.5 c 128,-1,14
 292 793 292 793 292 596 c 0,15,16
 292 383 292 383 419.5 278.5 c 128,-1,17
 547 174 547 174 710 174 c 0,18,19
 795 174 795 174 881 206.5 c 128,-1,20
 967 239 967 239 1038 302 c 0,21,22
 1052 314 1052 314 1068 321 c 128,-1,23
 1084 328 1084 328 1101 328 c 0,24,25
 1142 328 1142 328 1169.5 307.5 c 128,-1,26
 1197 287 1197 287 1197 250 c 0,27,28
 1197 122 1197 122 1025 48.5 c 128,-1,29
 853 -25 853 -25 722 -25 c 0,30,31
 435 -25 435 -25 252.5 140.5 c 128,-1,32
 70 306 70 306 70 596 c 0,33,34
 70 880 70 880 269.5 1034 c 128,-1,35
 469 1188 469 1188 738 1188 c 1,36,-1
 738 1188 l 1,0,1
EndSplineSet
EndChar

StartChar: d
Encoding: 100 100 90
Width: 1497
Flags: W
LayerCount: 2
Fore
SplineSet
292 582 m 1,0,1
 292 408 292 408 380.5 276.5 c 128,-1,2
 469 145 469 145 642 145 c 0,3,4
 761 145 761 145 848 197 c 128,-1,5
 935 249 935 249 988 324 c 1,6,-1
 988 881 l 1,7,8
 925 945 925 945 836.5 981.5 c 128,-1,9
 748 1018 748 1018 632 1018 c 0,10,11
 463 1018 463 1018 377.5 884.5 c 128,-1,12
 292 751 292 751 292 582 c 1,13,-1
 292 582 l 1,0,1
70 582 m 1,14,15
 70 837 70 837 219.5 1012.5 c 128,-1,16
 369 1188 369 1188 623 1188 c 0,17,18
 742 1188 742 1188 829 1150 c 128,-1,19
 916 1112 916 1112 988 1055 c 1,20,-1
 988 1524 l 1,21,-1
 752 1462 l 1,22,23
 748 1462 748 1462 747 1461 c 128,-1,24
 746 1460 746 1460 742 1460 c 0,25,26
 711 1460 711 1460 686.5 1487.5 c 128,-1,27
 662 1515 662 1515 662 1546 c 0,28,29
 662 1589 662 1589 684.5 1602.5 c 128,-1,30
 707 1616 707 1616 740 1626 c 2,31,-1
 1125 1737 l 2,32,33
 1127 1738 1127 1738 1131 1738.5 c 128,-1,34
 1135 1739 1135 1739 1140 1739 c 0,35,36
 1161 1739 1161 1739 1177 1725.5 c 128,-1,37
 1193 1712 1193 1712 1193 1690 c 2,38,-1
 1193 176 l 1,39,-1
 1338 197 l 2,40,41
 1343 198 1343 198 1350 198.5 c 128,-1,42
 1357 199 1357 199 1365 199 c 0,43,44
 1405 199 1405 199 1429 179.5 c 128,-1,45
 1453 160 1453 160 1453 125 c 0,46,47
 1453 44 1453 44 1365.5 31.5 c 128,-1,48
 1278 19 1278 19 1213 12 c 1,49,50
 1174 6 1174 6 1125.5 -2 c 128,-1,51
 1077 -10 1077 -10 1045 -10 c 0,52,53
 1010 -10 1010 -10 999 17 c 128,-1,54
 988 44 988 44 988 78 c 2,55,-1
 988 150 l 1,56,57
 931 81 931 81 838 28 c 128,-1,58
 745 -25 745 -25 628 -25 c 0,59,60
 365 -25 365 -25 217.5 147.5 c 128,-1,61
 70 320 70 320 70 582 c 1,62,-1
 70 582 l 1,14,15
EndSplineSet
EndChar

StartChar: e
Encoding: 101 101 91
Width: 1304
Flags: W
LayerCount: 2
Fore
SplineSet
283 559 m 1,0,1
 283 363 283 363 405.5 260.5 c 128,-1,2
 528 158 528 158 707 158 c 0,3,4
 834 158 834 158 906.5 205.5 c 128,-1,5
 979 253 979 253 1045 314 c 0,6,7
 1060 327 1060 327 1077 333.5 c 128,-1,8
 1094 340 1094 340 1111 340 c 0,9,10
 1151 340 1151 340 1179 315.5 c 128,-1,11
 1207 291 1207 291 1207 250 c 0,12,13
 1207 122 1207 122 1021.5 48.5 c 128,-1,14
 836 -25 836 -25 699 -25 c 0,15,16
 425 -25 425 -25 247.5 137.5 c 128,-1,17
 70 300 70 300 70 575 c 0,18,19
 70 847 70 847 233 1017.5 c 128,-1,20
 396 1188 396 1188 675 1188 c 0,21,22
 875 1188 875 1188 1040 1049.5 c 128,-1,23
 1205 911 1205 911 1205 692 c 0,24,25
 1205 617 1205 617 1158.5 602 c 128,-1,26
 1112 587 1112 587 1041 580 c 1,27,-1
 283 559 l 1,0,1
954 756 m 1,28,29
 954 899 954 899 866.5 958.5 c 128,-1,30
 779 1018 779 1018 675 1018 c 0,31,32
 499 1018 499 1018 395.5 931 c 128,-1,33
 292 844 292 844 279 700 c 1,34,-1
 880 713 l 2,35,36
 908 714 908 714 931 723.5 c 128,-1,37
 954 733 954 733 954 756 c 1,38,-1
 954 756 l 1,28,29
EndSplineSet
EndChar

StartChar: f
Encoding: 102 102 92
Width: 1042
Flags: W
LayerCount: 2
Fore
SplineSet
926 1411 m 1,0,1
 889 1411 889 1411 862 1429.5 c 128,-1,2
 835 1448 835 1448 835 1487 c 2,3,-1
 835 1556 l 1,4,5
 676 1542 676 1542 619 1468 c 128,-1,6
 562 1394 562 1394 562 1231 c 0,7,8
 562 1221 562 1221 562.5 1211 c 128,-1,9
 563 1201 563 1201 563 1191 c 2,10,-1
 565 1122 l 1,11,-1
 784 1122 l 2,12,13
 822 1122 822 1122 839 1094.5 c 128,-1,14
 856 1067 856 1067 856 1030 c 0,15,16
 856 997 856 997 836.5 971.5 c 128,-1,17
 817 946 817 946 782 946 c 2,18,-1
 563 946 l 1,19,-1
 565 176 l 1,20,-1
 817 176 l 2,21,22
 855 176 855 176 872 148.5 c 128,-1,23
 889 121 889 121 889 84 c 0,24,25
 889 51 889 51 869.5 25.5 c 128,-1,26
 850 0 850 0 815 0 c 2,27,-1
 145 0 l 2,28,29
 103 0 103 0 83 24 c 128,-1,30
 63 48 63 48 63 86 c 0,31,32
 63 123 63 123 81.5 149.5 c 128,-1,33
 100 176 100 176 139 176 c 2,34,-1
 360 176 l 1,35,-1
 360 946 l 1,36,-1
 182 946 l 2,37,38
 140 946 140 946 120 970 c 128,-1,39
 100 994 100 994 100 1032 c 0,40,41
 100 1069 100 1069 118.5 1095.5 c 128,-1,42
 137 1122 137 1122 176 1122 c 2,43,-1
 360 1122 l 1,44,-1
 360 1227 l 2,45,46
 360 1490 360 1490 510 1614.5 c 128,-1,47
 660 1739 660 1739 928 1739 c 0,48,49
 961 1739 961 1739 986.5 1719.5 c 128,-1,50
 1012 1700 1012 1700 1012 1665 c 2,51,-1
 1012 1493 l 2,52,53
 1012 1451 1012 1451 988 1431 c 128,-1,54
 964 1411 964 1411 926 1411 c 1,55,-1
 926 1411 l 1,0,1
EndSplineSet
EndChar

StartChar: g
Encoding: 103 103 93
Width: 1371
Flags: W
LayerCount: 2
Fore
SplineSet
96 776 m 1,0,1
 96 972 96 972 245 1080 c 128,-1,2
 394 1188 394 1188 596 1188 c 0,3,4
 711 1188 711 1188 804.5 1157.5 c 128,-1,5
 898 1127 898 1127 964 1075 c 1,6,-1
 1100 1208 l 2,7,8
 1145 1253 1145 1253 1193.5 1264.5 c 128,-1,9
 1242 1276 1242 1276 1282 1276 c 0,10,11
 1330 1276 1330 1276 1368.5 1257 c 128,-1,12
 1407 1238 1407 1238 1407 1188 c 0,13,14
 1407 1153 1407 1153 1364.5 1122.5 c 128,-1,15
 1322 1092 1322 1092 1221 1092 c 2,16,-1
 1220 1092 l 1,17,-1
 1048 983 l 1,18,19
 1073 934 1073 934 1095.5 870 c 128,-1,20
 1118 806 1118 806 1118 737 c 0,21,22
 1118 542 1118 542 964.5 444.5 c 128,-1,23
 811 347 811 347 596 347 c 0,24,25
 577 347 577 347 552.5 348 c 128,-1,26
 528 349 528 349 503 349 c 0,27,28
 438 349 438 349 380.5 332 c 128,-1,29
 323 315 323 315 323 250 c 0,30,31
 323 199 323 199 385 186 c 128,-1,32
 447 173 447 173 516 173 c 0,33,34
 541 173 541 173 565 173.5 c 128,-1,35
 589 174 589 174 608 174 c 0,36,37
 850 174 850 174 1029.5 118.5 c 128,-1,38
 1209 63 1209 63 1209 -184 c 0,39,40
 1209 -409 1209 -409 1016 -456.5 c 128,-1,41
 823 -504 823 -504 592 -504 c 0,42,43
 417 -504 417 -504 258.5 -432 c 128,-1,44
 100 -360 100 -360 100 -186 c 0,45,46
 100 -76 100 -76 144 -12 c 128,-1,47
 188 52 188 52 266 88 c 1,48,49
 222 110 222 110 180.5 152 c 128,-1,50
 139 194 139 194 139 262 c 0,51,52
 139 346 139 346 183.5 388 c 128,-1,53
 228 430 228 430 299 448 c 1,54,55
 210 507 210 507 153 577.5 c 128,-1,56
 96 648 96 648 96 776 c 1,57,-1
 96 776 l 1,0,1
364 30 m 1,58,59
 333 -1 333 -1 300.5 -44 c 128,-1,60
 268 -87 268 -87 268 -150 c 0,61,62
 268 -253 268 -253 367 -294.5 c 128,-1,63
 466 -336 466 -336 588 -336 c 0,64,65
 745 -336 745 -336 879.5 -312.5 c 128,-1,66
 1014 -289 1014 -289 1014 -164 c 0,67,68
 1014 -54 1014 -54 916 -26.5 c 128,-1,69
 818 1 818 1 700 1 c 0,70,71
 669 1 669 1 643.5 0.5 c 128,-1,72
 618 0 618 0 596 0 c 0,73,74
 550 0 550 0 500.5 5.5 c 128,-1,75
 451 11 451 11 364 30 c 1,76,-1
 364 30 l 1,58,59
610 1051 m 1,77,78
 473 1051 473 1051 388 974.5 c 128,-1,79
 303 898 303 898 303 752 c 0,80,81
 303 619 303 619 387.5 553 c 128,-1,82
 472 487 472 487 602 487 c 0,83,84
 734 487 734 487 816.5 547 c 128,-1,85
 899 607 899 607 899 757 c 0,86,87
 899 897 899 897 825 974 c 128,-1,88
 751 1051 751 1051 610 1051 c 1,89,-1
 610 1051 l 1,77,78
EndSplineSet
EndChar

StartChar: h
Encoding: 104 104 94
Width: 1544
Flags: W
LayerCount: 2
Fore
SplineSet
841 1018 m 1,0,1
 727 1018 727 1018 638.5 949.5 c 128,-1,2
 550 881 550 881 499 799 c 1,3,-1
 499 176 l 1,4,-1
 663 176 l 2,5,6
 702 176 702 176 713 149.5 c 128,-1,7
 724 123 724 123 724 86 c 0,8,9
 724 56 724 56 708 28 c 128,-1,10
 692 0 692 0 661 0 c 2,11,-1
 172 0 l 2,12,13
 129 0 129 0 112.5 22.5 c 128,-1,14
 96 45 96 45 96 84 c 0,15,16
 96 121 96 121 111 148.5 c 128,-1,17
 126 176 126 176 165 176 c 2,18,-1
 294 176 l 1,19,-1
 294 1524 l 1,20,-1
 59 1462 l 1,21,22
 55 1462 55 1462 54 1461 c 128,-1,23
 53 1460 53 1460 49 1460 c 0,24,25
 18 1460 18 1460 -6.5 1487.5 c 128,-1,26
 -31 1515 -31 1515 -31 1546 c 0,27,28
 -31 1589 -31 1589 -8.5 1602.5 c 128,-1,29
 14 1616 14 1616 47 1626 c 2,30,-1
 432 1737 l 2,31,32
 434 1738 434 1738 437.5 1738.5 c 128,-1,33
 441 1739 441 1739 446 1739 c 0,34,35
 467 1739 467 1739 483 1725.5 c 128,-1,36
 499 1712 499 1712 499 1690 c 2,37,-1
 499 1004 l 1,38,39
 557 1073 557 1073 656 1130.5 c 128,-1,40
 755 1188 755 1188 878 1188 c 0,41,42
 1065 1188 1065 1188 1175.5 1078 c 128,-1,43
 1286 968 1286 968 1286 780 c 2,44,-1
 1286 176 l 1,45,-1
 1449 176 l 2,46,47
 1488 176 1488 176 1499.5 149.5 c 128,-1,48
 1511 123 1511 123 1511 86 c 0,49,50
 1511 56 1511 56 1494.5 28 c 128,-1,51
 1478 0 1478 0 1447 0 c 2,52,-1
 958 0 l 2,53,54
 915 0 915 0 898.5 22.5 c 128,-1,55
 882 45 882 45 882 84 c 0,56,57
 882 121 882 121 897.5 148.5 c 128,-1,58
 913 176 913 176 952 176 c 2,59,-1
 1083 176 l 1,60,-1
 1083 762 l 2,61,62
 1083 881 1083 881 1022.5 949.5 c 128,-1,63
 962 1018 962 1018 841 1018 c 1,64,-1
 841 1018 l 1,0,1
EndSplineSet
EndChar

StartChar: i
Encoding: 105 105 95
Width: 788
Flags: W
LayerCount: 2
Fore
SplineSet
410 1427 m 1,0,1
 347 1427 347 1427 302.5 1471.5 c 128,-1,2
 258 1516 258 1516 258 1579 c 256,3,4
 258 1642 258 1642 302.5 1686.5 c 128,-1,5
 347 1731 347 1731 410 1731 c 256,6,7
 473 1731 473 1731 517 1686.5 c 128,-1,8
 561 1642 561 1642 561 1579 c 256,9,10
 561 1516 561 1516 517 1471.5 c 128,-1,11
 473 1427 473 1427 410 1427 c 1,12,-1
 410 1427 l 1,0,1
102 83 m 1,13,14
 102 120 102 120 120.5 146.5 c 128,-1,15
 139 173 139 173 178 173 c 2,16,-1
 315 173 l 1,17,-1
 315 983 l 1,18,-1
 172 944 l 2,19,20
 170 943 170 943 166.5 942.5 c 128,-1,21
 163 942 163 942 158 942 c 0,22,23
 128 942 128 942 102 966.5 c 128,-1,24
 76 991 76 991 76 1022 c 0,25,26
 76 1054 76 1054 90.5 1076.5 c 128,-1,27
 105 1099 105 1099 133 1106 c 2,28,-1
 453 1186 l 2,29,30
 456 1187 456 1187 460 1187.5 c 128,-1,31
 464 1188 464 1188 469 1188 c 0,32,33
 491 1188 491 1188 505.5 1175.5 c 128,-1,34
 520 1163 520 1163 520 1141 c 2,35,-1
 520 173 l 1,36,-1
 674 173 l 2,37,38
 712 173 712 173 729 145.5 c 128,-1,39
 746 118 746 118 746 81 c 0,40,41
 746 48 746 48 726.5 24 c 128,-1,42
 707 0 707 0 672 0 c 2,43,-1
 184 0 l 2,44,45
 142 0 142 0 122 22.5 c 128,-1,46
 102 45 102 45 102 83 c 1,47,-1
 102 83 l 1,13,14
EndSplineSet
EndChar

StartChar: j
Encoding: 106 106 96
Width: 809
Flags: W
LayerCount: 2
Fore
SplineSet
214 -323 m 1,0,1
 351 -323 351 -323 398 -194 c 128,-1,2
 445 -65 445 -65 445 115 c 2,3,-1
 445 983 l 1,4,-1
 301 944 l 2,5,6
 299 943 299 943 295.5 942.5 c 128,-1,7
 292 942 292 942 287 942 c 0,8,9
 257 942 257 942 231 966.5 c 128,-1,10
 205 991 205 991 205 1022 c 0,11,12
 205 1054 205 1054 219.5 1076.5 c 128,-1,13
 234 1099 234 1099 262 1106 c 2,14,-1
 582 1186 l 2,15,16
 585 1187 585 1187 589 1187.5 c 128,-1,17
 593 1188 593 1188 598 1188 c 0,18,19
 620 1188 620 1188 635 1177 c 128,-1,20
 650 1166 650 1166 650 1143 c 2,21,-1
 650 115 l 2,22,23
 650 -113 650 -113 560.5 -304.5 c 128,-1,24
 471 -496 471 -496 203 -496 c 0,25,26
 87 -496 87 -496 6 -441.5 c 128,-1,27
 -75 -387 -75 -387 -75 -243 c 0,28,29
 -75 -184 -75 -184 -56 -152 c 128,-1,30
 -37 -120 -37 -120 23 -120 c 0,31,32
 65 -120 65 -120 89 -146.5 c 128,-1,33
 113 -173 113 -173 113 -220 c 1,34,35
 126 -267 126 -267 123.5 -295 c 128,-1,36
 121 -323 121 -323 214 -323 c 1,37,-1
 214 -323 l 1,0,1
346 1579 m 1,38,39
 346 1636 346 1636 381 1685.5 c 128,-1,40
 416 1735 416 1735 473 1735 c 0,41,42
 538 1735 538 1735 585.5 1696.5 c 128,-1,43
 633 1658 633 1658 633 1593 c 0,44,45
 633 1529 633 1529 593 1489.5 c 128,-1,46
 553 1450 553 1450 490 1450 c 0,47,48
 433 1450 433 1450 389.5 1486 c 128,-1,49
 346 1522 346 1522 346 1579 c 1,50,-1
 346 1579 l 1,38,39
EndSplineSet
EndChar

StartChar: k
Encoding: 107 107 97
Width: 1492
Flags: W
LayerCount: 2
Fore
SplineSet
446 1739 m 1,0,1
 467 1739 467 1739 483 1725.5 c 128,-1,2
 499 1712 499 1712 499 1690 c 2,3,-1
 499 620 l 1,4,5
 615 698 615 698 742 785 c 128,-1,6
 869 872 869 872 982 946 c 1,7,8
 984 946 984 946 938 946 c 128,-1,9
 892 946 892 946 876 946 c 0,10,11
 837 946 837 946 818.5 972.5 c 128,-1,12
 800 999 800 999 800 1036 c 0,13,14
 800 1074 800 1074 820 1098 c 128,-1,15
 840 1122 840 1122 882 1122 c 2,16,-1
 1345 1122 l 2,17,18
 1380 1122 1380 1122 1399.5 1111.5 c 128,-1,19
 1419 1101 1419 1101 1419 1068 c 0,20,21
 1419 1031 1419 1031 1402 988.5 c 128,-1,22
 1385 946 1385 946 1347 946 c 2,23,-1
 1236 946 l 2,24,25
 1196 946 1196 946 1166.5 924 c 128,-1,26
 1137 902 1137 902 1111 883 c 2,27,-1
 821 664 l 1,28,-1
 1111 291 l 1,29,30
 1165 216 1165 216 1216 202 c 128,-1,31
 1267 188 1267 188 1363 188 c 2,32,-1
 1378 188 l 2,33,34
 1444 188 1444 188 1469 170.5 c 128,-1,35
 1494 153 1494 153 1494 96 c 0,36,37
 1494 37 1494 37 1458 18.5 c 128,-1,38
 1422 0 1422 0 1355 0 c 2,39,-1
 919 0 l 2,40,41
 881 0 881 0 862 26.5 c 128,-1,42
 843 53 843 53 843 90 c 0,43,44
 843 128 843 128 862.5 152 c 128,-1,45
 882 176 882 176 925 176 c 2,46,-1
 984 176 l 1,47,-1
 683 579 l 1,48,-1
 499 467 l 1,49,-1
 499 176 l 1,50,-1
 651 176 l 2,51,52
 689 176 689 176 705.5 148.5 c 128,-1,53
 722 121 722 121 722 84 c 0,54,55
 722 51 722 51 703 25.5 c 128,-1,56
 684 0 684 0 649 0 c 2,57,-1
 145 0 l 2,58,59
 103 0 103 0 83 24 c 128,-1,60
 63 48 63 48 63 86 c 0,61,62
 63 123 63 123 81.5 149.5 c 128,-1,63
 100 176 100 176 139 176 c 2,64,-1
 294 176 l 1,65,-1
 294 1524 l 1,66,-1
 59 1462 l 1,67,68
 55 1462 55 1462 53.5 1461 c 128,-1,69
 52 1460 52 1460 48 1460 c 0,70,71
 17 1460 17 1460 -7 1487.5 c 128,-1,72
 -31 1515 -31 1515 -31 1546 c 0,73,74
 -31 1589 -31 1589 -9 1602.5 c 128,-1,75
 13 1616 13 1616 46 1626 c 2,76,-1
 431 1737 l 2,77,78
 433 1738 433 1738 437 1738.5 c 128,-1,79
 441 1739 441 1739 446 1739 c 1,80,-1
 446 1739 l 1,0,1
EndSplineSet
EndChar

StartChar: l
Encoding: 108 108 98
Width: 914
Flags: W
LayerCount: 2
Fore
SplineSet
517 1735 m 1,0,1
 538 1735 538 1735 554 1721.5 c 128,-1,2
 570 1708 570 1708 570 1686 c 2,3,-1
 570 176 l 1,4,-1
 814 176 l 2,5,6
 852 176 852 176 869 148.5 c 128,-1,7
 886 121 886 121 886 84 c 0,8,9
 886 51 886 51 866.5 25.5 c 128,-1,10
 847 0 847 0 812 0 c 2,11,-1
 144 0 l 2,12,13
 102 0 102 0 82 24 c 128,-1,14
 62 48 62 48 62 86 c 0,15,16
 62 123 62 123 80.5 149.5 c 128,-1,17
 99 176 99 176 138 176 c 2,18,-1
 365 176 l 1,19,-1
 365 1520 l 1,20,-1
 130 1458 l 1,21,22
 126 1458 126 1458 125 1457 c 128,-1,23
 124 1456 124 1456 120 1456 c 0,24,25
 89 1456 89 1456 64.5 1483.5 c 128,-1,26
 40 1511 40 1511 40 1542 c 0,27,28
 40 1585 40 1585 62.5 1598.5 c 128,-1,29
 85 1612 85 1612 118 1622 c 2,30,-1
 503 1733 l 2,31,32
 505 1734 505 1734 508.5 1734.5 c 128,-1,33
 512 1735 512 1735 517 1735 c 1,34,-1
 517 1735 l 1,0,1
EndSplineSet
EndChar

StartChar: m
Encoding: 109 109 99
Width: 2532
Flags: W
LayerCount: 2
Fore
SplineSet
1854 1188 m 1,0,1
 2038 1188 2038 1188 2160 1077 c 128,-1,2
 2282 966 2282 966 2282 780 c 2,3,-1
 2282 176 l 1,4,-1
 2428 176 l 2,5,6
 2466 176 2466 176 2482.5 148.5 c 128,-1,7
 2499 121 2499 121 2499 84 c 0,8,9
 2499 51 2499 51 2480 25.5 c 128,-1,10
 2461 0 2461 0 2426 0 c 2,11,-1
 1938 0 l 2,12,13
 1896 0 1896 0 1876 24 c 128,-1,14
 1856 48 1856 48 1856 86 c 0,15,16
 1856 123 1856 123 1874.5 149.5 c 128,-1,17
 1893 176 1893 176 1932 176 c 2,18,-1
 2080 176 l 1,19,-1
 2080 762 l 2,20,21
 2080 881 2080 881 2019.5 949.5 c 128,-1,22
 1959 1018 1959 1018 1838 1018 c 0,23,24
 1677 1018 1677 1018 1567 932 c 128,-1,25
 1457 846 1457 846 1396 733 c 1,26,-1
 1396 176 l 1,27,-1
 1561 176 l 2,28,29
 1599 176 1599 176 1616 148.5 c 128,-1,30
 1633 121 1633 121 1633 84 c 0,31,32
 1633 51 1633 51 1613.5 25.5 c 128,-1,33
 1594 0 1594 0 1559 0 c 2,34,-1
 1031 0 l 2,35,36
 989 0 989 0 969 24 c 128,-1,37
 949 48 949 48 949 86 c 0,38,39
 949 123 949 123 967.5 149.5 c 128,-1,40
 986 176 986 176 1025 176 c 2,41,-1
 1193 176 l 1,42,-1
 1193 762 l 2,43,44
 1193 881 1193 881 1132.5 949.5 c 128,-1,45
 1072 1018 1072 1018 951 1018 c 0,46,47
 782 1018 782 1018 666.5 938 c 128,-1,48
 551 858 551 858 494 743 c 1,49,-1
 494 176 l 1,50,-1
 679 176 l 2,51,52
 717 176 717 176 733.5 148.5 c 128,-1,53
 750 121 750 121 750 84 c 0,54,55
 750 51 750 51 731 25.5 c 128,-1,56
 712 0 712 0 677 0 c 2,57,-1
 148 0 l 2,58,59
 106 0 106 0 86 24 c 128,-1,60
 66 48 66 48 66 86 c 0,61,62
 66 123 66 123 84.5 149.5 c 128,-1,63
 103 176 103 176 142 176 c 2,64,-1
 290 176 l 1,65,-1
 290 979 l 1,66,-1
 146 944 l 2,67,68
 144 943 144 943 140.5 942.5 c 128,-1,69
 137 942 137 942 132 942 c 0,70,71
 102 942 102 942 76 966.5 c 128,-1,72
 50 991 50 991 50 1022 c 0,73,74
 50 1056 50 1056 64.5 1076.5 c 128,-1,75
 79 1097 79 1097 107 1106 c 2,76,-1
 386 1186 l 1,77,78
 390 1186 390 1186 391 1187 c 128,-1,79
 392 1188 392 1188 396 1188 c 2,80,-1
 402 1188 l 2,81,82
 423 1188 423 1188 438 1175.5 c 128,-1,83
 453 1163 453 1163 453 1141 c 1,84,-1
 474 952 l 1,85,86
 534 1053 534 1053 670.5 1120.5 c 128,-1,87
 807 1188 807 1188 968 1188 c 0,88,89
 1119 1188 1119 1188 1223 1117 c 128,-1,90
 1327 1046 1327 1046 1369 934 c 1,91,92
 1438 1034 1438 1034 1562 1111 c 128,-1,93
 1686 1188 1686 1188 1854 1188 c 1,94,-1
 1854 1188 l 1,0,1
EndSplineSet
EndChar

StartChar: n
Encoding: 110 110 100
Width: 1543
Flags: W
LayerCount: 2
Fore
SplineSet
869 1018 m 1,0,1
 735 1018 735 1018 614.5 929.5 c 128,-1,2
 494 841 494 841 494 707 c 2,3,-1
 494 176 l 1,4,-1
 640 176 l 2,5,6
 678 176 678 176 694.5 148.5 c 128,-1,7
 711 121 711 121 711 84 c 0,8,9
 711 51 711 51 692 25.5 c 128,-1,10
 673 0 673 0 638 0 c 2,11,-1
 171 0 l 2,12,13
 129 0 129 0 109 24 c 128,-1,14
 89 48 89 48 89 86 c 0,15,16
 89 123 89 123 107.5 149.5 c 128,-1,17
 126 176 126 176 165 176 c 2,18,-1
 289 176 l 1,19,-1
 289 979 l 1,20,-1
 146 944 l 2,21,22
 144 943 144 943 140.5 942.5 c 128,-1,23
 137 942 137 942 132 942 c 0,24,25
 102 942 102 942 76 966.5 c 128,-1,26
 50 991 50 991 50 1022 c 0,27,28
 50 1056 50 1056 64.5 1076.5 c 128,-1,29
 79 1097 79 1097 107 1106 c 2,30,-1
 386 1186 l 1,31,32
 390 1186 390 1186 391 1187 c 128,-1,33
 392 1188 392 1188 396 1188 c 2,34,-1
 402 1188 l 2,35,36
 423 1188 423 1188 438 1175.5 c 128,-1,37
 453 1163 453 1163 453 1141 c 1,38,-1
 474 952 l 1,39,40
 525 1044 525 1044 645.5 1116 c 128,-1,41
 766 1188 766 1188 906 1188 c 0,42,43
 1093 1188 1093 1188 1203 1078 c 128,-1,44
 1313 968 1313 968 1313 780 c 2,45,-1
 1313 176 l 1,46,-1
 1438 176 l 2,47,48
 1476 176 1476 176 1493 148.5 c 128,-1,49
 1510 121 1510 121 1510 84 c 0,50,51
 1510 51 1510 51 1490.5 25.5 c 128,-1,52
 1471 0 1471 0 1436 0 c 2,53,-1
 949 0 l 2,54,55
 907 0 907 0 887 24 c 128,-1,56
 867 48 867 48 867 86 c 0,57,58
 867 123 867 123 885.5 149.5 c 128,-1,59
 904 176 904 176 943 176 c 2,60,-1
 1111 176 l 1,61,-1
 1111 762 l 2,62,63
 1111 881 1111 881 1050.5 949.5 c 128,-1,64
 990 1018 990 1018 869 1018 c 1,65,-1
 869 1018 l 1,0,1
EndSplineSet
EndChar

StartChar: o
Encoding: 111 111 101
Width: 1369
Flags: W
LayerCount: 2
Fore
SplineSet
691 1018 m 1,0,1
 501 1018 501 1018 396.5 895 c 128,-1,2
 292 772 292 772 292 582 c 0,3,4
 292 391 292 391 396.5 268 c 128,-1,5
 501 145 501 145 691 145 c 0,6,7
 876 145 876 145 977 270 c 128,-1,8
 1078 395 1078 395 1078 582 c 256,9,10
 1078 769 1078 769 977 893.5 c 128,-1,11
 876 1018 876 1018 691 1018 c 1,12,-1
 691 1018 l 1,0,1
691 -25 m 1,13,14
 414 -25 414 -25 242 140 c 128,-1,15
 70 305 70 305 70 582 c 0,16,17
 70 860 70 860 242.5 1024 c 128,-1,18
 415 1188 415 1188 691 1188 c 0,19,20
 963 1188 963 1188 1131 1021.5 c 128,-1,21
 1299 855 1299 855 1299 582 c 256,22,23
 1299 309 1299 309 1131 142 c 128,-1,24
 963 -25 963 -25 691 -25 c 1,25,-1
 691 -25 l 1,13,14
EndSplineSet
EndChar

StartChar: p
Encoding: 112 112 102
Width: 1477
Flags: W
LayerCount: 2
Fore
SplineSet
1186 582 m 1,0,1
 1186 759 1186 759 1097.5 888.5 c 128,-1,2
 1009 1018 1009 1018 836 1018 c 0,3,4
 704 1018 704 1018 608.5 968 c 128,-1,5
 513 918 513 918 453 840 c 1,6,-1
 453 283 l 1,7,8
 516 220 516 220 610.5 182.5 c 128,-1,9
 705 145 705 145 830 145 c 0,10,11
 1005 145 1005 145 1095.5 275.5 c 128,-1,12
 1186 406 1186 406 1186 582 c 1,13,-1
 1186 582 l 1,0,1
1407 582 m 1,14,15
 1407 316 1407 316 1250 145.5 c 128,-1,16
 1093 -25 1093 -25 830 -25 c 0,17,18
 707 -25 707 -25 615.5 12 c 128,-1,19
 524 49 524 49 453 109 c 1,20,-1
 453 -399 l 1,21,-1
 655 -399 l 2,22,23
 693 -399 693 -399 710 -427 c 128,-1,24
 727 -455 727 -455 727 -492 c 0,25,26
 727 -525 727 -525 707.5 -550 c 128,-1,27
 688 -575 688 -575 653 -575 c 2,28,-1
 129 -575 l 2,29,30
 87 -575 87 -575 67 -551 c 128,-1,31
 47 -527 47 -527 47 -489 c 0,32,33
 47 -452 47 -452 65.5 -425.5 c 128,-1,34
 84 -399 84 -399 123 -399 c 2,35,-1
 248 -399 l 1,36,-1
 248 979 l 1,37,-1
 105 944 l 2,38,39
 103 943 103 943 99 942.5 c 128,-1,40
 95 942 95 942 90 942 c 0,41,42
 60 942 60 942 34 966.5 c 128,-1,43
 8 991 8 991 8 1022 c 0,44,45
 8 1056 8 1056 23 1076.5 c 128,-1,46
 38 1097 38 1097 66 1106 c 2,47,-1
 344 1186 l 1,48,49
 348 1186 348 1186 349 1187 c 128,-1,50
 350 1188 350 1188 354 1188 c 2,51,-1
 361 1188 l 2,52,53
 382 1188 382 1188 397 1175.5 c 128,-1,54
 412 1163 412 1163 412 1141 c 1,55,-1
 432 952 l 1,56,57
 480 1054 480 1054 592 1121 c 128,-1,58
 704 1188 704 1188 850 1188 c 0,59,60
 1112 1188 1112 1188 1259.5 1016.5 c 128,-1,61
 1407 845 1407 845 1407 582 c 1,62,-1
 1407 582 l 1,14,15
EndSplineSet
EndChar

StartChar: q
Encoding: 113 113 103
Width: 1369
Flags: W
LayerCount: 2
Fore
SplineSet
990 1006 m 1,0,1
 997 1066 997 1066 1016.5 1099.5 c 128,-1,2
 1036 1133 1036 1133 1099 1133 c 0,3,4
 1134 1133 1134 1133 1151 1100.5 c 128,-1,5
 1168 1068 1168 1068 1168 1028 c 2,6,-1
 1168 -399 l 1,7,-1
 1293 -399 l 2,8,9
 1332 -399 1332 -399 1350.5 -425.5 c 128,-1,10
 1369 -452 1369 -452 1369 -489 c 0,11,12
 1369 -527 1369 -527 1349 -551 c 128,-1,13
 1329 -575 1329 -575 1287 -575 c 2,14,-1
 763 -575 l 2,15,16
 728 -575 728 -575 708.5 -550 c 128,-1,17
 689 -525 689 -525 689 -492 c 0,18,19
 689 -455 689 -455 706 -427 c 128,-1,20
 723 -399 723 -399 761 -399 c 2,21,-1
 963 -399 l 1,22,-1
 963 109 l 1,23,24
 901 51 901 51 820.5 13 c 128,-1,25
 740 -25 740 -25 628 -25 c 0,26,27
 370 -25 370 -25 220 148.5 c 128,-1,28
 70 322 70 322 70 582 c 256,29,30
 70 842 70 842 211 1015 c 128,-1,31
 352 1188 352 1188 607 1188 c 0,32,33
 729 1188 729 1188 828.5 1132.5 c 128,-1,34
 928 1077 928 1077 990 1006 c 1,35,-1
 990 1006 l 1,0,1
292 582 m 1,36,37
 292 410 292 410 376.5 277.5 c 128,-1,38
 461 145 461 145 628 145 c 0,39,40
 743 145 743 145 825 183 c 128,-1,41
 907 221 907 221 963 283 c 1,42,-1
 963 840 l 1,43,44
 910 917 910 917 826.5 967.5 c 128,-1,45
 743 1018 743 1018 621 1018 c 0,46,47
 454 1018 454 1018 373 884.5 c 128,-1,48
 292 751 292 751 292 582 c 1,49,-1
 292 582 l 1,36,37
EndSplineSet
EndChar

StartChar: r
Encoding: 114 114 104
Width: 1114
Flags: W
LayerCount: 2
Fore
SplineSet
884 1006 m 1,0,1
 764 1006 764 1006 670 953 c 128,-1,2
 576 900 576 900 527 827 c 1,3,-1
 527 176 l 1,4,-1
 795 176 l 2,5,6
 833 176 833 176 850 148.5 c 128,-1,7
 867 121 867 121 867 84 c 0,8,9
 867 51 867 51 847.5 25.5 c 128,-1,10
 828 0 828 0 793 0 c 2,11,-1
 132 0 l 2,12,13
 90 0 90 0 70 24 c 128,-1,14
 50 48 50 48 50 86 c 0,15,16
 50 123 50 123 68.5 149.5 c 128,-1,17
 87 176 87 176 126 176 c 2,18,-1
 322 176 l 1,19,-1
 322 979 l 1,20,-1
 179 944 l 2,21,22
 177 943 177 943 173.5 942.5 c 128,-1,23
 170 942 170 942 165 942 c 0,24,25
 135 942 135 942 109 966.5 c 128,-1,26
 83 991 83 991 83 1022 c 0,27,28
 83 1056 83 1056 97.5 1076.5 c 128,-1,29
 112 1097 112 1097 140 1106 c 2,30,-1
 419 1186 l 1,31,32
 423 1186 423 1186 424 1187 c 128,-1,33
 425 1188 425 1188 429 1188 c 2,34,-1
 435 1188 l 2,35,36
 456 1188 456 1188 471 1175.5 c 128,-1,37
 486 1163 486 1163 486 1141 c 1,38,-1
 507 952 l 1,39,40
 576 1057 576 1057 688.5 1122.5 c 128,-1,41
 801 1188 801 1188 976 1188 c 0,42,43
 1009 1188 1009 1188 1034.5 1168.5 c 128,-1,44
 1060 1149 1060 1149 1060 1114 c 2,45,-1
 1060 901 l 2,46,47
 1060 859 1060 859 1036 839 c 128,-1,48
 1012 819 1012 819 974 819 c 0,49,50
 937 819 937 819 910.5 837.5 c 128,-1,51
 884 856 884 856 884 895 c 2,52,-1
 884 1006 l 1,0,1
EndSplineSet
EndChar

StartChar: s
Encoding: 115 115 105
Width: 1234
Flags: W
LayerCount: 2
Fore
SplineSet
157 861 m 1,0,1
 157 1054 157 1054 295 1121 c 128,-1,2
 433 1188 433 1188 590 1188 c 0,3,4
 692 1188 692 1188 792 1145.5 c 128,-1,5
 892 1103 892 1103 929 1037 c 1,6,-1
 930 1122 l 2,7,8
 930 1153 930 1153 952 1171.5 c 128,-1,9
 974 1190 974 1190 1005 1190 c 0,10,11
 1049 1190 1049 1190 1071 1170 c 128,-1,12
 1093 1150 1093 1150 1093 1112 c 2,13,-1
 1089 823 l 1,14,15
 1085 789 1085 789 1063 771.5 c 128,-1,16
 1041 754 1041 754 1007 754 c 0,17,18
 974 754 974 754 963 774 c 128,-1,19
 952 794 952 794 942 831 c 1,20,21
 908 936 908 936 801.5 992 c 128,-1,22
 695 1048 695 1048 588 1048 c 0,23,24
 496 1048 496 1048 427 1012 c 128,-1,25
 358 976 358 976 358 903 c 0,26,27
 358 840 358 840 399 805 c 128,-1,28
 440 770 440 770 532 747 c 1,29,-1
 788 663 l 2,30,31
 922 618 922 618 1031 549 c 128,-1,32
 1140 480 1140 480 1140 311 c 0,33,34
 1140 145 1140 145 1026.5 59 c 128,-1,35
 913 -27 913 -27 708 -27 c 0,36,37
 601 -27 601 -27 473 7.5 c 128,-1,38
 345 42 345 42 288 105 c 1,39,40
 288 39 288 39 264.5 19.5 c 128,-1,41
 241 0 241 0 207 0 c 0,42,43
 169 0 169 0 143.5 17 c 128,-1,44
 118 34 118 34 118 74 c 2,45,-1
 118 412 l 1,46,47
 119 443 119 443 142 459 c 128,-1,48
 165 475 165 475 194 475 c 0,49,50
 238 475 238 475 255.5 454.5 c 128,-1,51
 273 434 273 434 282 395 c 0,52,53
 313 259 313 259 425 191 c 128,-1,54
 537 123 537 123 697 123 c 0,55,56
 794 123 794 123 863.5 160 c 128,-1,57
 933 197 933 197 933 281 c 256,58,59
 933 365 933 365 893 404 c 128,-1,60
 853 443 853 443 751 474 c 2,61,-1
 479 559 l 2,62,63
 352 599 352 599 254.5 665 c 128,-1,64
 157 731 157 731 157 861 c 1,65,-1
 157 861 l 1,0,1
EndSplineSet
EndChar

StartChar: t
Encoding: 116 116 106
Width: 890
Flags: W
LayerCount: 2
Fore
SplineSet
572 134 m 1,0,1
 668 134 668 134 696 188 c 128,-1,2
 724 242 724 242 781 242 c 0,3,4
 812 242 812 242 832.5 219.5 c 128,-1,5
 853 197 853 197 853 166 c 0,6,7
 853 77 853 77 746 25 c 128,-1,8
 639 -27 639 -27 538 -27 c 0,9,10
 421 -27 421 -27 333 55.5 c 128,-1,11
 245 138 245 138 245 248 c 2,12,-1
 245 956 l 1,13,-1
 95 956 l 2,14,15
 53 956 53 956 33 980 c 128,-1,16
 13 1004 13 1004 13 1042 c 0,17,18
 13 1079 13 1079 31.5 1106 c 128,-1,19
 50 1133 50 1133 89 1133 c 2,20,-1
 245 1133 l 1,21,22
 245 1224 245 1224 261 1376 c 128,-1,23
 277 1528 277 1528 363 1528 c 0,24,25
 388 1528 388 1528 406.5 1522 c 128,-1,26
 425 1516 425 1516 443 1503 c 1,27,-1
 443 1483 l 2,28,29
 443 1470 443 1470 444 1453.5 c 128,-1,30
 445 1437 445 1437 445 1424 c 2,31,-1
 445 1133 l 1,32,-1
 707 1133 l 2,33,34
 745 1133 745 1133 762 1105 c 128,-1,35
 779 1077 779 1077 779 1040 c 0,36,37
 779 1007 779 1007 759.5 981.5 c 128,-1,38
 740 956 740 956 705 956 c 2,39,-1
 445 956 l 1,40,-1
 445 279 l 2,41,42
 445 201 445 201 481 167.5 c 128,-1,43
 517 134 517 134 572 134 c 1,44,-1
 572 134 l 1,0,1
EndSplineSet
EndChar

StartChar: u
Encoding: 117 117 107
Width: 1491
Flags: W
LayerCount: 2
Fore
SplineSet
668 145 m 1,0,1
 796 145 796 145 900.5 205.5 c 128,-1,2
 1005 266 1005 266 1047 354 c 1,3,-1
 1047 979 l 1,4,-1
 904 944 l 2,5,6
 902 943 902 943 898 942.5 c 128,-1,7
 894 942 894 942 889 942 c 0,8,9
 859 942 859 942 833 966.5 c 128,-1,10
 807 991 807 991 807 1022 c 0,11,12
 807 1054 807 1054 822 1076.5 c 128,-1,13
 837 1099 837 1099 865 1106 c 2,14,-1
 1184 1186 l 2,15,16
 1187 1187 1187 1187 1191.5 1187.5 c 128,-1,17
 1196 1188 1196 1188 1201 1188 c 0,18,19
 1224 1188 1224 1188 1238 1175.5 c 128,-1,20
 1252 1163 1252 1163 1252 1139 c 2,21,-1
 1252 190 l 1,22,-1
 1403 190 l 2,23,24
 1437 190 1437 190 1455 166.5 c 128,-1,25
 1473 143 1473 143 1473 109 c 0,26,27
 1473 77 1473 77 1458.5 54.5 c 128,-1,28
 1444 32 1444 32 1416 25 c 1,29,-1
 1143 -4 l 1,30,31
 1114 -4 1114 -4 1096.5 15.5 c 128,-1,32
 1079 35 1079 35 1072 84 c 2,33,-1
 1057 182 l 1,34,35
 999 96 999 96 880 35.5 c 128,-1,36
 761 -25 761 -25 631 -25 c 0,37,38
 453 -25 453 -25 353.5 88.5 c 128,-1,39
 254 202 254 202 254 383 c 2,40,-1
 254 979 l 1,41,-1
 111 944 l 2,42,43
 109 943 109 943 105.5 942.5 c 128,-1,44
 102 942 102 942 97 942 c 0,45,46
 67 942 67 942 41 966.5 c 128,-1,47
 15 991 15 991 15 1022 c 0,48,49
 15 1054 15 1054 29.5 1076.5 c 128,-1,50
 44 1099 44 1099 72 1106 c 2,51,-1
 392 1186 l 2,52,53
 395 1187 395 1187 399 1187.5 c 128,-1,54
 403 1188 403 1188 408 1188 c 0,55,56
 431 1188 431 1188 445 1175.5 c 128,-1,57
 459 1163 459 1163 459 1139 c 2,58,-1
 459 401 l 2,59,60
 459 291 459 291 510.5 218 c 128,-1,61
 562 145 562 145 668 145 c 1,62,-1
 668 145 l 1,0,1
EndSplineSet
EndChar

StartChar: v
Encoding: 118 118 108
Width: 1409
Flags: W
LayerCount: 2
Fore
SplineSet
608 1049 m 1,0,1
 608 1012 608 1012 591.5 984 c 128,-1,2
 575 956 575 956 537 956 c 2,3,-1
 422 956 l 1,4,-1
 741 272 l 1,5,-1
 1034 956 l 1,6,-1
 938 956 l 2,7,8
 900 956 900 956 883 984 c 128,-1,9
 866 1012 866 1012 866 1049 c 0,10,11
 866 1082 866 1082 885.5 1107.5 c 128,-1,12
 905 1133 905 1133 940 1133 c 2,13,-1
 1337 1133 l 2,14,15
 1380 1133 1380 1133 1399.5 1109 c 128,-1,16
 1419 1085 1419 1085 1419 1047 c 0,17,18
 1419 1010 1419 1010 1400.5 983 c 128,-1,19
 1382 956 1382 956 1343 956 c 2,20,-1
 1212 956 l 1,21,-1
 836 117 l 1,22,23
 814 75 814 75 788.5 37.5 c 128,-1,24
 763 0 763 0 715 0 c 0,25,26
 672 0 672 0 646.5 39 c 128,-1,27
 621 78 621 78 598 125 c 2,28,-1
 184 956 l 1,29,-1
 66 956 l 2,30,31
 28 956 28 956 9 983 c 128,-1,32
 -10 1010 -10 1010 -10 1047 c 0,33,34
 -10 1085 -10 1085 10 1109 c 128,-1,35
 30 1133 30 1133 72 1133 c 2,36,-1
 535 1133 l 2,37,38
 570 1133 570 1133 589 1107.5 c 128,-1,39
 608 1082 608 1082 608 1049 c 1,40,-1
 608 1049 l 1,0,1
EndSplineSet
EndChar

StartChar: w
Encoding: 119 119 109
Width: 1987
Flags: W
LayerCount: 2
Fore
SplineSet
1292 1049 m 1,0,1
 1292 1012 1292 1012 1275 984 c 128,-1,2
 1258 956 1258 956 1220 956 c 2,3,-1
 1058 956 l 1,4,-1
 1363 299 l 1,5,-1
 1662 956 l 1,6,-1
 1562 956 l 2,7,8
 1524 956 1524 956 1507 984 c 128,-1,9
 1490 1012 1490 1012 1490 1049 c 0,10,11
 1490 1082 1490 1082 1509.5 1107.5 c 128,-1,12
 1529 1133 1529 1133 1564 1133 c 2,13,-1
 1910 1133 l 2,14,15
 1952 1133 1952 1133 1972 1109 c 128,-1,16
 1992 1085 1992 1085 1992 1047 c 0,17,18
 1992 1010 1992 1010 1973.5 983 c 128,-1,19
 1955 956 1955 956 1916 956 c 2,20,-1
 1814 956 l 1,21,-1
 1441 117 l 2,22,23
 1424 79 1424 79 1402 38.5 c 128,-1,24
 1380 -2 1380 -2 1343 -2 c 0,25,26
 1309 -2 1309 -2 1281.5 44.5 c 128,-1,27
 1254 91 1254 91 1238 125 c 2,28,-1
 1003 608 l 1,29,-1
 784 117 l 2,30,31
 759 61 759 61 732 32.5 c 128,-1,32
 705 4 705 4 677 4 c 256,33,34
 649 4 649 4 620.5 34.5 c 128,-1,35
 592 65 592 65 562 125 c 2,36,-1
 155 956 l 1,37,-1
 71 956 l 2,38,39
 32 956 32 956 13.5 983 c 128,-1,40
 -5 1010 -5 1010 -5 1047 c 0,41,42
 -5 1085 -5 1085 15 1109 c 128,-1,43
 35 1133 35 1133 77 1133 c 2,44,-1
 458 1133 l 2,45,46
 493 1133 493 1133 512.5 1107.5 c 128,-1,47
 532 1082 532 1082 532 1049 c 0,48,49
 532 1012 532 1012 515 984 c 128,-1,50
 498 956 498 956 460 956 c 2,51,-1
 380 956 l 1,52,-1
 706 299 l 1,53,-1
 921 774 l 1,54,-1
 833 956 l 1,55,-1
 769 956 l 2,56,57
 730 956 730 956 712 983 c 128,-1,58
 694 1010 694 1010 694 1047 c 0,59,60
 694 1085 694 1085 713.5 1109 c 128,-1,61
 733 1133 733 1133 775 1133 c 2,62,-1
 1218 1133 l 2,63,64
 1253 1133 1253 1133 1272.5 1107.5 c 128,-1,65
 1292 1082 1292 1082 1292 1049 c 1,66,-1
 1292 1049 l 1,0,1
EndSplineSet
EndChar

StartChar: x
Encoding: 120 120 110
Width: 1523
Flags: W
LayerCount: 2
Fore
SplineSet
857 86 m 1,0,1
 857 123 857 123 875 149.5 c 128,-1,2
 893 176 893 176 932 176 c 2,3,-1
 1049 176 l 1,4,-1
 752 473 l 1,5,-1
 435 176 l 1,6,-1
 513 176 l 2,7,8
 551 176 551 176 567.5 148.5 c 128,-1,9
 584 121 584 121 584 84 c 0,10,11
 584 51 584 51 565 25.5 c 128,-1,12
 546 0 546 0 511 0 c 2,13,-1
 105 0 l 2,14,15
 63 0 63 0 43 24 c 128,-1,16
 23 48 23 48 23 86 c 0,17,18
 23 123 23 123 41.5 149.5 c 128,-1,19
 60 176 60 176 99 176 c 2,20,-1
 234 176 l 1,21,-1
 652 575 l 1,22,-1
 277 956 l 1,23,-1
 126 956 l 2,24,25
 84 956 84 956 64 980.5 c 128,-1,26
 44 1005 44 1005 44 1043 c 0,27,28
 44 1080 44 1080 62 1106.5 c 128,-1,29
 80 1133 80 1133 119 1133 c 2,30,-1
 554 1133 l 2,31,32
 592 1133 592 1133 608.5 1105.5 c 128,-1,33
 625 1078 625 1078 625 1041 c 0,34,35
 625 1008 625 1008 606 982 c 128,-1,36
 587 956 587 956 552 956 c 2,37,-1
 515 956 l 1,38,-1
 781 698 l 1,39,-1
 1049 956 l 1,40,-1
 1000 956 l 2,41,42
 958 956 958 956 938 980.5 c 128,-1,43
 918 1005 918 1005 918 1043 c 0,44,45
 918 1080 918 1080 936.5 1106.5 c 128,-1,46
 955 1133 955 1133 994 1133 c 2,47,-1
 1428 1133 l 2,48,49
 1466 1133 1466 1133 1483 1105.5 c 128,-1,50
 1500 1078 1500 1078 1500 1041 c 0,51,52
 1500 1008 1500 1008 1480.5 982 c 128,-1,53
 1461 956 1461 956 1426 956 c 2,54,-1
 1266 956 l 1,55,-1
 885 598 l 1,56,-1
 1324 176 l 1,57,-1
 1428 176 l 2,58,59
 1466 176 1466 176 1483 148.5 c 128,-1,60
 1500 121 1500 121 1500 84 c 0,61,62
 1500 51 1500 51 1480.5 25.5 c 128,-1,63
 1461 0 1461 0 1426 0 c 2,64,-1
 939 0 l 2,65,66
 897 0 897 0 877 24 c 128,-1,67
 857 48 857 48 857 86 c 1,68,-1
 857 86 l 1,0,1
EndSplineSet
EndChar

StartChar: y
Encoding: 121 121 111
Width: 1384
Flags: W
LayerCount: 2
Fore
SplineSet
598 1049 m 1,0,1
 598 1012 598 1012 581 984 c 128,-1,2
 564 956 564 956 526 956 c 2,3,-1
 406 956 l 1,4,-1
 754 209 l 1,5,-1
 1030 956 l 1,6,-1
 914 956 l 2,7,8
 876 956 876 956 859 984 c 128,-1,9
 842 1012 842 1012 842 1049 c 0,10,11
 842 1082 842 1082 861.5 1107.5 c 128,-1,12
 881 1133 881 1133 916 1133 c 2,13,-1
 1319 1133 l 2,14,15
 1362 1133 1362 1133 1381.5 1109 c 128,-1,16
 1401 1085 1401 1085 1401 1047 c 0,17,18
 1401 1010 1401 1010 1382.5 983 c 128,-1,19
 1364 956 1364 956 1325 956 c 2,20,-1
 1208 956 l 1,21,-1
 793 -121 l 1,22,23
 739 -248 739 -248 647.5 -419 c 128,-1,24
 556 -590 556 -590 367 -590 c 0,25,26
 307 -590 307 -590 273.5 -557 c 128,-1,27
 240 -524 240 -524 240 -484 c 0,28,29
 240 -447 240 -447 265.5 -408 c 128,-1,30
 291 -369 291 -369 355 -368 c 1,31,32
 439 -368 439 -368 500 -307 c 128,-1,33
 561 -246 561 -246 594 -166 c 2,34,-1
 658 -6 l 1,35,36
 653 -6 653 -6 632.5 34.5 c 128,-1,37
 612 75 612 75 608 84 c 2,38,-1
 180 956 l 1,39,-1
 59 956 l 2,40,41
 20 956 20 956 2 983 c 128,-1,42
 -16 1010 -16 1010 -16 1047 c 0,43,44
 -16 1085 -16 1085 4 1109 c 128,-1,45
 24 1133 24 1133 66 1133 c 2,46,-1
 524 1133 l 2,47,48
 559 1133 559 1133 578.5 1107.5 c 128,-1,49
 598 1082 598 1082 598 1049 c 1,50,-1
 598 1049 l 1,0,1
EndSplineSet
EndChar

StartChar: z
Encoding: 122 122 112
Width: 1296
Flags: W
LayerCount: 2
Fore
SplineSet
1108 1130 m 2,0,1
 1152 1130 1152 1130 1169 1117.5 c 128,-1,2
 1186 1105 1186 1105 1186 1086 c 0,3,4
 1186 1052 1186 1052 1154 1011 c 128,-1,5
 1122 970 1122 970 1106 954 c 2,6,-1
 363 176 l 1,7,-1
 1051 176 l 1,8,-1
 1081 467 l 1,9,10
 1082 498 1082 498 1105 514 c 128,-1,11
 1128 530 1128 530 1157 530 c 0,12,13
 1198 530 1198 530 1222 512.5 c 128,-1,14
 1246 495 1246 495 1246 461 c 0,15,16
 1246 459 1246 459 1245.5 456.5 c 128,-1,17
 1245 454 1245 454 1245 451 c 2,18,-1
 1204 68 l 2,19,20
 1201 41 1201 41 1178 20.5 c 128,-1,21
 1155 0 1155 0 1129 0 c 2,22,-1
 166 0 l 2,23,24
 124 0 124 0 104 24 c 128,-1,25
 84 48 84 48 84 86 c 0,26,27
 84 110 84 110 90.5 128.5 c 128,-1,28
 97 147 97 147 109 160 c 2,29,-1
 848 954 l 1,30,-1
 301 954 l 1,31,-1
 289 762 l 1,32,33
 285 728 285 728 263 710 c 128,-1,34
 241 692 241 692 207 692 c 0,35,36
 167 692 167 692 147 711 c 128,-1,37
 127 730 127 730 127 769 c 2,38,-1
 127 780 l 1,39,-1
 146 1063 l 2,40,41
 147 1089 147 1089 167 1109.5 c 128,-1,42
 187 1130 187 1130 213 1130 c 2,43,-1
 1108 1130 l 2,0,1
EndSplineSet
EndChar

StartChar: braceleft
Encoding: 123 123 113
Width: 1027
Flags: W
LayerCount: 2
Fore
SplineSet
569 949 m 1,0,1
 569 883 569 883 536.5 812.5 c 128,-1,2
 504 742 504 742 386 720 c 1,3,4
 504 698 504 698 536.5 627 c 128,-1,5
 569 556 569 556 569 490 c 0,6,7
 569 349 569 349 525.5 191.5 c 128,-1,8
 482 34 482 34 482 -95 c 0,9,10
 482 -202 482 -202 555.5 -271.5 c 128,-1,11
 629 -341 629 -341 844 -341 c 0,12,13
 885 -341 885 -341 915.5 -371 c 128,-1,14
 946 -401 946 -401 946 -443 c 0,15,16
 946 -483 946 -483 915 -514.5 c 128,-1,17
 884 -546 884 -546 844 -546 c 0,18,19
 492 -546 492 -546 376 -424.5 c 128,-1,20
 260 -303 260 -303 260 -134 c 0,21,22
 260 23 260 23 306 193.5 c 128,-1,23
 352 364 352 364 352 491 c 0,24,25
 352 545 352 545 315 581 c 128,-1,26
 278 617 278 617 171 617 c 0,27,28
 130 617 130 617 99.5 647 c 128,-1,29
 69 677 69 677 69 719 c 2,30,-1
 69 720 l 1,31,-1
 69 720 l 1,32,33
 69 762 69 762 99.5 792 c 128,-1,34
 130 822 130 822 171 822 c 0,35,36
 278 822 278 822 315 858 c 128,-1,37
 352 894 352 894 352 948 c 0,38,39
 352 1075 352 1075 306 1245.5 c 128,-1,40
 260 1416 260 1416 260 1573 c 0,41,42
 260 1742 260 1742 376 1863.5 c 128,-1,43
 492 1985 492 1985 844 1985 c 0,44,45
 884 1985 884 1985 915 1953.5 c 128,-1,46
 946 1922 946 1922 946 1882 c 0,47,48
 946 1840 946 1840 915.5 1810 c 128,-1,49
 885 1780 885 1780 844 1780 c 0,50,51
 629 1780 629 1780 555.5 1710.5 c 128,-1,52
 482 1641 482 1641 482 1534 c 0,53,54
 482 1405 482 1405 525.5 1247.5 c 128,-1,55
 569 1090 569 1090 569 949 c 1,56,-1
 569 949 l 1,0,1
EndSplineSet
EndChar

StartChar: bar
Encoding: 124 124 114
Width: 778
Flags: W
LayerCount: 2
Fore
SplineSet
314 1841 m 1,0,1
 351 1841 351 1841 373.5 1822 c 128,-1,2
 396 1803 396 1803 400 1769 c 1,3,-1
 400 -98 l 2,4,5
 400 -129 400 -129 371 -146.5 c 128,-1,6
 342 -164 342 -164 312 -164 c 0,7,8
 273 -164 273 -164 248.5 -145.5 c 128,-1,9
 224 -127 224 -127 224 -82 c 2,10,-1
 224 1769 l 2,11,12
 224 1805 224 1805 252 1823 c 128,-1,13
 280 1841 280 1841 314 1841 c 1,14,-1
 314 1841 l 1,0,1
EndSplineSet
EndChar

StartChar: braceright
Encoding: 125 125 115
Width: 1026
Flags: W
LayerCount: 2
Fore
SplineSet
459 949 m 1,0,1
 459 1090 459 1090 502.5 1247.5 c 128,-1,2
 546 1405 546 1405 546 1534 c 0,3,4
 546 1641 546 1641 472.5 1710.5 c 128,-1,5
 399 1780 399 1780 184 1780 c 0,6,7
 143 1780 143 1780 112.5 1810 c 128,-1,8
 82 1840 82 1840 82 1882 c 0,9,10
 82 1922 82 1922 113 1953.5 c 128,-1,11
 144 1985 144 1985 184 1985 c 0,12,13
 536 1985 536 1985 652 1863.5 c 128,-1,14
 768 1742 768 1742 768 1573 c 0,15,16
 768 1416 768 1416 722 1245.5 c 128,-1,17
 676 1075 676 1075 676 948 c 0,18,19
 676 894 676 894 713 858 c 128,-1,20
 750 822 750 822 857 822 c 0,21,22
 898 822 898 822 928.5 792 c 128,-1,23
 959 762 959 762 959 720 c 1,24,-1
 959 720 l 1,25,-1
 959 719 l 2,26,27
 959 677 959 677 928.5 647 c 128,-1,28
 898 617 898 617 857 617 c 0,29,30
 750 617 750 617 713 581 c 128,-1,31
 676 545 676 545 676 491 c 0,32,33
 676 364 676 364 722 193.5 c 128,-1,34
 768 23 768 23 768 -134 c 0,35,36
 768 -303 768 -303 652 -424.5 c 128,-1,37
 536 -546 536 -546 184 -546 c 0,38,39
 144 -546 144 -546 113 -514.5 c 128,-1,40
 82 -483 82 -483 82 -443 c 0,41,42
 82 -401 82 -401 112.5 -371 c 128,-1,43
 143 -341 143 -341 184 -341 c 0,44,45
 399 -341 399 -341 472.5 -271.5 c 128,-1,46
 546 -202 546 -202 546 -95 c 0,47,48
 546 34 546 34 502.5 191.5 c 128,-1,49
 459 349 459 349 459 490 c 0,50,51
 459 556 459 556 491.5 627 c 128,-1,52
 524 698 524 698 642 720 c 1,53,54
 524 742 524 742 491.5 812.5 c 128,-1,55
 459 883 459 883 459 949 c 1,56,-1
 459 949 l 1,0,1
EndSplineSet
EndChar

StartChar: asciitilde
Encoding: 126 126 116
Width: 1338
Flags: W
LayerCount: 2
Fore
SplineSet
159 1065 m 1,0,1
 159 1189 159 1189 223.5 1269.5 c 128,-1,2
 288 1350 288 1350 379 1350 c 0,3,4
 558 1350 558 1350 689 1259 c 128,-1,5
 820 1168 820 1168 884 1168 c 0,6,7
 990 1168 990 1168 1020 1249 c 128,-1,8
 1050 1330 1050 1330 1107 1330 c 0,9,10
 1136 1330 1136 1330 1158.5 1316.5 c 128,-1,11
 1181 1303 1181 1303 1181 1276 c 0,12,13
 1181 1151 1181 1151 1105 1071.5 c 128,-1,14
 1029 992 1029 992 922 992 c 0,15,16
 776 992 776 992 640.5 1082.5 c 128,-1,17
 505 1173 505 1173 409 1173 c 0,18,19
 320 1173 320 1173 297.5 1092.5 c 128,-1,20
 275 1012 275 1012 232 1012 c 0,21,22
 204 1012 204 1012 181.5 1025 c 128,-1,23
 159 1038 159 1038 159 1065 c 1,24,-1
 159 1065 l 1,0,1
EndSplineSet
EndChar

StartChar: dagger
Encoding: 8224 8224 149
Width: 1237
Flags: W
LayerCount: 2
Fore
SplineSet
1023 1255 m 2,0,1
 1056 1255 1056 1255 1079.5 1231.5 c 128,-1,2
 1103 1208 1103 1208 1103 1175 c 256,3,4
 1103 1142 1103 1142 1079.5 1118 c 128,-1,5
 1056 1094 1056 1094 1023 1094 c 2,6,-1
 695 1094 l 1,7,-1
 695 -98 l 2,8,9
 695 -129 695 -129 666 -146.5 c 128,-1,10
 637 -164 637 -164 607 -164 c 0,11,12
 568 -164 568 -164 543.5 -145.5 c 128,-1,13
 519 -127 519 -127 519 -82 c 2,14,-1
 519 1094 l 1,15,-1
 213 1094 l 2,16,17
 180 1094 180 1094 156.5 1118 c 128,-1,18
 133 1142 133 1142 133 1175 c 256,19,20
 133 1208 133 1208 156.5 1231.5 c 128,-1,21
 180 1255 180 1255 213 1255 c 2,22,-1
 519 1255 l 1,23,-1
 519 1769 l 2,24,25
 519 1805 519 1805 547 1823 c 128,-1,26
 575 1841 575 1841 609 1841 c 0,27,28
 646 1841 646 1841 668.5 1822 c 128,-1,29
 691 1803 691 1803 695 1769 c 1,30,-1
 695 1255 l 1,31,-1
 1023 1255 l 2,0,1
EndSplineSet
EndChar

StartChar: degree
Encoding: 176 176 150
Width: 1195
Flags: W
LayerCount: 2
Fore
SplineSet
603 1642 m 1,0,1
 784 1642 784 1642 874.5 1528.5 c 128,-1,2
 965 1415 965 1415 965 1278 c 0,3,4
 965 1143 965 1143 871 1027.5 c 128,-1,5
 777 912 777 912 596 912 c 256,6,7
 415 912 415 912 322.5 1024.5 c 128,-1,8
 230 1137 230 1137 230 1271 c 0,9,10
 230 1409 230 1409 325.5 1525.5 c 128,-1,11
 421 1642 421 1642 603 1642 c 1,12,-1
 603 1642 l 1,0,1
608 1052 m 1,13,14
 710 1052 710 1052 760 1118 c 128,-1,15
 810 1184 810 1184 810 1274 c 256,16,17
 810 1364 810 1364 758 1432 c 128,-1,18
 706 1500 706 1500 602 1500 c 256,19,20
 498 1500 498 1500 446 1432 c 128,-1,21
 394 1364 394 1364 394 1274 c 0,22,23
 394 1185 394 1185 450.5 1118.5 c 128,-1,24
 507 1052 507 1052 608 1052 c 1,25,-1
 608 1052 l 1,13,14
EndSplineSet
EndChar

StartChar: cent
Encoding: 162 162 151
Width: 1295
Flags: W
LayerCount: 2
Fore
SplineSet
723 1623 m 1,0,1
 752 1623 752 1623 771.5 1608.5 c 128,-1,2
 791 1594 791 1594 791 1566 c 2,3,-1
 791 1328 l 1,4,5
 937 1324 937 1324 1064.5 1260 c 128,-1,6
 1192 1196 1192 1196 1192 1018 c 0,7,8
 1192 959 1192 959 1169 918.5 c 128,-1,9
 1146 878 1146 878 1095 878 c 0,10,11
 1020 878 1020 878 999 965.5 c 128,-1,12
 978 1053 978 1053 959 1133 c 1,13,14
 916 1144 916 1144 873.5 1150.5 c 128,-1,15
 831 1157 831 1157 791 1158 c 1,16,-1
 791 317 l 1,17,18
 862 326 862 326 932.5 357.5 c 128,-1,19
 1003 389 1003 389 1062 442 c 0,20,21
 1076 454 1076 454 1092 461 c 128,-1,22
 1108 468 1108 468 1125 468 c 0,23,24
 1166 468 1166 468 1193.5 447.5 c 128,-1,25
 1221 427 1221 427 1221 390 c 0,26,27
 1221 272 1221 272 1071.5 200 c 128,-1,28
 922 128 922 128 791 117 c 1,29,-1
 791 -113 l 2,30,31
 791 -142 791 -142 770 -157 c 128,-1,32
 749 -172 749 -172 724 -172 c 0,33,34
 698 -172 698 -172 676.5 -155.5 c 128,-1,35
 655 -139 655 -139 655 -104 c 2,36,-1
 655 120 l 1,37,38
 405 145 405 145 249.5 307.5 c 128,-1,39
 94 470 94 470 94 736 c 0,40,41
 94 992 94 992 257.5 1143 c 128,-1,42
 421 1294 421 1294 655 1322 c 1,43,-1
 655 1566 l 2,44,45
 655 1594 655 1594 676 1608.5 c 128,-1,46
 697 1623 697 1623 723 1623 c 1,47,-1
 723 1623 l 1,0,1
655 1147 m 1,48,49
 506 1117 506 1117 411 1009.5 c 128,-1,50
 316 902 316 902 316 736 c 0,51,52
 316 549 316 549 416 445.5 c 128,-1,53
 516 342 516 342 655 320 c 1,54,-1
 655 1147 l 1,48,49
EndSplineSet
EndChar

StartChar: sterling
Encoding: 163 163 152
Width: 1336
Flags: W
LayerCount: 2
Fore
SplineSet
47 227 m 1,0,1
 47 355 47 355 137.5 428.5 c 128,-1,2
 228 502 228 502 356 502 c 0,3,4
 424 502 424 502 475.5 483.5 c 128,-1,5
 527 465 527 465 571 438 c 1,6,7
 573 451 573 451 574 465 c 128,-1,8
 575 479 575 479 575 494 c 0,9,10
 575 596 575 596 541 678 c 128,-1,11
 507 760 507 760 467 840 c 1,12,-1
 450 870 l 1,13,-1
 178 870 l 2,14,15
 143 870 143 870 123.5 891.5 c 128,-1,16
 104 913 104 913 104 946 c 256,17,18
 104 979 104 979 122.5 998.5 c 128,-1,19
 141 1018 141 1018 176 1018 c 2,20,-1
 383 1018 l 1,21,22
 351 1093 351 1093 324 1182.5 c 128,-1,23
 297 1272 297 1272 297 1378 c 0,24,25
 297 1551 297 1551 428 1664.5 c 128,-1,26
 559 1778 559 1778 731 1778 c 0,27,28
 860 1778 860 1778 956.5 1733.5 c 128,-1,29
 1053 1689 1053 1689 1114 1616 c 0,30,31
 1130 1597 1130 1597 1138.5 1583.5 c 128,-1,32
 1147 1570 1147 1570 1147 1542 c 0,33,34
 1147 1492 1147 1492 1109.5 1461 c 128,-1,35
 1072 1430 1072 1430 1024 1430 c 0,36,37
 969 1430 969 1430 924.5 1484.5 c 128,-1,38
 880 1539 880 1539 849 1559 c 0,39,40
 823 1576 823 1576 793.5 1584.5 c 128,-1,41
 764 1593 764 1593 733 1593 c 0,42,43
 632 1593 632 1593 578 1524 c 128,-1,44
 524 1455 524 1455 524 1352 c 0,45,46
 524 1262 524 1262 554 1176.5 c 128,-1,47
 584 1091 584 1091 618 1018 c 1,48,-1
 962 1018 l 2,49,50
 997 1018 997 1018 1015.5 998.5 c 128,-1,51
 1034 979 1034 979 1034 946 c 256,52,53
 1034 913 1034 913 1014.5 891.5 c 128,-1,54
 995 870 995 870 960 870 c 2,55,-1
 684 870 l 1,56,57
 709 799 709 799 732 718.5 c 128,-1,58
 755 638 755 638 755 549 c 0,59,60
 755 490 755 490 744.5 432 c 128,-1,61
 734 374 734 374 714 319 c 1,62,63
 768 263 768 263 835.5 204 c 128,-1,64
 903 145 903 145 999 145 c 0,65,66
 1079 145 1079 145 1124.5 198.5 c 128,-1,67
 1170 252 1170 252 1237 252 c 0,68,69
 1267 252 1267 252 1290.5 225.5 c 128,-1,70
 1314 199 1314 199 1314 168 c 0,71,72
 1314 68 1314 68 1204 20.5 c 128,-1,73
 1094 -27 1094 -27 993 -27 c 0,74,75
 869 -27 869 -27 782 33.5 c 128,-1,76
 695 94 695 94 628 154 c 1,77,78
 577 85 577 85 498 28 c 128,-1,79
 419 -29 419 -29 311 -29 c 0,80,81
 196 -29 196 -29 121.5 43 c 128,-1,82
 47 115 47 115 47 227 c 1,83,-1
 47 227 l 1,0,1
512 256 m 1,84,85
 477 287 477 287 434.5 317.5 c 128,-1,86
 392 348 392 348 338 348 c 0,87,88
 275 348 275 348 233.5 319.5 c 128,-1,89
 192 291 192 291 192 231 c 0,90,91
 192 180 192 180 231.5 156.5 c 128,-1,92
 271 133 271 133 319 133 c 0,93,94
 388 133 388 133 435.5 171.5 c 128,-1,95
 483 210 483 210 512 256 c 1,96,-1
 512 256 l 1,84,85
EndSplineSet
EndChar

StartChar: section
Encoding: 167 167 153
Width: 877
Flags: W
LayerCount: 2
Fore
SplineSet
100 1593 m 1,0,1
 100 1743 100 1743 203 1840 c 128,-1,2
 306 1937 306 1937 460 1937 c 0,3,4
 593 1937 593 1937 720 1863 c 128,-1,5
 847 1789 847 1789 847 1661 c 0,6,7
 847 1627 847 1627 826 1607 c 128,-1,8
 805 1587 805 1587 774 1587 c 256,9,10
 743 1587 743 1587 721 1603.5 c 128,-1,11
 699 1620 699 1620 690 1645 c 0,12,13
 664 1714 664 1714 608 1758 c 128,-1,14
 552 1802 552 1802 468 1802 c 0,15,16
 387 1802 387 1802 327.5 1752 c 128,-1,17
 268 1702 268 1702 268 1622 c 0,18,19
 268 1582 268 1582 278.5 1544 c 128,-1,20
 289 1506 289 1506 309 1470 c 0,21,22
 379 1348 379 1348 484.5 1247.5 c 128,-1,23
 590 1147 590 1147 677 1039 c 0,24,25
 730 973 730 973 775.5 888.5 c 128,-1,26
 821 804 821 804 821 694 c 0,27,28
 821 589 821 589 778 497.5 c 128,-1,29
 735 406 735 406 655 366 c 1,30,31
 700 303 700 303 742 218.5 c 128,-1,32
 784 134 784 134 784 35 c 0,33,34
 784 -116 784 -116 681.5 -212.5 c 128,-1,35
 579 -309 579 -309 423 -309 c 0,36,37
 290 -309 290 -309 163 -235 c 128,-1,38
 36 -161 36 -161 36 -33 c 0,39,40
 36 1 36 1 57.5 21 c 128,-1,41
 79 41 79 41 110 41 c 256,42,43
 141 41 141 41 163 25 c 128,-1,44
 185 9 185 9 194 -16 c 0,45,46
 220 -85 220 -85 275.5 -129.5 c 128,-1,47
 331 -174 331 -174 415 -174 c 0,48,49
 496 -174 496 -174 556 -124 c 128,-1,50
 616 -74 616 -74 616 6 c 0,51,52
 616 46 616 46 605.5 84 c 128,-1,53
 595 122 595 122 575 158 c 0,54,55
 505 280 505 280 399 380.5 c 128,-1,56
 293 481 293 481 206 589 c 0,57,58
 153 655 153 655 108 739.5 c 128,-1,59
 63 824 63 824 63 934 c 0,60,61
 63 1039 63 1039 105.5 1130.5 c 128,-1,62
 148 1222 148 1222 229 1262 c 1,63,64
 184 1325 184 1325 142 1409 c 128,-1,65
 100 1493 100 1493 100 1593 c 1,66,-1
 100 1593 l 1,0,1
294 1177 m 1,67,68
 260 1149 260 1149 242.5 1100.5 c 128,-1,69
 225 1052 225 1052 225 1006 c 0,70,71
 225 972 225 972 235.5 935.5 c 128,-1,72
 246 899 246 899 266 862 c 0,73,74
 329 749 329 749 418 650.5 c 128,-1,75
 507 552 507 552 590 451 c 1,76,77
 624 479 624 479 641.5 528 c 128,-1,78
 659 577 659 577 659 623 c 0,79,80
 659 657 659 657 648.5 693 c 128,-1,81
 638 729 638 729 618 766 c 0,82,83
 555 879 555 879 466 977 c 128,-1,84
 377 1075 377 1075 294 1177 c 1,85,-1
 294 1177 l 1,67,68
EndSplineSet
EndChar

StartChar: bullet
Encoding: 8226 8226 154
Width: 1143
Flags: W
LayerCount: 2
Fore
SplineSet
551 289 m 1,0,1
 389 289 389 289 291 385.5 c 128,-1,2
 193 482 193 482 193 643 c 0,3,4
 193 805 193 805 291.5 901 c 128,-1,5
 390 997 390 997 551 997 c 0,6,7
 708 997 708 997 803 898.5 c 128,-1,8
 898 800 898 800 898 643 c 256,9,10
 898 486 898 486 802.5 387.5 c 128,-1,11
 707 289 707 289 551 289 c 1,12,-1
 551 289 l 1,0,1
EndSplineSet
EndChar

StartChar: paragraph
Encoding: 182 182 155
Width: 1780
Flags: W
LayerCount: 2
Fore
SplineSet
995 176 m 1,0,-1
 1154 176 l 1,1,-1
 1154 1538 l 1,2,-1
 995 1538 l 1,3,-1
 995 176 l 1,0,-1
1367 1714 m 1,4,-1
 1371 176 l 1,5,-1
 1635 176 l 2,6,7
 1673 176 1673 176 1690 148.5 c 128,-1,8
 1707 121 1707 121 1707 84 c 0,9,10
 1707 51 1707 51 1687.5 25.5 c 128,-1,11
 1668 0 1668 0 1633 0 c 2,12,-1
 458 0 l 2,13,14
 423 0 423 0 403.5 25.5 c 128,-1,15
 384 51 384 51 384 84 c 0,16,17
 384 121 384 121 401 148.5 c 128,-1,18
 418 176 418 176 456 176 c 2,19,-1
 761 176 l 1,20,-1
 761 725 l 1,21,22
 418 725 418 725 249 883 c 128,-1,23
 80 1041 80 1041 80 1232 c 0,24,25
 80 1410 80 1410 240 1562 c 128,-1,26
 400 1714 400 1714 708 1714 c 2,27,-1
 1367 1714 l 1,4,-1
EndSplineSet
EndChar

StartChar: germandbls
Encoding: 223 223 156
Width: 1708
Flags: W
LayerCount: 2
Fore
SplineSet
1323 469 m 1,0,1
 1323 730 1323 730 1168.5 798 c 128,-1,2
 1014 866 1014 866 814 866 c 0,3,4
 779 866 779 866 761 886.5 c 128,-1,5
 743 907 743 907 743 931 c 256,6,7
 743 955 743 955 760.5 975 c 128,-1,8
 778 995 778 995 814 995 c 0,9,10
 924 995 924 995 1028 1065.5 c 128,-1,11
 1132 1136 1132 1136 1132 1290 c 0,12,13
 1132 1447 1132 1447 1050.5 1511.5 c 128,-1,14
 969 1576 969 1576 859 1576 c 0,15,16
 754 1576 754 1576 660.5 1477 c 128,-1,17
 567 1378 567 1378 567 1045 c 2,18,-1
 567 176 l 1,19,-1
 701 176 l 2,20,21
 739 176 739 176 756 148.5 c 128,-1,22
 773 121 773 121 773 84 c 0,23,24
 773 51 773 51 753.5 25.5 c 128,-1,25
 734 0 734 0 699 0 c 2,26,-1
 143 0 l 2,27,28
 108 0 108 0 88.5 25.5 c 128,-1,29
 69 51 69 51 69 84 c 0,30,31
 69 121 69 121 86 148.5 c 128,-1,32
 103 176 103 176 141 176 c 2,33,-1
 333 176 l 1,34,-1
 333 988 l 2,35,36
 333 1428 333 1428 499 1583.5 c 128,-1,37
 665 1739 665 1739 852 1739 c 256,38,39
 1039 1739 1039 1739 1188 1635 c 128,-1,40
 1337 1531 1337 1531 1337 1290 c 0,41,42
 1337 1155 1337 1155 1266 1069.5 c 128,-1,43
 1195 984 1195 984 1099 956 c 1,44,45
 1285 933 1285 933 1421 816 c 128,-1,46
 1557 699 1557 699 1557 468 c 0,47,48
 1557 256 1557 256 1391.5 128 c 128,-1,49
 1226 0 1226 0 1041 0 c 0,50,51
 998 0 998 0 975 29 c 128,-1,52
 952 58 952 58 952 92 c 0,53,54
 952 124 952 124 973.5 150 c 128,-1,55
 995 176 995 176 1041 176 c 0,56,57
 1151 176 1151 176 1237 253 c 128,-1,58
 1323 330 1323 330 1323 469 c 1,59,-1
 1323 469 l 1,0,1
EndSplineSet
EndChar

StartChar: registered
Encoding: 174 174 157
Width: 2133
Flags: W
LayerCount: 2
Fore
SplineSet
918 986 m 2,0,1
 1070 986 1070 986 1187 1005.5 c 128,-1,2
 1304 1025 1304 1025 1304 1132 c 0,3,4
 1304 1263 1304 1263 1185.5 1285 c 128,-1,5
 1067 1307 1067 1307 933 1307 c 2,6,-1
 855 1307 l 1,7,-1
 855 986 l 1,8,-1
 918 986 l 2,0,1
1464 1135 m 1,9,10
 1464 1012 1464 1012 1377.5 958.5 c 128,-1,11
 1291 905 1291 905 1160 886 c 1,12,-1
 1408 478 l 1,13,-1
 1496 478 l 2,14,15
 1536 478 1536 478 1552.5 464 c 128,-1,16
 1569 450 1569 450 1569 416 c 0,17,18
 1569 379 1569 379 1549 369 c 128,-1,19
 1529 359 1529 359 1498 359 c 2,20,-1
 1497 359 l 1,21,-1
 1186 360 l 2,22,23
 1163 360 1163 360 1150 377 c 128,-1,24
 1137 394 1137 394 1137 416 c 0,25,26
 1137 441 1137 441 1148.5 459.5 c 128,-1,27
 1160 478 1160 478 1185 478 c 2,28,-1
 1248 478 l 1,29,-1
 1027 867 l 1,30,-1
 855 867 l 1,31,-1
 855 478 l 1,32,-1
 972 478 l 2,33,34
 997 478 997 478 1008.5 459.5 c 128,-1,35
 1020 441 1020 441 1020 416 c 0,36,37
 1020 394 1020 394 1006.5 377 c 128,-1,38
 993 360 993 360 970 360 c 2,39,-1
 610 360 l 2,40,41
 587 360 587 360 573.5 377 c 128,-1,42
 560 394 560 394 560 416 c 0,43,44
 560 441 560 441 571.5 459.5 c 128,-1,45
 583 478 583 478 608 478 c 2,46,-1
 698 478 l 1,47,-1
 698 1307 l 1,48,-1
 636 1307 l 2,49,50
 611 1307 611 1307 599.5 1325.5 c 128,-1,51
 588 1344 588 1344 588 1369 c 0,52,53
 588 1391 588 1391 601 1408 c 128,-1,54
 614 1425 614 1425 637 1425 c 2,55,-1
 954 1425 l 2,56,57
 1151 1425 1151 1425 1307.5 1371 c 128,-1,58
 1464 1317 1464 1317 1464 1135 c 1,59,-1
 1464 1135 l 1,9,10
337 860 m 1,60,61
 337 548 337 548 543.5 327 c 128,-1,62
 750 106 750 106 1066 106 c 256,63,64
 1382 106 1382 106 1588.5 327 c 128,-1,65
 1795 548 1795 548 1795 860 c 256,66,67
 1795 1172 1795 1172 1588.5 1393 c 128,-1,68
 1382 1614 1382 1614 1066 1614 c 256,69,70
 750 1614 750 1614 543.5 1393 c 128,-1,71
 337 1172 337 1172 337 860 c 1,72,-1
 337 860 l 1,60,61
167 860 m 1,73,74
 167 1232 167 1232 427 1494.5 c 128,-1,75
 687 1757 687 1757 1066 1757 c 256,76,77
 1445 1757 1445 1757 1705 1494.5 c 128,-1,78
 1965 1232 1965 1232 1965 860 c 256,79,80
 1965 488 1965 488 1705 225.5 c 128,-1,81
 1445 -37 1445 -37 1066 -37 c 256,82,83
 687 -37 687 -37 427 225.5 c 128,-1,84
 167 488 167 488 167 860 c 1,85,-1
 167 860 l 1,73,74
EndSplineSet
EndChar

StartChar: copyright
Encoding: 169 169 158
Width: 2128
Flags: W
LayerCount: 2
Fore
SplineSet
1961 850 m 1,0,1
 1961 454 1961 454 1710 214.5 c 128,-1,2
 1459 -25 1459 -25 1064 -25 c 256,3,4
 669 -25 669 -25 418 214.5 c 128,-1,5
 167 454 167 454 167 850 c 0,6,7
 167 1247 167 1247 417.5 1493 c 128,-1,8
 668 1739 668 1739 1064 1739 c 256,9,10
 1460 1739 1460 1739 1710.5 1493 c 128,-1,11
 1961 1247 1961 1247 1961 850 c 1,12,-1
 1961 850 l 1,0,1
1070 469 m 1,13,14
 1194 469 1194 469 1276.5 537 c 128,-1,15
 1359 605 1359 605 1359 731 c 0,16,17
 1359 755 1359 755 1382.5 764.5 c 128,-1,18
 1406 774 1406 774 1432 774 c 0,19,20
 1454 774 1454 774 1479 762.5 c 128,-1,21
 1504 751 1504 751 1504 729 c 2,22,-1
 1504 508 l 2,23,24
 1504 492 1504 492 1501.5 485 c 128,-1,25
 1499 478 1499 478 1486 473 c 1,26,27
 1412 409 1412 409 1306.5 364 c 128,-1,28
 1201 319 1201 319 1070 319 c 0,29,30
 831 319 831 319 684 468.5 c 128,-1,31
 537 618 537 618 537 858 c 0,32,33
 537 1099 537 1099 684 1252 c 128,-1,34
 831 1405 831 1405 1070 1405 c 0,35,36
 1156 1405 1156 1405 1222 1378.5 c 128,-1,37
 1288 1352 1288 1352 1338 1307 c 1,38,-1
 1338 1348 l 2,39,40
 1338 1372 1338 1372 1362.5 1381.5 c 128,-1,41
 1387 1391 1387 1391 1412 1391 c 0,42,43
 1433 1391 1433 1391 1458.5 1380 c 128,-1,44
 1484 1369 1484 1369 1484 1348 c 2,45,-1
 1484 1083 l 2,46,47
 1484 1061 1484 1061 1459 1050.5 c 128,-1,48
 1434 1040 1434 1040 1412 1040 c 0,49,50
 1385 1040 1385 1040 1370.5 1063 c 128,-1,51
 1356 1086 1356 1086 1342 1106 c 0,52,53
 1299 1172 1299 1172 1232.5 1217 c 128,-1,54
 1166 1262 1166 1262 1070 1262 c 0,55,56
 905 1262 905 1262 815.5 1143 c 128,-1,57
 726 1024 726 1024 726 858 c 0,58,59
 726 695 726 695 817 582 c 128,-1,60
 908 469 908 469 1070 469 c 1,61,-1
 1070 469 l 1,13,14
333 854 m 1,62,63
 333 528 333 528 532.5 325.5 c 128,-1,64
 732 123 732 123 1064 123 c 256,65,66
 1396 123 1396 123 1595.5 325.5 c 128,-1,67
 1795 528 1795 528 1795 854 c 0,68,69
 1795 1179 1795 1179 1595 1385 c 128,-1,70
 1395 1591 1395 1591 1064 1591 c 256,71,72
 733 1591 733 1591 533 1385 c 128,-1,73
 333 1179 333 1179 333 854 c 1,74,-1
 333 854 l 1,62,63
EndSplineSet
EndChar

StartChar: trademark
Encoding: 8482 8482 159
Width: 2803
Flags: W
LayerCount: 2
Fore
SplineSet
2146 808 m 1,0,1
 2146 833 2146 833 2156 851.5 c 128,-1,2
 2166 870 2166 870 2189 870 c 2,3,-1
 2300 870 l 1,4,-1
 2300 1428 l 1,5,-1
 2009 860 l 1,6,7
 2004 842 2004 842 1989 829 c 128,-1,8
 1974 816 1974 816 1952 816 c 0,9,10
 1934 816 1934 816 1919 827 c 128,-1,11
 1904 838 1904 838 1898 853 c 1,12,-1
 1553 1438 l 1,13,-1
 1553 870 l 1,14,-1
 1676 870 l 2,15,16
 1699 870 1699 870 1709.5 851.5 c 128,-1,17
 1720 833 1720 833 1720 808 c 0,18,19
 1720 785 1720 785 1708.5 767.5 c 128,-1,20
 1697 750 1697 750 1675 750 c 2,21,-1
 1246 750 l 2,22,23
 1225 750 1225 750 1213.5 767.5 c 128,-1,24
 1202 785 1202 785 1202 808 c 0,25,26
 1202 833 1202 833 1212 851.5 c 128,-1,27
 1222 870 1222 870 1245 870 c 2,28,-1
 1405 870 l 1,29,-1
 1405 1592 l 1,30,-1
 1276 1592 l 2,31,32
 1253 1592 1253 1592 1242.5 1610.5 c 128,-1,33
 1232 1629 1232 1629 1232 1655 c 0,34,35
 1232 1677 1232 1677 1243.5 1694.5 c 128,-1,36
 1255 1712 1255 1712 1277 1712 c 2,37,-1
 1519 1712 l 2,38,39
 1535 1712 1535 1712 1544 1701 c 128,-1,40
 1553 1690 1553 1690 1559 1677 c 1,41,-1
 1952 1054 l 1,42,-1
 2294 1682 l 2,43,44
 2300 1694 2300 1694 2309.5 1703 c 128,-1,45
 2319 1712 2319 1712 2335 1712 c 2,46,-1
 2572 1712 l 2,47,48
 2594 1712 2594 1712 2605.5 1694.5 c 128,-1,49
 2617 1677 2617 1677 2617 1655 c 0,50,51
 2617 1629 2617 1629 2606.5 1610.5 c 128,-1,52
 2596 1592 2596 1592 2573 1592 c 2,53,-1
 2448 1592 l 1,54,-1
 2448 870 l 1,55,-1
 2606 870 l 2,56,57
 2629 870 2629 870 2639 851.5 c 128,-1,58
 2649 833 2649 833 2649 808 c 0,59,60
 2649 785 2649 785 2638 767.5 c 128,-1,61
 2627 750 2627 750 2605 750 c 2,62,-1
 2190 750 l 2,63,64
 2169 750 2169 750 2157.5 767.5 c 128,-1,65
 2146 785 2146 785 2146 808 c 1,66,-1
 2146 808 l 1,0,1
255 1328 m 1,67,68
 234 1328 234 1328 213.5 1343 c 128,-1,69
 193 1358 193 1358 193 1382 c 2,70,-1
 202 1659 l 2,71,72
 203 1686 203 1686 211 1699 c 128,-1,73
 219 1712 219 1712 239 1712 c 2,74,-1
 1096 1712 l 2,75,76
 1116 1712 1116 1712 1124.5 1698 c 128,-1,77
 1133 1684 1133 1684 1134 1659 c 2,78,-1
 1143 1382 l 2,79,80
 1143 1358 1143 1358 1122 1343 c 128,-1,81
 1101 1328 1101 1328 1082 1328 c 0,82,83
 1060 1328 1060 1328 1047 1338 c 128,-1,84
 1034 1348 1034 1348 1032 1373 c 2,85,-1
 1013 1570 l 1,86,-1
 749 1570 l 1,87,-1
 749 870 l 1,88,-1
 910 870 l 2,89,90
 933 870 933 870 943 851.5 c 128,-1,91
 953 833 953 833 953 808 c 0,92,93
 953 785 953 785 942 767.5 c 128,-1,94
 931 750 931 750 909 750 c 2,95,-1
 415 750 l 2,96,97
 393 750 393 750 381.5 767.5 c 128,-1,98
 370 785 370 785 370 808 c 0,99,100
 370 833 370 833 380.5 851.5 c 128,-1,101
 391 870 391 870 414 870 c 2,102,-1
 574 870 l 1,103,-1
 574 1570 l 1,104,-1
 322 1570 l 1,105,-1
 304 1373 l 2,106,107
 302 1348 302 1348 289 1338 c 128,-1,108
 276 1328 276 1328 255 1328 c 1,109,-1
 255 1328 l 1,67,68
EndSplineSet
EndChar

StartChar: acute
Encoding: 180 180 160
Width: 633
Flags: W
LayerCount: 2
Fore
SplineSet
517 1870 m 1,0,1
 548 1870 548 1870 574.5 1843.5 c 128,-1,2
 601 1817 601 1817 601 1786 c 0,3,4
 601 1773 601 1773 594.5 1761.5 c 128,-1,5
 588 1750 588 1750 575 1741 c 0,6,7
 457 1667 457 1667 328 1585 c 128,-1,8
 199 1503 199 1503 77 1434 c 0,9,10
 72 1431 72 1431 67 1429 c 128,-1,11
 62 1427 62 1427 58 1427 c 0,12,13
 39 1427 39 1427 24 1443.5 c 128,-1,14
 9 1460 9 1460 9 1479 c 0,15,16
 9 1489 9 1489 13.5 1496.5 c 128,-1,17
 18 1504 18 1504 26 1509 c 0,18,19
 138 1584 138 1584 256.5 1676 c 128,-1,20
 375 1768 375 1768 476 1855 c 0,21,22
 484 1862 484 1862 494.5 1866 c 128,-1,23
 505 1870 505 1870 517 1870 c 1,24,-1
 517 1870 l 1,0,1
EndSplineSet
EndChar

StartChar: dieresis
Encoding: 168 168 161
Width: 886
Flags: W
LayerCount: 2
Fore
SplineSet
199 1432 m 1,0,1
 145 1432 145 1432 105 1471.5 c 128,-1,2
 65 1511 65 1511 65 1565 c 256,3,4
 65 1619 65 1619 105 1658.5 c 128,-1,5
 145 1698 145 1698 199 1698 c 256,6,7
 253 1698 253 1698 292.5 1658.5 c 128,-1,8
 332 1619 332 1619 332 1565 c 256,9,10
 332 1511 332 1511 292.5 1471.5 c 128,-1,11
 253 1432 253 1432 199 1432 c 1,12,-1
 199 1432 l 1,0,1
690 1432 m 1,13,14
 636 1432 636 1432 596.5 1471.5 c 128,-1,15
 557 1511 557 1511 557 1565 c 256,16,17
 557 1619 557 1619 596.5 1658.5 c 128,-1,18
 636 1698 636 1698 690 1698 c 256,19,20
 744 1698 744 1698 783.5 1658.5 c 128,-1,21
 823 1619 823 1619 823 1565 c 256,22,23
 823 1511 823 1511 783.5 1471.5 c 128,-1,24
 744 1432 744 1432 690 1432 c 1,25,-1
 690 1432 l 1,13,14
EndSplineSet
EndChar

StartChar: AE
Encoding: 198 198 162
Width: 3564
Flags: W
LayerCount: 2
Fore
SplineSet
-77 74 m 1,0,1
 -77 109 -77 109 -55 142.5 c 128,-1,2
 -33 176 -33 176 3 176 c 2,3,-1
 140 176 l 1,4,-1
 1115 1649 l 1,5,6
 1149 1697 1149 1697 1198.5 1705.5 c 128,-1,7
 1248 1714 1248 1714 1326 1714 c 2,8,-1
 1336 1714 l 1,9,-1
 2368 1714 l 2,10,11
 2455 1714 2455 1714 2503 1529 c 128,-1,12
 2551 1344 2551 1344 2551 1276 c 0,13,14
 2551 1245 2551 1245 2534.5 1225.5 c 128,-1,15
 2518 1206 2518 1206 2485 1206 c 0,16,17
 2441 1206 2441 1206 2411 1226 c 128,-1,18
 2381 1246 2381 1246 2371 1282 c 2,19,-1
 2303 1538 l 1,20,-1
 1394 1538 l 1,21,-1
 1498 967 l 1,22,-1
 1818 967 l 1,23,-1
 1836 1153 l 1,24,25
 1840 1182 1840 1182 1857 1201.5 c 128,-1,26
 1874 1221 1874 1221 1904 1221 c 0,27,28
 1940 1221 1940 1221 1961.5 1197.5 c 128,-1,29
 1983 1174 1983 1174 1990 1141 c 1,30,-1
 2016 899 l 1,31,-1
 2076 649 l 1,32,-1
 2076 635 l 2,33,34
 2076 602 2076 602 2061 585.5 c 128,-1,35
 2046 569 2046 569 2016 569 c 0,36,37
 1983 569 1983 569 1962 590 c 128,-1,38
 1941 611 1941 611 1928 637 c 1,39,-1
 1844 823 l 1,40,-1
 1525 823 l 1,41,-1
 1643 176 l 1,42,-1
 2452 176 l 1,43,-1
 2516 506 l 1,44,45
 2524 539 2524 539 2545 560.5 c 128,-1,46
 2566 582 2566 582 2602 582 c 0,47,48
 2637 582 2637 582 2661 561 c 128,-1,49
 2685 540 2685 540 2690 508 c 1,50,-1
 2690 488 l 2,51,52
 2690 484 2690 484 2691 479 c 128,-1,53
 2692 474 2692 474 2694 469 c 1,54,-1
 2694 78 l 1,55,56
 2691 40 2691 40 2676 20 c 128,-1,57
 2661 0 2661 0 2627 0 c 2,58,-1
 1156 0 l 2,59,60
 1122 0 1122 0 1106.5 23 c 128,-1,61
 1091 46 1091 46 1091 78 c 0,62,63
 1091 115 1091 115 1112 145.5 c 128,-1,64
 1133 176 1133 176 1172 176 c 2,65,-1
 1398 176 l 1,66,-1
 1334 567 l 1,67,-1
 605 567 l 1,68,-1
 361 176 l 1,69,-1
 548 176 l 2,70,71
 585 176 585 176 607.5 153 c 128,-1,72
 630 130 630 130 630 96 c 0,73,74
 630 55 630 55 601 27.5 c 128,-1,75
 572 0 572 0 527 0 c 2,76,-1
 -13 0 l 2,77,78
 -44 0 -44 0 -60.5 22 c 128,-1,79
 -77 44 -77 44 -77 74 c 1,80,-1
 -77 74 l 1,0,1
699 721 m 1,81,-1
 1310 721 l 1,82,-1
 1185 1499 l 1,83,-1
 699 721 l 1,81,-1
EndSplineSet
EndChar

StartChar: Oslash
Encoding: 216 216 163
Width: 1940
Flags: W
LayerCount: 2
Fore
SplineSet
957 1550 m 1,0,1
 1020 1550 1020 1550 1079 1541 c 128,-1,2
 1138 1532 1138 1532 1190 1515 c 1,3,-1
 595 270 l 1,4,5
 466 357 466 357 396.5 508 c 128,-1,6
 327 659 327 659 327 850 c 0,7,8
 327 1153 327 1153 493 1351.5 c 128,-1,9
 659 1550 659 1550 957 1550 c 1,10,-1
 957 1550 l 1,0,1
974 164 m 1,11,12
 914 164 914 164 859 172 c 128,-1,13
 804 180 804 180 755 195 c 1,14,-1
 1348 1436 l 1,15,16
 1476 1346 1476 1346 1545.5 1193.5 c 128,-1,17
 1615 1041 1615 1041 1615 848 c 0,18,19
 1615 542 1615 542 1444 353 c 128,-1,20
 1273 164 1273 164 974 164 c 1,21,-1
 974 164 l 1,11,12
499 -341 m 1,22,-1
 669 16 l 1,23,24
 738 -4 738 -4 812.5 -14.5 c 128,-1,25
 887 -25 887 -25 966 -25 c 0,26,27
 1360 -25 1360 -25 1611.5 214.5 c 128,-1,28
 1863 454 1863 454 1863 850 c 0,29,30
 1863 1113 1863 1113 1748.5 1314.5 c 128,-1,31
 1634 1516 1634 1516 1438 1625 c 1,32,-1
 1601 1967 l 2,33,34
 1604 1974 1604 1974 1605.5 1981 c 128,-1,35
 1607 1988 1607 1988 1607 1995 c 0,36,37
 1607 2032 1607 2032 1573 2056.5 c 128,-1,38
 1539 2081 1539 2081 1505 2081 c 0,39,40
 1483 2081 1483 2081 1467 2071 c 128,-1,41
 1451 2061 1451 2061 1443 2042 c 1,42,-1
 1276 1694 l 1,43,44
 1205 1716 1205 1716 1127 1727.5 c 128,-1,45
 1049 1739 1049 1739 966 1739 c 0,46,47
 575 1739 575 1739 326 1493 c 128,-1,48
 77 1247 77 1247 77 850 c 0,49,50
 77 586 77 586 192 387 c 128,-1,51
 307 188 307 188 505 83 c 1,52,-1
 335 -272 l 2,53,54
 331 -279 331 -279 329 -287 c 128,-1,55
 327 -295 327 -295 327 -303 c 0,56,57
 327 -339 327 -339 362 -364 c 128,-1,58
 397 -389 397 -389 432 -389 c 0,59,60
 458 -389 458 -389 473 -376 c 128,-1,61
 488 -363 488 -363 499 -341 c 1,62,-1
 499 -341 l 1,22,-1
EndSplineSet
EndChar

StartChar: plusminus
Encoding: 177 177 164
Width: 1238
Flags: W
LayerCount: 2
Fore
SplineSet
257 78 m 1,0,1
 257 109 257 109 279.5 132 c 128,-1,2
 302 155 302 155 334 155 c 2,3,-1
 898 155 l 2,4,5
 930 155 930 155 952.5 132 c 128,-1,6
 975 109 975 109 975 78 c 0,7,8
 975 46 975 46 952.5 23 c 128,-1,9
 930 0 930 0 898 0 c 2,10,-1
 334 0 l 2,11,12
 302 0 302 0 279.5 23 c 128,-1,13
 257 46 257 46 257 78 c 1,14,-1
 257 78 l 1,0,1
1073 847 m 2,15,16
 1104 847 1104 847 1125 826 c 128,-1,17
 1146 805 1146 805 1146 774 c 256,18,19
 1146 743 1146 743 1125 721.5 c 128,-1,20
 1104 700 1104 700 1073 700 c 2,21,-1
 699 700 l 1,22,-1
 699 377 l 2,23,24
 699 344 699 344 676 321 c 128,-1,25
 653 298 653 298 620 298 c 256,26,27
 587 298 587 298 564 321 c 128,-1,28
 541 344 541 344 541 377 c 2,29,-1
 541 700 l 1,30,-1
 165 700 l 2,31,32
 134 700 134 700 113 721.5 c 128,-1,33
 92 743 92 743 92 774 c 256,34,35
 92 805 92 805 113 826 c 128,-1,36
 134 847 134 847 165 847 c 2,37,-1
 541 847 l 1,38,-1
 541 1177 l 2,39,40
 541 1210 541 1210 564 1233 c 128,-1,41
 587 1256 587 1256 620 1256 c 256,42,43
 653 1256 653 1256 676 1233 c 128,-1,44
 699 1210 699 1210 699 1177 c 2,45,-1
 699 847 l 1,46,-1
 1073 847 l 2,15,16
EndSplineSet
EndChar

StartChar: yen
Encoding: 165 165 165
Width: 1824
Flags: W
LayerCount: 2
Fore
SplineSet
1763 1630 m 1,0,1
 1763 1593 1763 1593 1746 1565.5 c 128,-1,2
 1729 1538 1729 1538 1691 1538 c 2,3,-1
 1552 1538 l 1,4,-1
 1130 846 l 1,5,-1
 1406 846 l 2,6,7
 1437 846 1437 846 1458.5 824 c 128,-1,8
 1480 802 1480 802 1480 771 c 256,9,10
 1480 740 1480 740 1458.5 718.5 c 128,-1,11
 1437 697 1437 697 1406 697 c 2,12,-1
 1055 697 l 1,13,-1
 1055 584 l 1,14,-1
 1406 584 l 2,15,16
 1437 584 1437 584 1458.5 562.5 c 128,-1,17
 1480 541 1480 541 1480 510 c 256,18,19
 1480 479 1480 479 1458.5 457 c 128,-1,20
 1437 435 1437 435 1406 435 c 2,21,-1
 1055 435 l 1,22,-1
 1055 176 l 1,23,-1
 1278 176 l 2,24,25
 1316 176 1316 176 1332.5 148.5 c 128,-1,26
 1349 121 1349 121 1349 84 c 0,27,28
 1349 51 1349 51 1330 25.5 c 128,-1,29
 1311 0 1311 0 1276 0 c 2,30,-1
 559 0 l 2,31,32
 524 0 524 0 504.5 25.5 c 128,-1,33
 485 51 485 51 485 84 c 0,34,35
 485 121 485 121 502 148.5 c 128,-1,36
 519 176 519 176 557 176 c 2,37,-1
 821 176 l 1,38,-1
 821 435 l 1,39,-1
 471 435 l 2,40,41
 440 435 440 435 418.5 457 c 128,-1,42
 397 479 397 479 397 510 c 256,43,44
 397 541 397 541 418.5 562.5 c 128,-1,45
 440 584 440 584 471 584 c 2,46,-1
 821 584 l 1,47,-1
 821 697 l 1,48,-1
 471 697 l 2,49,50
 440 697 440 697 418.5 718.5 c 128,-1,51
 397 740 397 740 397 771 c 256,52,53
 397 802 397 802 418.5 824 c 128,-1,54
 440 846 440 846 471 846 c 2,55,-1
 757 846 l 1,56,-1
 346 1538 l 1,57,-1
 135 1538 l 2,58,59
 97 1538 97 1538 80 1565.5 c 128,-1,60
 63 1593 63 1593 63 1630 c 0,61,62
 63 1663 63 1663 82.5 1688.5 c 128,-1,63
 102 1714 102 1714 137 1714 c 2,64,-1
 731 1714 l 2,65,66
 766 1714 766 1714 785.5 1688.5 c 128,-1,67
 805 1663 805 1663 805 1630 c 0,68,69
 805 1593 805 1593 788 1565.5 c 128,-1,70
 771 1538 771 1538 733 1538 c 2,71,-1
 592 1538 l 1,72,-1
 977 891 l 1,73,-1
 1358 1538 l 1,74,-1
 1196 1538 l 2,75,76
 1158 1538 1158 1538 1141 1565.5 c 128,-1,77
 1124 1593 1124 1593 1124 1630 c 0,78,79
 1124 1663 1124 1663 1143.5 1688.5 c 128,-1,80
 1163 1714 1163 1714 1198 1714 c 2,81,-1
 1689 1714 l 2,82,83
 1724 1714 1724 1714 1743.5 1688.5 c 128,-1,84
 1763 1663 1763 1663 1763 1630 c 1,85,-1
 1763 1630 l 1,0,1
EndSplineSet
EndChar

StartChar: mu
Encoding: 956 956 166
Width: 1555
Flags: W
LayerCount: 2
Fore
SplineSet
395 -502 m 1,0,1
 430 -502 430 -502 458 -471 c 128,-1,2
 486 -440 486 -440 486 -371 c 0,3,4
 486 -264 486 -264 472.5 -135.5 c 128,-1,5
 459 -7 459 -7 447 100 c 1,6,7
 482 44 482 44 543.5 9.5 c 128,-1,8
 605 -25 605 -25 666 -25 c 0,9,10
 796 -25 796 -25 915 35.5 c 128,-1,11
 1034 96 1034 96 1092 182 c 1,12,-1
 1107 84 l 2,13,14
 1114 35 1114 35 1131.5 15.5 c 128,-1,15
 1149 -4 1149 -4 1178 -4 c 1,16,-1
 1451 25 l 1,17,18
 1479 32 1479 32 1493.5 54.5 c 128,-1,19
 1508 77 1508 77 1508 109 c 0,20,21
 1508 143 1508 143 1490 166.5 c 128,-1,22
 1472 190 1472 190 1438 190 c 2,23,-1
 1287 190 l 1,24,-1
 1287 1139 l 2,25,26
 1287 1163 1287 1163 1273 1175.5 c 128,-1,27
 1259 1188 1259 1188 1236 1188 c 0,28,29
 1231 1188 1231 1188 1226.5 1187.5 c 128,-1,30
 1222 1187 1222 1187 1219 1186 c 2,31,-1
 900 1106 l 2,32,33
 872 1099 872 1099 857 1076.5 c 128,-1,34
 842 1054 842 1054 842 1022 c 0,35,36
 842 991 842 991 868 966.5 c 128,-1,37
 894 942 894 942 924 942 c 0,38,39
 929 942 929 942 933 942.5 c 128,-1,40
 937 943 937 943 939 944 c 2,41,-1
 1082 979 l 1,42,-1
 1082 354 l 1,43,44
 1040 266 1040 266 935.5 205.5 c 128,-1,45
 831 145 831 145 703 145 c 0,46,47
 597 145 597 145 545.5 218 c 128,-1,48
 494 291 494 291 494 401 c 2,49,-1
 494 1139 l 2,50,51
 494 1163 494 1163 480 1175.5 c 128,-1,52
 466 1188 466 1188 443 1188 c 0,53,54
 438 1188 438 1188 434 1187.5 c 128,-1,55
 430 1187 430 1187 427 1186 c 2,56,-1
 107 1106 l 2,57,58
 79 1099 79 1099 64.5 1076.5 c 128,-1,59
 50 1054 50 1054 50 1022 c 0,60,61
 50 991 50 991 76 966.5 c 128,-1,62
 102 942 102 942 132 942 c 0,63,64
 137 942 137 942 140.5 942.5 c 128,-1,65
 144 943 144 943 146 944 c 2,66,-1
 289 979 l 1,67,-1
 289 -375 l 2,68,69
 289 -434 289 -434 322.5 -468 c 128,-1,70
 356 -502 356 -502 395 -502 c 1,71,-1
 395 -502 l 1,0,1
EndSplineSet
EndChar

StartChar: ordfeminine
Encoding: 170 170 167
Width: 1366
Flags: W
LayerCount: 2
Fore
SplineSet
1122 558 m 1,0,1
 1122 509 1122 509 1057 474 c 128,-1,2
 992 439 992 439 949 439 c 0,3,4
 899 439 899 439 868 464 c 128,-1,5
 837 489 837 489 826 539 c 1,6,7
 781 487 781 487 708.5 462 c 128,-1,8
 636 437 636 437 553 437 c 0,9,10
 459 437 459 437 395.5 494.5 c 128,-1,11
 332 552 332 552 332 645 c 0,12,13
 332 810 332 810 494 847 c 128,-1,14
 656 884 656 884 810 897 c 1,15,-1
 810 997 l 2,16,17
 810 1046 810 1046 768.5 1064.5 c 128,-1,18
 727 1083 727 1083 679 1083 c 0,19,20
 593 1083 593 1083 548 1064.5 c 128,-1,21
 503 1046 503 1046 445 1009 c 0,22,23
 439 1005 439 1005 433.5 1003 c 128,-1,24
 428 1001 428 1001 423 1001 c 0,25,26
 402 1001 402 1001 385.5 1021 c 128,-1,27
 369 1041 369 1041 369 1063 c 0,28,29
 369 1137 369 1137 477 1162.5 c 128,-1,30
 585 1188 585 1188 662 1188 c 0,31,32
 818 1188 818 1188 875.5 1121.5 c 128,-1,33
 933 1055 933 1055 933 901 c 2,34,-1
 933 590 l 2,35,36
 933 571 933 571 939.5 558.5 c 128,-1,37
 946 546 946 546 960 546 c 0,38,39
 987 546 987 546 1022 579 c 128,-1,40
 1057 612 1057 612 1079 612 c 0,41,42
 1092 612 1092 612 1107 593.5 c 128,-1,43
 1122 575 1122 575 1122 558 c 1,44,-1
 1122 558 l 1,0,1
810 804 m 1,45,46
 712 794 712 794 588 772.5 c 128,-1,47
 464 751 464 751 464 648 c 0,48,49
 464 596 464 596 503.5 570.5 c 128,-1,50
 543 545 543 545 596 545 c 0,51,52
 660 545 660 545 713.5 568 c 128,-1,53
 767 591 767 591 810 625 c 1,54,-1
 810 804 l 1,45,46
EndSplineSet
EndChar

StartChar: ordmasculine
Encoding: 186 186 168
Width: 1363
Flags: W
LayerCount: 2
Fore
SplineSet
755 1075 m 1,0,1
 630 1075 630 1075 560.5 993.5 c 128,-1,2
 491 912 491 912 491 787 c 0,3,4
 491 660 491 660 560.5 578.5 c 128,-1,5
 630 497 630 497 755 497 c 0,6,7
 878 497 878 497 945 580 c 128,-1,8
 1012 663 1012 663 1012 787 c 256,9,10
 1012 911 1012 911 945 993 c 128,-1,11
 878 1075 878 1075 755 1075 c 1,12,-1
 755 1075 l 1,0,1
755 384 m 1,13,14
 572 384 572 384 458 493.5 c 128,-1,15
 344 603 344 603 344 787 c 256,16,17
 344 971 344 971 458 1079.5 c 128,-1,18
 572 1188 572 1188 755 1188 c 0,19,20
 936 1188 936 1188 1047 1078 c 128,-1,21
 1158 968 1158 968 1158 787 c 256,22,23
 1158 606 1158 606 1047 495 c 128,-1,24
 936 384 936 384 755 384 c 1,25,-1
 755 384 l 1,13,14
EndSplineSet
EndChar

StartChar: ae
Encoding: 230 230 169
Width: 1990
Flags: W
LayerCount: 2
Fore
SplineSet
1029 967 m 1,0,1
 1090 1069 1090 1069 1196.5 1128.5 c 128,-1,2
 1303 1188 1303 1188 1454 1188 c 0,3,4
 1638 1188 1638 1188 1776.5 1058 c 128,-1,5
 1915 928 1915 928 1915 728 c 0,6,7
 1915 660 1915 660 1867 647 c 128,-1,8
 1819 634 1819 634 1752 627 c 1,9,-1
 1109 580 l 1,10,11
 1113 399 1113 399 1212.5 286.5 c 128,-1,12
 1312 174 1312 174 1477 174 c 0,13,14
 1584 174 1584 174 1647 217.5 c 128,-1,15
 1710 261 1710 261 1762 314 c 0,16,17
 1775 327 1775 327 1790 333.5 c 128,-1,18
 1805 340 1805 340 1821 340 c 0,19,20
 1861 340 1861 340 1889.5 315.5 c 128,-1,21
 1918 291 1918 291 1918 250 c 0,22,23
 1918 127 1918 127 1762 51 c 128,-1,24
 1606 -25 1606 -25 1477 -25 c 0,25,26
 1321 -25 1321 -25 1187.5 53.5 c 128,-1,27
 1054 132 1054 132 997 269 c 1,28,29
 943 109 943 109 801.5 42 c 128,-1,30
 660 -25 660 -25 506 -25 c 0,31,32
 332 -25 332 -25 210 59.5 c 128,-1,33
 88 144 88 144 88 307 c 0,34,35
 88 571 88 571 363.5 630 c 128,-1,36
 639 689 639 689 902 711 c 1,37,38
 902 863 902 863 855 940.5 c 128,-1,39
 808 1018 808 1018 651 1018 c 0,40,41
 500 1018 500 1018 441 957.5 c 128,-1,42
 382 897 382 897 246 897 c 0,43,44
 204 897 204 897 176 919 c 128,-1,45
 148 941 148 941 148 985 c 0,46,47
 148 1105 148 1105 323.5 1146.5 c 128,-1,48
 499 1188 499 1188 623 1188 c 0,49,50
 792 1188 792 1188 887.5 1135.5 c 128,-1,51
 983 1083 983 1083 1029 967 c 1,52,-1
 1029 967 l 1,0,1
900 576 m 1,53,54
 731 558 731 558 517 522.5 c 128,-1,55
 303 487 303 487 303 313 c 0,56,57
 303 228 303 228 366 186.5 c 128,-1,58
 429 145 429 145 516 145 c 0,59,60
 789 145 789 145 844.5 302 c 128,-1,61
 900 459 900 459 900 540 c 2,62,-1
 900 568 l 1,63,-1
 900 576 l 1,53,54
1409 1018 m 1,64,65
 1287 1018 1287 1018 1196 943 c 128,-1,66
 1105 868 1105 868 1105 731 c 0,67,68
 1105 724 1105 724 1105.5 718.5 c 128,-1,69
 1106 713 1106 713 1109 707 c 1,70,-1
 1615 747 l 1,71,72
 1643 751 1643 751 1666 758.5 c 128,-1,73
 1689 766 1689 766 1689 790 c 0,74,75
 1689 909 1689 909 1607.5 963.5 c 128,-1,76
 1526 1018 1526 1018 1409 1018 c 1,77,-1
 1409 1018 l 1,64,65
EndSplineSet
EndChar

StartChar: oslash
Encoding: 248 248 170
Width: 1363
Flags: W
LayerCount: 2
Fore
SplineSet
691 1018 m 1,0,1
 728 1018 728 1018 761 1013 c 128,-1,2
 794 1008 794 1008 824 998 c 1,3,-1
 451 218 l 1,4,5
 374 274 374 274 333 368.5 c 128,-1,6
 292 463 292 463 292 582 c 0,7,8
 292 772 292 772 396.5 895 c 128,-1,9
 501 1018 501 1018 691 1018 c 1,10,-1
 691 1018 l 1,0,1
691 145 m 1,11,12
 653 145 653 145 618 150.5 c 128,-1,13
 583 156 583 156 552 166 c 1,14,-1
 924 945 l 1,15,16
 999 888 999 888 1038.5 793 c 128,-1,17
 1078 698 1078 698 1078 582 c 0,18,19
 1078 395 1078 395 977 270 c 128,-1,20
 876 145 876 145 691 145 c 1,21,-1
 691 145 l 1,11,12
386 -181 m 1,22,-1
 475 5 l 1,23,24
 524 -10 524 -10 578.5 -17.5 c 128,-1,25
 633 -25 633 -25 691 -25 c 0,26,27
 963 -25 963 -25 1131 142 c 128,-1,28
 1299 309 1299 309 1299 582 c 0,29,30
 1299 766 1299 766 1220.5 904.5 c 128,-1,31
 1142 1043 1142 1043 1005 1115 c 1,32,-1
 1091 1296 l 2,33,34
 1093 1300 1093 1300 1094 1305 c 128,-1,35
 1095 1310 1095 1310 1095 1314 c 0,36,37
 1095 1338 1095 1338 1073.5 1353.5 c 128,-1,38
 1052 1369 1052 1369 1030 1369 c 0,39,40
 1016 1369 1016 1369 1005.5 1363 c 128,-1,41
 995 1357 995 1357 990 1344 c 1,42,-1
 901 1158 l 1,43,44
 853 1173 853 1173 800.5 1180.5 c 128,-1,45
 748 1188 748 1188 691 1188 c 0,46,47
 415 1188 415 1188 242.5 1024 c 128,-1,48
 70 860 70 860 70 582 c 0,49,50
 70 396 70 396 150 258 c 128,-1,51
 230 120 230 120 369 48 c 1,52,-1
 281 -137 l 2,53,54
 279 -141 279 -141 277.5 -146 c 128,-1,55
 276 -151 276 -151 276 -156 c 0,56,57
 276 -179 276 -179 298.5 -195.5 c 128,-1,58
 321 -212 321 -212 343 -212 c 0,59,60
 360 -212 360 -212 369.5 -203.5 c 128,-1,61
 379 -195 379 -195 386 -181 c 1,62,-1
 386 -181 l 1,22,-1
EndSplineSet
EndChar

StartChar: questiondown
Encoding: 191 191 171
Width: 1096
Flags: W
LayerCount: 2
Fore
SplineSet
446 1557 m 1,0,1
 446 1638 446 1638 504.5 1689.5 c 128,-1,2
 563 1741 563 1741 644 1741 c 0,3,4
 715 1741 715 1741 752.5 1685 c 128,-1,5
 790 1629 790 1629 790 1559 c 0,6,7
 790 1484 790 1484 740.5 1429 c 128,-1,8
 691 1374 691 1374 616 1374 c 0,9,10
 544 1374 544 1374 495 1430 c 128,-1,11
 446 1486 446 1486 446 1557 c 1,12,-1
 446 1557 l 1,0,1
607 1238 m 1,13,14
 691 1238 691 1238 708.5 1184 c 128,-1,15
 726 1130 726 1130 726 1054 c 2,16,-1
 726 1041 l 2,17,18
 726 808 726 808 515 743 c 128,-1,19
 304 678 304 678 304 438 c 0,20,21
 304 284 304 284 399 227 c 128,-1,22
 494 170 494 170 648 170 c 0,23,24
 682 170 682 170 709.5 176.5 c 128,-1,25
 737 183 737 183 755 201 c 1,26,27
 763 310 763 310 783.5 395.5 c 128,-1,28
 804 481 804 481 923 481 c 0,29,30
 985 481 985 481 1023.5 435 c 128,-1,31
 1062 389 1062 389 1062 328 c 0,32,33
 1062 151 1062 151 906 64.5 c 128,-1,34
 750 -22 750 -22 573 -22 c 0,35,36
 347 -22 347 -22 186.5 110 c 128,-1,37
 26 242 26 242 26 467 c 0,38,39
 26 730 26 730 259 799.5 c 128,-1,40
 492 869 492 869 492 1077 c 0,41,42
 492 1146 492 1146 516.5 1192 c 128,-1,43
 541 1238 541 1238 607 1238 c 1,44,-1
 607 1238 l 1,13,14
EndSplineSet
EndChar

StartChar: exclamdown
Encoding: 161 161 172
Width: 728
Flags: W
LayerCount: 2
Fore
SplineSet
502 127 m 1,0,1
 502 54 502 54 464.5 14.5 c 128,-1,2
 427 -25 427 -25 367 -25 c 0,3,4
 308 -25 308 -25 269.5 14 c 128,-1,5
 231 53 231 53 231 123 c 0,6,7
 231 378 231 378 268 632 c 128,-1,8
 305 886 305 886 305 1157 c 0,9,10
 305 1182 305 1182 323.5 1200.5 c 128,-1,11
 342 1219 342 1219 367 1219 c 256,12,13
 392 1219 392 1219 410 1200.5 c 128,-1,14
 428 1182 428 1182 428 1157 c 0,15,16
 428 888 428 888 465 633.5 c 128,-1,17
 502 379 502 379 502 127 c 1,18,-1
 502 127 l 1,0,1
365 1739 m 1,19,20
 440 1739 440 1739 490.5 1688 c 128,-1,21
 541 1637 541 1637 541 1562 c 256,22,23
 541 1487 541 1487 490.5 1436.5 c 128,-1,24
 440 1386 440 1386 365 1386 c 256,25,26
 290 1386 290 1386 239 1436.5 c 128,-1,27
 188 1487 188 1487 188 1562 c 256,28,29
 188 1637 188 1637 239 1688 c 128,-1,30
 290 1739 290 1739 365 1739 c 1,31,-1
 365 1739 l 1,19,20
EndSplineSet
EndChar

StartChar: logicalnot
Encoding: 172 172 173
Width: 1291
Flags: W
LayerCount: 2
Fore
SplineSet
171 715 m 1,0,1
 171 756 171 756 201 786.5 c 128,-1,2
 231 817 231 817 273 817 c 2,3,-1
 1015 817 l 2,4,5
 1057 817 1057 817 1087 786.5 c 128,-1,6
 1117 756 1117 756 1117 715 c 2,7,-1
 1117 711 l 1,8,-1
 1117 409 l 2,9,10
 1117 367 1117 367 1092 346.5 c 128,-1,11
 1067 326 1067 326 1038 326 c 256,12,13
 1009 326 1009 326 985 345.5 c 128,-1,14
 961 365 961 365 961 403 c 2,15,-1
 961 612 l 1,16,-1
 273 612 l 2,17,18
 230 612 230 612 200.5 642 c 128,-1,19
 171 672 171 672 171 715 c 1,20,-1
 171 715 l 1,0,1
EndSplineSet
EndChar

StartChar: florin
Encoding: 402 402 174
Width: 1042
Flags: W
LayerCount: 2
Fore
SplineSet
360 946 m 1,0,-1
 182 946 l 2,1,2
 140 946 140 946 120 970 c 128,-1,3
 100 994 100 994 100 1032 c 0,4,5
 100 1069 100 1069 118.5 1095.5 c 128,-1,6
 137 1122 137 1122 176 1122 c 2,7,-1
 360 1122 l 1,8,-1
 360 1227 l 2,9,10
 360 1490 360 1490 510 1614.5 c 128,-1,11
 660 1739 660 1739 928 1739 c 0,12,13
 961 1739 961 1739 986.5 1719.5 c 128,-1,14
 1012 1700 1012 1700 1012 1665 c 2,15,-1
 1012 1493 l 2,16,17
 1012 1451 1012 1451 988 1431 c 128,-1,18
 964 1411 964 1411 926 1411 c 0,19,20
 889 1411 889 1411 862 1429.5 c 128,-1,21
 835 1448 835 1448 835 1487 c 2,22,-1
 835 1556 l 1,23,24
 676 1542 676 1542 619 1468 c 128,-1,25
 562 1394 562 1394 562 1231 c 0,26,27
 562 1221 562 1221 562.5 1211 c 128,-1,28
 563 1201 563 1201 563 1191 c 2,29,-1
 565 1122 l 1,30,-1
 784 1122 l 2,31,32
 822 1122 822 1122 839 1094.5 c 128,-1,33
 856 1067 856 1067 856 1030 c 0,34,35
 856 997 856 997 836.5 971.5 c 128,-1,36
 817 946 817 946 782 946 c 2,37,-1
 563 946 l 1,38,-1
 565 71 l 2,39,40
 565 -192 565 -192 448 -316.5 c 128,-1,41
 331 -441 331 -441 117 -441 c 0,42,43
 84 -441 84 -441 58.5 -421.5 c 128,-1,44
 33 -402 33 -402 33 -367 c 2,45,-1
 33 -195 l 2,46,47
 33 -153 33 -153 57 -133 c 128,-1,48
 81 -113 81 -113 119 -113 c 0,49,50
 156 -113 156 -113 183 -131.5 c 128,-1,51
 210 -150 210 -150 210 -189 c 2,52,-1
 210 -258 l 1,53,54
 297 -244 297 -244 330 -170 c 128,-1,55
 363 -96 363 -96 363 67 c 0,56,57
 363 77 363 77 362 193 c 128,-1,58
 361 309 361 309 360 946 c 1,59,-1
 360 946 l 1,0,-1
EndSplineSet
EndChar

StartChar: guillemotleft
Encoding: 171 171 175
Width: 1573
Flags: W
LayerCount: 2
Fore
SplineSet
706 273 m 1,0,-1
 143 676 l 1,1,2
 115 694 115 694 96 712.5 c 128,-1,3
 77 731 77 731 77 755 c 0,4,5
 77 780 77 780 95.5 799 c 128,-1,6
 114 818 114 818 143 837 c 1,7,-1
 693 1240 l 1,8,9
 713 1250 713 1250 731.5 1254.5 c 128,-1,10
 750 1259 750 1259 766 1259 c 0,11,12
 807 1259 807 1259 830.5 1234 c 128,-1,13
 854 1209 854 1209 854 1175 c 0,14,15
 854 1147 854 1147 836 1116.5 c 128,-1,16
 818 1086 818 1086 780 1064 c 1,17,-1
 371 751 l 1,18,-1
 782 440 l 1,19,20
 824 415 824 415 844 383.5 c 128,-1,21
 864 352 864 352 864 324 c 0,22,23
 864 295 864 295 843 274.5 c 128,-1,24
 822 254 822 254 784 254 c 0,25,26
 768 254 768 254 748 258.5 c 128,-1,27
 728 263 728 263 706 273 c 1,28,-1
 706 273 l 1,0,-1
1336 273 m 1,29,-1
 773 676 l 1,30,31
 745 694 745 694 726 712.5 c 128,-1,32
 707 731 707 731 707 755 c 0,33,34
 707 780 707 780 725.5 799 c 128,-1,35
 744 818 744 818 773 837 c 1,36,-1
 1323 1240 l 1,37,38
 1343 1250 1343 1250 1361.5 1254.5 c 128,-1,39
 1380 1259 1380 1259 1396 1259 c 0,40,41
 1437 1259 1437 1259 1460.5 1234 c 128,-1,42
 1484 1209 1484 1209 1484 1175 c 0,43,44
 1484 1147 1484 1147 1466 1116.5 c 128,-1,45
 1448 1086 1448 1086 1410 1064 c 1,46,-1
 1001 751 l 1,47,-1
 1412 440 l 1,48,49
 1454 415 1454 415 1474 383.5 c 128,-1,50
 1494 352 1494 352 1494 324 c 0,51,52
 1494 295 1494 295 1473 274.5 c 128,-1,53
 1452 254 1452 254 1414 254 c 0,54,55
 1398 254 1398 254 1378 258.5 c 128,-1,56
 1358 263 1358 263 1336 273 c 1,57,-1
 1336 273 l 1,29,-1
EndSplineSet
EndChar

StartChar: guillemotright
Encoding: 187 187 176
Width: 1572
Flags: W
LayerCount: 2
Fore
SplineSet
868 273 m 1,0,1
 846 263 846 263 826 258.5 c 128,-1,2
 806 254 806 254 790 254 c 0,3,4
 752 254 752 254 731.5 274.5 c 128,-1,5
 711 295 711 295 711 324 c 0,6,7
 711 352 711 352 730.5 383.5 c 128,-1,8
 750 415 750 415 792 440 c 1,9,-1
 1204 751 l 1,10,-1
 794 1064 l 1,11,12
 756 1086 756 1086 738 1116.5 c 128,-1,13
 720 1147 720 1147 720 1175 c 0,14,15
 720 1209 720 1209 743.5 1234 c 128,-1,16
 767 1259 767 1259 808 1259 c 0,17,18
 824 1259 824 1259 842.5 1254.5 c 128,-1,19
 861 1250 861 1250 882 1240 c 1,20,-1
 1432 837 l 1,21,22
 1461 818 1461 818 1479.5 799 c 128,-1,23
 1498 780 1498 780 1498 755 c 0,24,25
 1498 731 1498 731 1479 712.5 c 128,-1,26
 1460 694 1460 694 1432 676 c 1,27,-1
 868 273 l 1,0,1
238 273 m 1,28,29
 216 263 216 263 196 258.5 c 128,-1,30
 176 254 176 254 160 254 c 0,31,32
 122 254 122 254 101.5 274.5 c 128,-1,33
 81 295 81 295 81 324 c 0,34,35
 81 352 81 352 100.5 383.5 c 128,-1,36
 120 415 120 415 162 440 c 1,37,-1
 574 751 l 1,38,-1
 164 1064 l 1,39,40
 126 1086 126 1086 108 1116.5 c 128,-1,41
 90 1147 90 1147 90 1175 c 0,42,43
 90 1209 90 1209 113.5 1234 c 128,-1,44
 137 1259 137 1259 178 1259 c 0,45,46
 194 1259 194 1259 212.5 1254.5 c 128,-1,47
 231 1250 231 1250 252 1240 c 1,48,-1
 802 837 l 1,49,50
 831 818 831 818 849.5 799 c 128,-1,51
 868 780 868 780 868 755 c 0,52,53
 868 731 868 731 849 712.5 c 128,-1,54
 830 694 830 694 802 676 c 1,55,-1
 238 273 l 1,28,29
EndSplineSet
EndChar

StartChar: OE
Encoding: 338 338 181
Width: 3047
Flags: W
LayerCount: 2
Fore
SplineSet
950 -25 m 1,0,1
 565 -25 565 -25 319.5 214.5 c 128,-1,2
 74 454 74 454 74 850 c 0,3,4
 74 1247 74 1247 319.5 1493 c 128,-1,5
 565 1739 565 1739 950 1739 c 0,6,7
 1153 1739 1153 1739 1332 1646 c 128,-1,8
 1511 1553 1511 1553 1589 1387 c 1,9,-1
 1589 1714 l 1,10,-1
 2786 1714 l 2,11,12
 2822 1714 2822 1714 2839 1692.5 c 128,-1,13
 2856 1671 2856 1671 2868 1636 c 1,14,-1
 2964 1319 l 2,15,16
 2967 1308 2967 1308 2968.5 1298 c 128,-1,17
 2970 1288 2970 1288 2970 1280 c 0,18,19
 2970 1247 2970 1247 2949.5 1226.5 c 128,-1,20
 2929 1206 2929 1206 2897 1206 c 0,21,22
 2860 1206 2860 1206 2833.5 1228.5 c 128,-1,23
 2807 1251 2807 1251 2794 1282 c 2,24,-1
 2686 1538 l 1,25,-1
 1822 1538 l 1,26,-1
 1822 967 l 1,27,-1
 2156 967 l 1,28,-1
 2207 1153 l 2,29,30
 2215 1181 2215 1181 2235.5 1201 c 128,-1,31
 2256 1221 2256 1221 2287 1221 c 0,32,33
 2321 1221 2321 1221 2339 1198.5 c 128,-1,34
 2357 1176 2357 1176 2357 1141 c 1,35,-1
 2342 899 l 1,36,-1
 2357 649 l 1,37,38
 2357 614 2357 614 2339 591.5 c 128,-1,39
 2321 569 2321 569 2287 569 c 0,40,41
 2256 569 2256 569 2235.5 589 c 128,-1,42
 2215 609 2215 609 2207 637 c 2,43,-1
 2156 823 l 1,44,-1
 1822 823 l 1,45,-1
 1822 176 l 1,46,-1
 2686 176 l 1,47,-1
 2802 506 l 1,48,49
 2816 537 2816 537 2841 559.5 c 128,-1,50
 2866 582 2866 582 2905 582 c 0,51,52
 2938 582 2938 582 2958 562 c 128,-1,53
 2978 542 2978 542 2978 508 c 0,54,55
 2978 498 2978 498 2976.5 488 c 128,-1,56
 2975 478 2975 478 2972 469 c 1,57,-1
 2909 78 l 1,58,59
 2899 42 2899 42 2881 21 c 128,-1,60
 2863 0 2863 0 2827 0 c 2,61,-1
 1589 0 l 1,62,-1
 1589 311 l 1,63,64
 1526 160 1526 160 1339 67.5 c 128,-1,65
 1152 -25 1152 -25 950 -25 c 1,66,-1
 950 -25 l 1,0,1
941 1550 m 1,67,68
 649 1550 649 1550 486.5 1351.5 c 128,-1,69
 324 1153 324 1153 324 850 c 256,70,71
 324 547 324 547 491 355.5 c 128,-1,72
 658 164 658 164 958 164 c 0,73,74
 1253 164 1253 164 1421 353 c 128,-1,75
 1589 542 1589 542 1589 848 c 0,76,77
 1589 1157 1589 1157 1416.5 1353.5 c 128,-1,78
 1244 1550 1244 1550 941 1550 c 1,79,-1
 941 1550 l 1,67,68
EndSplineSet
EndChar

StartChar: oe
Encoding: 339 339 182
Width: 2264
Flags: W
LayerCount: 2
Fore
SplineSet
1939 756 m 1,0,1
 1939 899 1939 899 1851.5 958.5 c 128,-1,2
 1764 1018 1764 1018 1660 1018 c 0,3,4
 1493 1018 1493 1018 1394.5 931 c 128,-1,5
 1296 844 1296 844 1284 700 c 1,6,-1
 1865 713 l 2,7,8
 1893 714 1893 714 1916 723.5 c 128,-1,9
 1939 733 1939 733 1939 756 c 1,10,-1
 1939 756 l 1,0,1
1288 559 m 1,11,12
 1288 363 1288 363 1404.5 260.5 c 128,-1,13
 1521 158 1521 158 1692 158 c 0,14,15
 1819 158 1819 158 1891.5 205.5 c 128,-1,16
 1964 253 1964 253 2030 314 c 0,17,18
 2045 327 2045 327 2062 333.5 c 128,-1,19
 2079 340 2079 340 2096 340 c 0,20,21
 2136 340 2136 340 2164 315.5 c 128,-1,22
 2192 291 2192 291 2192 250 c 0,23,24
 2192 122 2192 122 2006.5 48.5 c 128,-1,25
 1821 -25 1821 -25 1684 -25 c 0,26,27
 1517 -25 1517 -25 1384 42 c 128,-1,28
 1251 109 1251 109 1173 230 c 1,29,30
 1100 111 1100 111 974.5 43 c 128,-1,31
 849 -25 849 -25 688 -25 c 0,32,33
 411 -25 411 -25 239 140 c 128,-1,34
 67 305 67 305 67 582 c 0,35,36
 67 860 67 860 239.5 1024 c 128,-1,37
 412 1188 412 1188 688 1188 c 0,38,39
 848 1188 848 1188 973.5 1121 c 128,-1,40
 1099 1054 1099 1054 1172 935 c 1,41,42
 1244 1053 1244 1053 1369 1120.5 c 128,-1,43
 1494 1188 1494 1188 1660 1188 c 0,44,45
 1860 1188 1860 1188 2025 1049.5 c 128,-1,46
 2190 911 2190 911 2190 692 c 0,47,48
 2190 617 2190 617 2143.5 602 c 128,-1,49
 2097 587 2097 587 2026 580 c 1,50,-1
 1288 559 l 1,11,12
688 1018 m 1,51,52
 498 1018 498 1018 393.5 895 c 128,-1,53
 289 772 289 772 289 582 c 0,54,55
 289 391 289 391 393.5 268 c 128,-1,56
 498 145 498 145 688 145 c 0,57,58
 873 145 873 145 974 270 c 128,-1,59
 1075 395 1075 395 1075 582 c 256,60,61
 1075 769 1075 769 974 893.5 c 128,-1,62
 873 1018 873 1018 688 1018 c 1,63,-1
 688 1018 l 1,51,52
EndSplineSet
EndChar

StartChar: endash
Encoding: 8211 8211 183
Width: 1237
Flags: W
LayerCount: 2
Fore
SplineSet
1072 781 m 2,0,1
 1115 781 1115 781 1146.5 749.5 c 128,-1,2
 1178 718 1178 718 1178 675 c 0,3,4
 1178 631 1178 631 1146.5 600 c 128,-1,5
 1115 569 1115 569 1072 569 c 2,6,-1
 165 569 l 2,7,8
 121 569 121 569 90 600 c 128,-1,9
 59 631 59 631 59 675 c 0,10,11
 59 718 59 718 90 749.5 c 128,-1,12
 121 781 121 781 165 781 c 2,13,-1
 1072 781 l 2,0,1
EndSplineSet
EndChar

StartChar: emdash
Encoding: 8212 8212 184
Width: 1449
Flags: W
LayerCount: 2
Fore
SplineSet
1340 781 m 2,0,1
 1383 781 1383 781 1414.5 749.5 c 128,-1,2
 1446 718 1446 718 1446 675 c 0,3,4
 1446 631 1446 631 1414.5 600 c 128,-1,5
 1383 569 1383 569 1340 569 c 2,6,-1
 105 569 l 2,7,8
 61 569 61 569 30 600 c 128,-1,9
 -1 631 -1 631 -1 675 c 0,10,11
 -1 718 -1 718 30 749.5 c 128,-1,12
 61 781 61 781 105 781 c 2,13,-1
 1340 781 l 2,0,1
EndSplineSet
EndChar

StartChar: quotedblleft
Encoding: 8220 8220 185
Width: 1190
Flags: W
LayerCount: 2
Fore
SplineSet
655 1279 m 1,0,1
 655 1436 655 1436 735.5 1539.5 c 128,-1,2
 816 1643 816 1643 929 1700 c 0,3,4
 941 1707 941 1707 953.5 1710 c 128,-1,5
 966 1713 966 1713 976 1713 c 0,6,7
 1008 1713 1008 1713 1029.5 1692 c 128,-1,8
 1051 1671 1051 1671 1051 1645 c 0,9,10
 1051 1632 1051 1632 1043.5 1618 c 128,-1,11
 1036 1604 1036 1604 1020 1593 c 0,12,13
 963 1555 963 1555 902.5 1501 c 128,-1,14
 842 1447 842 1447 842 1362 c 1,15,16
 923 1362 923 1362 976.5 1325 c 128,-1,17
 1030 1288 1030 1288 1030 1212 c 0,18,19
 1030 1135 1030 1135 978 1096 c 128,-1,20
 926 1057 926 1057 860 1057 c 0,21,22
 778 1057 778 1057 716.5 1113 c 128,-1,23
 655 1169 655 1169 655 1279 c 1,24,-1
 655 1279 l 1,0,1
350 1057 m 1,25,26
 268 1057 268 1057 206.5 1113 c 128,-1,27
 145 1169 145 1169 145 1279 c 0,28,29
 145 1436 145 1436 225.5 1539.5 c 128,-1,30
 306 1643 306 1643 419 1700 c 0,31,32
 431 1707 431 1707 443.5 1710 c 128,-1,33
 456 1713 456 1713 466 1713 c 0,34,35
 498 1713 498 1713 519.5 1692 c 128,-1,36
 541 1671 541 1671 541 1645 c 0,37,38
 541 1632 541 1632 533.5 1618 c 128,-1,39
 526 1604 526 1604 510 1593 c 0,40,41
 453 1555 453 1555 392.5 1501 c 128,-1,42
 332 1447 332 1447 332 1362 c 1,43,44
 413 1362 413 1362 466.5 1325 c 128,-1,45
 520 1288 520 1288 520 1212 c 0,46,47
 520 1135 520 1135 468 1096 c 128,-1,48
 416 1057 416 1057 350 1057 c 1,49,-1
 350 1057 l 1,25,26
EndSplineSet
EndChar

